<?xml version="1.0" encoding="utf-8"?>
<!-- Generator: Adobe Illustrator 27.6.1, SVG Export Plug-In . SVG Version: 6.00 Build 0)  -->
<svg version="1.1" xmlns="http://www.w3.org/2000/svg" xmlns:xlink="http://www.w3.org/1999/xlink" x="0px" y="0px"
	 viewBox="0 0 319 106" style="enable-background:new 0 0 319 106;" xml:space="preserve">
<style type="text/css">
	.st0{fill:#5FA5CC;}
	.st1{opacity:0.83;}
	.st2{fill:#FFFFFF;}
	.st3{fill:#76CEC6;}
	.st4{fill:none;stroke:#FFFFFF;stroke-width:2;stroke-linecap:round;stroke-linejoin:round;stroke-miterlimit:10;}
	.st5{fill:#5F6F3C;}
	.st6{fill:#47532E;}
	.st7{fill:#89A256;}
	.st8{fill:#B8D878;}
	.st9{fill:#9EBA68;}
	.st10{fill:#A7C46D;}
	.st11{fill:#73844B;}
	.st12{fill:#427288;}
	.st13{fill:#305160;}
	.st14{fill:#C27545;}
	.st15{fill:#EFF0CE;}
	.st16{fill:#A2563A;}
	.st17{fill:#699FB6;}
	.st18{fill:#6192A7;}
	.st19{fill:#DC9041;}
	.st20{fill:#4B809A;}
	.st21{fill:#417086;}
	.st22{fill:#E2B045;}
	.st23{fill:#765B1D;}
	.st24{fill:#98B53F;}
	.st25{fill:#809635;}
	.st26{fill:#885282;}
	.st27{fill:#A6629D;}
	.st28{fill:#A8539E;}
	.st29{fill:#CA62BE;}
	.st30{fill:#D199CD;}
	.st31{fill:#D7B5D6;}
	.st32{fill:#B06FAA;}
	.st33{fill:#CE97CB;}
	.st34{clip-path:url(#SVGID_00000059282580293802043480000002390522694791032994_);}
	.st35{fill:#E0BE50;}
	.st36{fill:#F2F3CF;}
	.st37{opacity:0.5;fill:#E0BE50;}
	.st38{fill:#CE2280;}
</style>
<g id="Capa_3">
</g>
<g id="Capa_1">
</g>
<g id="Capa_2">
	<g>
		<g class="st1">
			<path class="st2" d="M28.7,78.7c0,1-0.8,1.8-1.8,1.8c-1,0-1.8-0.8-1.8-1.8c0-1,0.8-1.8,1.8-1.8C27.9,76.9,28.7,77.7,28.7,78.7z"
				/>
			<circle class="st2" cx="34" cy="69.9" r="4"/>
			<path class="st2" d="M25.7,63.1c0,1-0.8,1.8-1.8,1.8c-1,0-1.8-0.8-1.8-1.8c0-1,0.8-1.8,1.8-1.8C24.9,61.3,25.7,62.1,25.7,63.1z"
				/>
			<path class="st2" d="M33.9,51.5c0,1.7-1.3,3-3,3c-1.7,0-3-1.3-3-3s1.3-3,3-3C32.5,48.5,33.9,49.8,33.9,51.5z"/>
			<circle class="st2" cx="41.5" cy="52.3" r="1.6"/>
			<circle class="st2" cx="29.1" cy="35.8" r="2"/>
			<circle class="st2" cx="20.2" cy="43.6" r="3.3"/>
			<path class="st2" d="M40.2,33.5c0,0.8-0.6,1.4-1.4,1.4c-0.8,0-1.4-0.6-1.4-1.4s0.6-1.4,1.4-1.4C39.6,32.1,40.2,32.7,40.2,33.5z"
				/>
		</g>
		<g>
			<path class="st3" d="M42.7,59.7c0-13,10.5-22.7,24.5-22.7c6.4,0,12.1,2.2,16.3,6.1c1.7,1.6,1.7,3.7,0,5.2l-4.2,3.5
				c-1.7,1.5-3.2,1.4-5.1,0.1c-2-1.4-4.4-2.3-7.1-2.3c-5.7,0-10.1,4.2-10.1,10.1s4.4,10.1,10.1,10.1c2.7,0,5.2-0.9,7.1-2.3
				c1.8-1.3,3.4-1.4,5.1,0.1l4.2,3.5c1.7,1.5,1.7,3.6,0,5.2c-4.2,3.9-9.9,6.1-16.5,6.1C53.3,82.4,42.7,72.7,42.7,59.7z"/>
			<path class="st3" d="M87.1,59.7c0-13,10.5-22.7,24.5-22.7c14,0,24.5,9.7,24.5,22.7c0,12.9-10.5,22.7-24.5,22.7
				C97.7,82.4,87.1,72.7,87.1,59.7z M121.9,59.7c0-5.9-4.6-10.1-10.2-10.1c-5.7,0-10.2,4.2-10.2,10.1s4.6,10.1,10.2,10.1
				C117.3,69.8,121.9,65.7,121.9,59.7z"/>
			<path class="st3" d="M181.9,81c-2.3,1.1-4.1,1.4-5.9,1.4c-4.7,0-7.3-1.7-10.3-6.9l-2.7-4.7c-1.4-2.4-1.8-4.3-5.4-4.3h-1.3v11.5
				c0,2.3-1.3,3.6-3.6,3.6h-6.8c-2.4,0-3.6-1.3-3.6-3.6V41.4c0-2.3,1.2-3.6,3.6-3.6h16.8c11.7,0,17.9,5.7,17.9,14.8
				c0,5.8-3.3,9.8-8.2,12.1c0.9,0.1,1.5,0.7,2.3,2.2L176,69c0.3,0.4,0.6,1.1,1.1,1.4c0.5,0.2,1.1,0.1,2-0.2c1.6-0.5,2.2,0.2,2.8,2.2
				l1.6,5C184.3,79.7,183.2,80.4,181.9,81z M156.3,57.4h5.7c2.2,0,4.3-1.3,4.3-4c0-2.8-2.1-4.2-4.3-4.2h-5.7V57.4z"/>
			<path class="st3" d="M233.1,81.2c-2.3,1-4,1.3-5.9,1.3c-3.4,0-5.9-1.1-7.9-3c-1.1-1.1-2.2-2.6-3.1-4.2h-14.6l-1.1,2.8
				c-0.9,2.3-1.3,3.6-3.7,3.6h-8.2c-2.4,0-3.7-1.3-2.6-3.6l17.8-37c1.1-2.4,2.8-3.6,5.3-3.6h0.8c2.4,0,4.1,1.2,5.3,3.6l12.5,27.6
				c0.3,0.7,0.6,1.3,0.9,1.5c0.5,0.2,1.1,0,1.9-0.2c1.7-0.5,2.4,0.2,2.8,2.2l1.4,5.5C235.3,80,234.3,80.7,233.1,81.2z M205.2,66.1
				h7.3l-3.4-9.9L205.2,66.1z"/>
			<path class="st3" d="M238.8,78.1V41.4c0-2.3,1.2-3.6,3.6-3.6h6.8c2.4,0,3.6,1.3,3.6,3.6v28.9h12.7c2.3,0,3.6,1.3,3.6,3.6v4.1
				c0,2.3-1.3,3.6-3.6,3.6h-23.2C240,81.6,238.8,80.4,238.8,78.1z"/>
		</g>
		<g>
			<path class="st4" d="M42.7,59.7c0-13,10.5-22.7,24.5-22.7c6.4,0,12.1,2.2,16.3,6.1c1.7,1.6,1.7,3.7,0,5.2l-4.2,3.5
				c-1.7,1.5-3.2,1.4-5.1,0.1c-2-1.4-4.4-2.3-7.1-2.3c-5.7,0-10.1,4.2-10.1,10.1s4.4,10.1,10.1,10.1c2.7,0,5.2-0.9,7.1-2.3
				c1.8-1.3,3.4-1.4,5.1,0.1l4.2,3.5c1.7,1.5,1.7,3.6,0,5.2c-4.2,3.9-9.9,6.1-16.5,6.1C53.3,82.4,42.7,72.7,42.7,59.7z"/>
			<path class="st4" d="M87.1,59.7c0-13,10.5-22.7,24.5-22.7c14,0,24.5,9.7,24.5,22.7c0,12.9-10.5,22.7-24.5,22.7
				C97.7,82.4,87.1,72.7,87.1,59.7z M121.9,59.7c0-5.9-4.6-10.1-10.2-10.1c-5.7,0-10.2,4.2-10.2,10.1s4.6,10.1,10.2,10.1
				C117.3,69.8,121.9,65.7,121.9,59.7z"/>
			<path class="st4" d="M181.9,81c-2.3,1.1-4.1,1.4-5.9,1.4c-4.7,0-7.3-1.7-10.3-6.9l-2.7-4.7c-1.4-2.4-1.8-4.3-5.4-4.3h-1.3v11.5
				c0,2.3-1.3,3.6-3.6,3.6h-6.8c-2.4,0-3.6-1.3-3.6-3.6V41.4c0-2.3,1.2-3.6,3.6-3.6h16.8c11.7,0,17.9,5.7,17.9,14.8
				c0,5.8-3.3,9.8-8.2,12.1c0.9,0.1,1.5,0.7,2.3,2.2L176,69c0.3,0.4,0.6,1.1,1.1,1.4c0.5,0.2,1.1,0.1,2-0.2c1.6-0.5,2.2,0.2,2.8,2.2
				l1.6,5C184.3,79.7,183.2,80.4,181.9,81z M156.3,57.4h5.7c2.2,0,4.3-1.3,4.3-4c0-2.8-2.1-4.2-4.3-4.2h-5.7V57.4z"/>
			<path class="st4" d="M233.1,81.2c-2.3,1-4,1.3-5.9,1.3c-3.4,0-5.9-1.1-7.9-3c-1.1-1.1-2.2-2.6-3.1-4.2h-14.6l-1.1,2.8
				c-0.9,2.3-1.3,3.6-3.7,3.6h-8.2c-2.4,0-3.7-1.3-2.6-3.6l17.8-37c1.1-2.4,2.8-3.6,5.3-3.6h0.8c2.4,0,4.1,1.2,5.3,3.6l12.5,27.6
				c0.3,0.7,0.6,1.3,0.9,1.5c0.5,0.2,1.1,0,1.9-0.2c1.7-0.5,2.4,0.2,2.8,2.2l1.4,5.5C235.3,80,234.3,80.7,233.1,81.2z M205.2,66.1
				h7.3l-3.4-9.9L205.2,66.1z"/>
			<path class="st4" d="M238.8,78.1V41.4c0-2.3,1.2-3.6,3.6-3.6h6.8c2.4,0,3.6,1.3,3.6,3.6v28.9h12.7c2.3,0,3.6,1.3,3.6,3.6v4.1
				c0,2.3-1.3,3.6-3.6,3.6h-23.2C240,81.6,238.8,80.4,238.8,78.1z"/>
		</g>
		<g>
			<g>
				<path class="st5" d="M220.3,35.8c-1.5-1-1.9,0.4-3.2,1.1c-2.3,1.3-3.6-2-5.1-3.2c-3-2.4-7.8-0.7-10.4,1.5
					c-2.9,2.4-4.8,6.1-4,9.9c0.6,2.9,1.6,5.4-0.7,7.9c-2.2,2.3-4.9,3.3-6.4,6.2c-3,5.8-0.8,12.7,4.3,16.4l-2.2-8.8
					c1.2-5.1,7.6-6.1,9.5-10.6c2.2-5-1.6-11,2.5-15.5c1.6-1.8,4.4-3.5,6.3-1.4c1.4,1.5,2.2,2.9,4.4,2.5c2.2-0.4,2.8-2,3.7-3.8
					c0.5-0.9,1.1-1.7,2.2-1.2C221,36.4,220.7,36.1,220.3,35.8z"/>
				<path class="st6" d="M218,37.7c-0.7,0.5-1.4,1-2.2,1.3c-1.3,0.4-1.6-1.1-2.2-1.9c-1-1.6-3.5-2-5.2-2.2c-2-0.3-4-0.1-5.7,1.2
					c-1.5,1.1-2.1,2.7-2.3,4.5c-0.2,2.4-0.1,4.9-0.3,7.3c-0.2,2.4-0.2,5.2-1.9,7.1c-1.4,1.5-3.6,2-5,3.5c-1.2,1.3-1.7,3-1.8,4.7
					c-0.1,1.9,0.4,3.7,0.9,5.5c0.5,1.9,0.8,3.8,1.6,5.5c0.1,0.2,0.4,0.1,0.3-0.1c-0.9-2.3-1.1-4.7-1.6-7.1c-0.5-2.1-0.6-4.4,0.3-6.4
					c0.9-2,2.8-2.7,4.6-3.8c1.8-1.1,2.8-2.8,3.1-4.9c0.4-2.5,0.4-5,0.5-7.5c0-2.2-0.2-4.5,0.9-6.5c1.2-2.1,3.8-2.7,6.1-2.5
					c1.1,0.1,2.3,0.4,3.4,0.7c1.3,0.4,1.9,1.3,2.4,2.4c1,2.1,3.5,0.7,4.6-0.6C218.4,37.9,218.2,37.6,218,37.7z"/>
			</g>
			<g>
				<g>
					<path class="st5" d="M195.8,75.6c0-0.2-0.2-0.2-0.3-0.4c-0.2-0.2-0.4-0.4-0.5-0.6c-0.3-0.3-0.6-0.8-1-1c0,0,0,0-0.1,0
						c-0.6-1-0.9-2.2-1-3.4c0-2,1.1-3.9,2-5.7c1.7-3.4,3.4-7.1,1.4-10.8c-0.9-1.7-2.4-3-3.9-4.2c-1.7-1.4-3-3.2-3.2-5.4
						c-0.4-4.4,5.1-6.2,5.5-10.3c0.1-0.9-0.3-1.7-0.9-2.4c-0.3-0.4-1-1.2-1.6-1.2c-0.2,0-0.3,0.3-0.1,0.4c0.3,0.2,0.6,0.3,0.8,0.5
						c0,0,0.1,0.1,0.1,0.1c0,0,0.1,0.1,0.1,0.1c0.3,0.5,0.2,1.2,0.1,1.8c-0.3,1.3-1.7,1.9-2.8,2.5c-1.8,0.9-3,2.1-3.8,4
						c-1.5,3.5-2.3,7.7-0.6,11.3c0.8,1.7,2,2.9,3.3,4.2c1.5,1.5,2.3,3.2,1.6,5.3c-0.6,1.9-2.2,3.3-2.9,5.1c-0.8,1.9-0.4,3.9,0.6,5.6
						c1.4,2.3,4.3,4.4,7.1,4.8C195.7,76,195.8,75.8,195.8,75.6C195.8,75.7,195.8,75.7,195.8,75.6z"/>
					<path class="st6" d="M195.4,58.5c0.1-1.9-0.6-3.5-1.9-4.9c-1.5-1.6-3.3-2.8-4.6-4.6c-1.3-1.9-1.8-4.1-1-6.3
						c0.7-2.1,2.7-3.2,4.1-4.7c1.4-1.4,2.2-3.3,2-5.2c0-0.1-0.2-0.1-0.2,0c0.1,2.5-1.5,4.5-3.4,6.1c-1.6,1.3-2.8,2.7-3.3,4.7
						c-1,4.3,2.7,7.4,5.5,10.1c1.8,1.7,2.6,3.9,1.9,6.3c-0.6,2.2-2.5,3.8-3.6,5.7c-1.7,2.9-0.7,7.4,2.7,8.7c0.1,0,0.1,0.1,0.2,0.1
						c0.2,0.1,0.3-0.2,0.1-0.3c-1.9-0.8-3.3-2.6-3.5-4.6c-0.2-2.3,1.2-4.2,2.6-5.9C194.3,62.1,195.3,60.4,195.4,58.5z"/>
				</g>
				<g>
					<path class="st7" d="M198.1,65.7c-0.1-1.4-0.5-2.9-1.3-4.1c-0.8-1.2-1.8-2.2-2.6-3.3c-1-1.3-1.5-2.6-1.6-4.2
						c0-1.8,0.5-3.6,1-5.3c0.5-1.7,0.9-3.3,1.1-5c0.1-0.9,0.2-1.8,0.3-2.6c0-0.3,0-0.7,0-1.2c0.2-0.4,0.3-0.8,0.1-1.2
						c-0.1-0.2-0.4-0.2-0.4,0c-0.2,0.3-0.2,0.7-0.1,1c-0.2,0.4-0.6,0.8-0.8,1c-0.4,0.5-0.8,0.9-1.2,1.4c-1.1,1.4-1.9,2.8-2.5,4.4
						c-1.1,3-1.3,6.3-0.8,9.4c0.5,3.3,1.9,6.2,4.2,8.6c1.4,1.5,2.4,2.8,2.5,4.9c0.1,2-0.6,3.9-0.5,5.9c0,0.3,0.5,0.3,0.4,0
						c0-0.1,0-0.3,0-0.4c0.1,0,0.1-0.1,0.1-0.2c0.1-1.6,1-3.1,1.5-4.7C198,68.9,198.2,67.3,198.1,65.7z"/>
					<path class="st5" d="M197.3,66.8c0-2.5-1.3-4.5-3.1-6.3c-1-0.9-1.9-1.9-2.7-3c-0.9-1.4-1-3-0.9-4.6c0.1-1.5,0.6-3.1,1.2-4.5
						c0.5-1.5,1-2.9,1.3-4.4c0-0.1-0.2-0.2-0.2-0.1c-0.5,1.4-0.6,2.8-1.2,4.2c-0.6,1.4-1.1,2.7-1.4,4.3c-0.4,2.7,0.3,5.1,2.2,7.1
						c1,1.1,2.1,2,2.9,3.1c0.9,1.2,1.3,2.6,1.4,4c0.1,1.7-0.3,3.3-0.6,4.9c-0.3,1.4-0.8,2.7-0.6,4.2c0,0.2,0.3,0.2,0.3,0
						c-0.1-1.5,0.5-2.9,0.8-4.3C197.1,69.8,197.3,68.3,197.3,66.8z"/>
				</g>
				<g>
					<path class="st8" d="M203.8,39.6c-1-1.1-2.6-0.5-3.8,0c-1.6,0.8-2.8,2.1-3.5,3.7c-0.4,0.8-0.6,1.7-0.7,2.7
						c-0.1,1.2,0.3,2.4,0.4,3.5c0.3,2.5-1.4,4.7-3.4,6.1c-1.7,1.2-3.6,2-5.3,3.4c-1.5,1.2-2.9,2.8-3.4,4.7
						c-1.1,3.4-0.1,7.9,2.9,10.1c2.4,1.8,5.3,1.4,8.1,2c0.3,0.1,0.4-0.3,0.1-0.4c-0.2-0.1-0.4-0.1-0.6-0.2c0-0.1-0.1-0.2-0.2-0.2
						c-1.8-0.2-3.5-1.4-4.6-2.8c-1.2-1.6-2.1-3.6-1.6-5.5c0.4-1.7,1.9-3.2,3.2-4.4c1.3-1.2,2.8-2.3,4.1-3.6c2.4-2.4,3.6-5.5,4-8.8
						c0.2-2,0-3.9,0-5.9c0-0.9,0.5-1.8,1-2.5c0.6-0.9,2-2.2,3.1-1.5C203.8,40.1,204.1,39.8,203.8,39.6z"/>
					<path class="st9" d="M199.3,40.8c-1.4,1-2.1,2.2-2.4,3.9c-0.3,2.2,0.1,4.3,0,6.5c-0.1,2.2-0.9,4.4-2.6,5.9
						c-1.4,1.3-3.4,1.9-5,2.9c-1.4,0.9-2.4,2.1-3.2,3.6c-0.8,1.7-0.6,3.7-0.3,5.5c0.3,1.7,1.6,3.3,3,4.3c0.8,0.5,1.6,0.7,2.5,1
						c1.2,0.3,2.2,0.7,3.2,1.4c0.2,0.1,0.4-0.2,0.2-0.3c-0.6-0.5-1.2-0.9-1.9-1.2c-1-0.4-2.1-0.5-3.1-1c-1.8-0.8-3.1-2.7-3.5-4.6
						c-0.4-2-0.3-4.1,0.9-5.9c1-1.5,2.5-2.5,4.1-3.3c1.5-0.7,3-1.5,4.1-2.8c1.1-1.3,1.6-3,1.9-4.6c0.3-2,0-3.9,0-5.9
						c0-1.1,0.1-2.2,0.6-3.2c0.4-0.8,1.1-1.4,1.7-2.1C199.6,40.9,199.4,40.7,199.3,40.8z"/>
				</g>
				<g>
					<path class="st10" d="M209.4,45.3c-1.5-0.4-3,0.6-3.9,1.7c-2.8,3.3-2.4,8-4.6,11.6c-1.1,1.9-3,3.4-5.2,3.7
						c-1.8,0.2-3.8-0.1-5.3,1c-3,2.2-0.8,6.4,1,8.7c1.1,1.4,2.6,2.4,3.8,3.9c0.2,0.2,0.6-0.1,0.4-0.3c0,0,0,0,0,0c0,0,0,0-0.1-0.1
						c-0.2-0.2-0.3-0.4-0.5-0.6c-0.1-0.3-0.2-0.7-0.2-1c-0.1-0.7-0.4-1.3-0.6-2c-0.5-1.7,0.3-3.3,1.7-4.3c2.1-1.6,4.9-1.9,6.8-3.8
						c2.2-2.1,3.1-5.1,3.4-8c0.2-2,0.2-4.2,1-6c0.3-0.7,0.7-1.4,1.3-1.9c0.4-0.4,0.9-0.6,1.4-0.8c0.5-0.1,1.1,0.2,1.5,0.4
						c0.1,0.1,0.3,0,0.4-0.2C211.9,46.1,210.2,45.6,209.4,45.3z"/>
					<path class="st11" d="M210.1,46.2c-1.3-0.5-3,0-3.9,1c-1,1.1-1.5,2.7-2,4c-0.4,1-0.6,2-0.8,3c-0.2,1.1-0.2,2.1-0.4,3.2
						c-0.4,2-1.2,3.9-2.9,5.3c-0.9,0.8-2,1-3.2,1c-1,0-2-0.3-2.9-0.1c-1.6,0.2-2.7,1.4-3.2,2.8c-0.6,1.6,0.3,3.4,1.1,4.7
						c0.5,0.8,1.1,1.6,1.6,2.4c0.5,0.8,1.1,1.7,1.8,2.3c0.2,0.1,0.5,0,0.3-0.2c-0.9-1.5-2-2.9-2.9-4.4c-1-1.5-1.9-3.4-1.1-5.2
						c0.4-0.7,1-1.4,1.7-1.8c0.9-0.5,2-0.3,3-0.2c1.7,0.1,3-0.1,4.3-1.2c1.1-0.9,1.9-2.3,2.4-3.6c0.6-1.9,0.6-3.8,0.9-5.7
						c0.3-1.7,1-3.3,1.8-4.9c0.8-1.7,2.3-2.6,4.3-2.2C210.2,46.5,210.3,46.3,210.1,46.2z"/>
				</g>
			</g>
		</g>
		<g>
			<g>
				<g>
					<path class="st12" d="M49.3,28.8c-1.6-1.5-3.8-2.6-6-2.7c-4.8-0.3-7.8,4.7-7.8,9c0.1,5.1,4.6,8.7,9.4,9c2.2,0.2,4.2-0.3,6-1.5
						c1-0.1,1.9-0.5,2.5-1.4c1.3-2,1.1-4.5,0.2-6.6C52.7,32.4,51,30.4,49.3,28.8z"/>
					<path class="st13" d="M47.9,29.5c-2.2-1.8-6.4-3.5-8.8-1.2c-0.2,0.2-0.2,0.4,0,0.6c0,0,0,0,0,0c-0.1,0.1-0.1,0.3,0,0.4
						c-0.1,0.1-0.2,0.2-0.1,0.3c0,0,0,0,0,0c-1.8,1.4-1.9,4.4-0.8,6.3c1.6,2.8,4.7,4.6,7.8,5.4c0.8,0.2,2.8,0.9,3.5,0
						c0.1-0.1,0.1-0.2,0.1-0.4c0.4-0.1,0.6-0.7,0.6-1.2c0-1.4-0.8-2.8-1.5-4c-1-1.7-2.1-3.4-3.5-4.9c1.4,0.7,2.5,1.8,3.3,3.2
						c0.6,1,1,2,1.4,3.1c0.2,0.6,0.3,1.3,0.7,1.8c0.9,0.9,1.1-0.8,1.1-1.3C52,34.6,50.3,31.5,47.9,29.5z M47.3,39.1
						C47.3,39.1,47.3,39,47.3,39.1c-1.7-1.2-3-2.8-4.3-4.4c-0.7-0.9-1.3-1.8-2-2.7c0.5,0.5,1.1,1,1.6,1.5c1.5,1.5,2.8,3.1,4.1,4.9
						C47,38.6,47.1,38.8,47.3,39.1z M41.4,29.2c-0.5,0-1.1,0-1.5-0.2C40.3,28.9,40.9,29,41.4,29.2z M47.1,41.1
						c-2.8-0.4-5.7-2-7.5-4.1c-1.6-1.8-2.1-5.1-0.3-6.9c1.3,2.3,2.9,4.4,4.5,6.4c0.9,1,1.8,1.9,2.9,2.7c0.6,0.5,1.3,0.9,1.9,1.3
						c0.1,0,0.1,0.1,0.2,0.1C49.4,41.3,47.5,41.1,47.1,41.1z M47.7,35.5c0.7,1.2,1.5,2.5,1.8,3.9c0.1,0.3,0,0.5-0.2,0.8
						c-0.2-0.1-0.3-0.3-0.5-0.5c-0.2-0.3-0.5-0.6-0.7-0.8c-1-1.1-1.8-2.4-2.8-3.5c-0.9-1-1.8-2-2.8-3c-0.9-0.9-2-1.8-2.8-2.8
						c0,0,0,0,0,0c0,0,0,0,0,0c0.3,0.1,0.6,0.1,1,0.1c0.9,0.1,1.7,0.2,2.6,0.4c0.7,0.6,1.4,1.3,2,2C46.2,33.2,47,34.4,47.7,35.5z
						 M51.2,38.5c0,0.2-0.3-0.7-0.3-0.7c-0.1-0.3-0.1-0.5-0.2-0.8c-0.2-0.7-0.6-1.5-0.9-2.2c-0.6-1.3-1.5-2.5-2.6-3.5
						c-0.9-0.8-2.1-1.3-3.3-1.7c-0.6-0.5-1.3-0.8-2.1-1.1c-0.5-0.1-1.1-0.3-1.7-0.2c2.4-1.4,5.9,0.5,7.7,2.1
						C50.1,32.5,51.4,35.6,51.2,38.5z"/>
				</g>
				<g>
					<path class="st14" d="M45.5,22.2c-1.6,1-2.8,2.6-4.2,3.9c0.4-1.2,1-2.4,1.3-3.7c0.2-0.9,0.5-2.3-0.5-2.9
						c-0.1-0.1-0.3,0-0.4,0.1c-0.9,1.5-1.4,3.2-1.8,4.9c-0.1-0.8-0.3-1.7-0.5-2.5c-0.2-0.6-0.6-2.4-1.5-2.3C37,19.6,37,21.5,37,22
						c0,1,0.1,1.9,0.4,2.8c-0.4-0.4-0.7-0.9-1.1-1.3c-0.5-0.7-1.1-1.3-1.9-1.6c-0.2-0.1-0.5,0.1-0.5,0.3c0,1.1,0.6,2.2,1.3,3.1
						c0.6,0.9,1.7,1.4,2.2,2.3c-1.5,0-3.1-0.9-4.5-1.4c-0.2-0.1-2.2-0.9-2,0.1c0.2,1.1,1.2,1.7,2.1,2.2c0.6,0.4,1.3,0.6,2,0.8
						c0.7,0.2,1.5,0.1,2.2,0.2c-0.6,0.5-1.8,0.7-2.4,0.9c-1.3,0.4-2.3,1.3-3.5,1.8c-0.3,0.1-0.2,0.5,0,0.6c1.1,0.6,2.4,0.5,3.6,0.4
						c1-0.1,1.9-0.6,2.7-1.1c-0.1,0.2-0.2,0.5-0.3,0.7c-0.3,0.7-0.9,2.1-0.4,2.8c0.7,0.9,1.6-0.1,2-0.7c0.4-0.6,0.7-1.4,0.9-2.2
						c0.2,0.8,0.6,1.5,1.2,2.1c0.1,0.1,0.4,0.1,0.5-0.1c0.6-0.6,0.2-1.6,0.1-2.3c-0.2-0.8-0.7-1.6-1-2.4c1.4,0.9,2.6,2.1,4.2,2.4
						c0.2,0,0.4-0.2,0.4-0.4c-0.1-0.8-0.8-1.2-1.5-1.6c-1-0.5-2-1-3-1.5c1.3-0.2,2.9,0.2,4-0.6c0.2-0.1,0.2-0.3,0.1-0.5
						c-0.6-1-1.9-0.9-3.1-0.7c0.8-0.7,1.7-1.3,2.5-2c0.6-0.5,1.7-1.4,1.5-2.4C46,22.2,45.7,22,45.5,22.2z"/>
					<path class="st15" d="M40.4,26.3C40.4,26.3,40.3,26.2,40.4,26.3c-1-1.1-2.4-0.1-3,0.9c-0.4,0.7-0.6,1.5-0.4,2.3
						c0.1,0.6,0.4,1.5,1,1.8C39.8,32.3,42.2,27.5,40.4,26.3z"/>
					<path class="st16" d="M38.5,26.9c-0.7,0.4-1,1.4-0.9,2.3c-0.1,0.5,0,0.9,0.4,1.2c1,0.9,1.7-0.7,1.9-1.5
						c0.1-0.5,0.2-0.9,0.1-1.4C39.8,26.8,39.1,26.5,38.5,26.9z"/>
				</g>
			</g>
			<g>
				<g>
					<path class="st17" d="M47.7,37.9c-2.9-1.8-8.1-3-9.5,1.1c-1.2,3.5,1.5,6.3,4.6,7.6c1.6,0.6,3.4,0.9,5.1,0.3
						c1.1-0.4,2.1-1.1,2.9-2c0.4-0.5,0.9-1.1,1-1.7c0.2-0.8-0.2-1.5-0.6-2.2c-0.5-0.9-1.3-1.6-2.1-2.2
						C48.6,38.4,48.1,38.2,47.7,37.9z"/>
					<path class="st18" d="M49.3,40.1c-1-0.9-2.2-1.6-3.5-2.1c-1.2-0.5-2.5-0.8-3.7-1c-0.9-0.1-2-0.1-2.5,0.8
						c-0.2,0.3,0.2,0.7,0.5,0.4c0.7-0.9,2.3-0.4,3.2-0.2c1,0.2,2,0.5,2.9,1c1,0.5,1.9,1.1,2.7,1.7c0.4,0.3,0.7,0.7,1,1.1
						c-1.4-0.9-3-1.6-4.6-2.2c-1-0.4-2.1-0.6-3.1-0.7c-0.9-0.1-1.9-0.3-2.8-0.4c0.1-0.3-0.4-0.4-0.5-0.1c0,0,0,0.1,0,0.1
						c0,0-0.1,0-0.1,0c-0.2,0-0.4,0.2-0.3,0.4c0.1,0.1,0.1,0.2,0.2,0.4c-0.2,1,0,1.9,0.5,2.9c0.7,1.3,1.8,2.3,3.1,3
						c1.4,0.8,2.9,1,4.4,0.9c0.7-0.1,1.4-0.3,2.1-0.5c0.9-0.3,1.4-0.8,2.2-1.4c0.2-0.1,0.1-0.4-0.1-0.5c-1.1-0.1-2.1-0.4-3.1-0.6
						c-1.1-0.2-2.2-0.3-3.2-0.6c-1.9-0.5-4.1-1.7-5.3-3.4c0,0,0-0.1,0-0.1c0.8,0.1,1.7,0.2,2.5,0.4c1.1,0.2,2.2,0.4,3.3,0.8
						c2.2,0.8,4.4,1.9,6.1,3.3c0.3,0.2,0.6-0.1,0.4-0.4C50.8,42,50.3,41,49.3,40.1z M46.8,43.4c1.1,0.2,2.1,0.5,3.2,0.6
						c-0.4,0.3-0.7,0.6-1.2,0.8c-0.6,0.3-1.3,0.4-2,0.5c-1.3,0.2-2.6,0-3.8-0.5c-1.3-0.6-2.3-1.4-3.1-2.5c-0.4-0.5-0.6-1.1-0.8-1.6
						C39,40.4,39,40.1,39,39.8c1.1,1.3,2.7,2.2,4.2,2.8C44.4,43.1,45.6,43.2,46.8,43.4z"/>
				</g>
				<g>
					<path class="st19" d="M44.5,36.1c-1.8-0.1-3.4,0.6-4.9,1.4c0.6-0.8,1.3-1.6,1.6-2.6c0.2-0.6,0.4-1.2,0.5-1.8
						c0.1-0.8,0-1.6,0.4-2.4c0.2-0.4-0.4-0.7-0.6-0.3c-1,1.9-1.9,3.8-2.4,5.8c-0.2-1-0.4-1.9-0.9-2.9c-0.3-0.8-0.9-2.2-1.9-2.5
						c-0.2,0-0.3,0.1-0.3,0.3c0,1.1,0.3,2.2,0.5,3.2c0.3,1.2,0.8,2.2,1.3,3.3c-1-0.3-1.8-1-2.7-1.4c-1-0.4-2.1-1-3.2-1.3
						c-0.2-0.1-0.4,0.2-0.3,0.4c0.5,1.2,1.6,2,2.7,2.6c0.6,0.4,1.2,0.7,1.9,0.9c0.1,0,0.2,0,0.3,0.1c-0.8,0.5-1.7,0.9-2.5,1.3
						c-0.6,0.3-1.6,1-1.1,1.8c0.6,0.9,2.1,0,2.7-0.3c0.5-0.3,1-0.7,1.4-1c-0.3,1-0.3,2.1-0.1,3.1c0,0.2,0.3,0.3,0.5,0.2
						c1.5-0.6,1.6-2.5,1.6-4.2c0.6,1,1.3,1.9,2.4,2.5c0.3,0.2,0.5-0.1,0.5-0.4c0-1.3-0.9-2.5-2.1-3.3c0.9-0.2,1.7-0.5,2.5-0.8
						c0.8-0.3,2.1-0.5,2.3-1.5C45,36.3,44.8,36.1,44.5,36.1z"/>
					<path class="st15" d="M38.3,36.6c-1.2,0.5-2,2.1-1.6,3.4c0.2,0.5,0.7,0.7,1.2,0.7c0.6,0,1.2-0.5,1.6-0.9c0.5-0.5,0.8-1,0.9-1.7
						c0-0.3-0.1-0.6-0.2-0.8C39.9,36.7,39.2,36.3,38.3,36.6z"/>
					<path class="st16" d="M38.2,37.5c-0.1,0-0.1,0.1-0.2,0.1c-0.6,0.2-1.1,1-0.9,1.7c0.2,0.7,0.9,0.6,1.4,0.3
						c0.5-0.3,1-0.8,1.1-1.4C39.7,37.4,38.8,37.1,38.2,37.5z"/>
				</g>
			</g>
			<g>
				<path class="st20" d="M53.3,27.4c-1.8-0.7-4.1-0.5-5.4,0.9c-1.5,1.5-1.8,3.8-1.7,5.9c0.2,2.5,1.8,6.2,4.4,7.3
					c1.1,1.5,3.2,1.7,4.8,0.7c1.6-1.1,2.2-3.3,2.5-5.1C58.5,33.2,57.1,28.9,53.3,27.4z"/>
				<path class="st21" d="M52.7,27.3c-0.2-0.2-0.5-0.3-0.7-0.4c-0.3-0.1-0.8,0.1-1.1,0c-0.4-0.2-0.7,0.5-0.3,0.7
					c0.6,0.3,1-0.1,1.6,0.3c0.7,0.5,1.3,1.3,1.8,2c1,1.3,1.7,2.9,2.2,4.5c0.7,2.4,0.5,5.2-1.4,6.8c0.4-2-0.2-4.5-0.9-6.3
					c-0.6-1.6-1.2-3.1-1.9-4.6c-0.4-0.9-0.9-2.1-1.8-2.7c-0.1-0.1-0.4,0-0.4,0.2c0.2,0.9,0.6,1.7,1,2.5c0.6,1.3,1.1,2.6,1.5,3.9
					c0.4,1.4,0.7,2.8,1,4.3c0.2,0.8,0.5,1.6,0.6,2.4c-0.1-0.3-0.2-0.6-0.3-0.8c-0.4-0.9-0.7-1.8-1-2.6c-0.6-1.6-1.4-3.2-2-4.7
					c-0.4-0.9-0.7-1.8-0.9-2.7c-0.2-0.7-0.1-1.4-0.2-2.1c-0.1-0.9-0.8-0.6-1.2-0.2c-2.1,2-1.4,5.9-0.6,8.3c0.5,1.5,1.3,2.7,2.4,3.8
					c1.1,1,2.3,2.1,3.7,2.5c0.1,0,0.1,0,0.2,0c0,0,0,0,0,0c0.2,0.1,0.4,0,0.5-0.2c0,0,0-0.1,0-0.1c2.6-1.7,3.1-4.7,2.4-7.6
					c-0.4-1.8-1.3-3.6-2.4-5.1C54.1,28.7,53.5,27.9,52.7,27.3z M53.3,35.4c0.4,1.3,0.9,2.8,0.9,4.3c0-0.1-0.1-0.2-0.1-0.3
					C53.9,38,53.6,36.7,53.3,35.4z M50.9,39.7c-1.2-1-1.9-2.3-2.5-3.8c-0.5-1.3-0.7-2.7-0.8-4.1c0-0.9,0.2-1.7,0.5-2.5
					c0.2-0.4,0.4-0.7,0.7-1.1c0,0,0.1,0.6,0.1,0.7c0,2.5,1.4,4.9,2.4,7.1c0.6,1.3,1.1,2.7,1.6,4c0.2,0.5,0.4,1.2,0.7,1.8
					C52.6,41.3,51.8,40.4,50.9,39.7z"/>
			</g>
			<g>
				<path class="st22" d="M53.3,21.1c-0.1-0.1-0.2-0.3-0.4-0.2c-1.1,0.2-1.6,1.4-2,2.3c-0.3,0.7-0.5,1.3-0.8,2
					c-0.1,0.2-0.1,0.4-0.2,0.7c-0.1-0.6-0.2-1.2-0.3-1.7c-0.2-1-0.4-2-1-2.8c-0.1-0.2-0.4-0.2-0.5,0c-0.7,0.8-0.3,2-0.1,2.9
					c0.3,0.9,0.5,2,0.9,2.9c-0.8-0.5-1.7-0.8-2.4-1.4c-0.7-0.5-1.5-1.1-2.4-1.1c-0.1,0-0.2,0.1-0.2,0.3c0.1,1.1,1.1,1.9,2,2.5
					c0.9,0.6,1.8,1.2,2.9,1.3c-1,0.8-2.6,1.7-2.1,2.5c0.4,0.6,1.4,0.1,1.8-0.1c0.5-0.3,0.9-0.9,1.2-1.6c0.1,1,0.5,2,1.4,2.5
					c0.1,0.1,0.4,0.1,0.5-0.1c0.5-0.8,0.2-1.5-0.2-2.3c0,0,0,0,0,0c0.7,0.5,1.7,1.1,2.6,1c0.9,0,0.4-1,0.1-1.4
					c-0.7-0.7-1.6-0.9-2.5-1.1c0.3,0,0.7-0.1,1-0.2c0.5-0.1,1.1-0.5,1.6-0.8c0.5-0.3,2.1-1.2,1.5-2c-0.7-0.9-3.1,0.8-4.5,1.9
					c0.5-1,1.2-1.9,1.7-2.8C53.1,23.5,53.7,22.2,53.3,21.1z"/>
				<path class="st15" d="M50.6,26.7c-0.2,0-0.4,0-0.7,0c-0.5,0.2-1,0.5-1.3,0.9c-0.3,0.4-0.2,1,0,1.4c0.3,0.5,1,0.5,1.5,0.5
					c1,0,2.1-0.7,2.1-1.8C52.4,27.1,51.3,26.4,50.6,26.7z"/>
				<path class="st16" d="M50.6,27.3c-0.1,0-0.2,0-0.2,0.1c0,0-0.1,0-0.1,0c-0.4,0.1-0.8,0.3-1,0.7c-0.2,0.3-0.1,0.7,0.2,1
					c0.3,0.2,0.8,0.2,1.1,0.1c0.6-0.2,1.5-0.8,1-1.5C51.4,27.3,51,27.3,50.6,27.3z"/>
			</g>
		</g>
		<g>
			<path class="st23" d="M213.8,71.5c-0.1,0.6-1,0.9-1.5,0.9c-0.2,0-0.5,0-0.7-0.1c-0.1-0.1-0.3-0.3-0.4-0.5
				c0.3,0.2,0.8,0.2,1.2,0.1c0.3-0.1,0.5-0.1,0.7-0.3c0.2-0.1,0.3-0.3,0.5-0.4C213.7,71.3,213.8,71.4,213.8,71.5z"/>
			<g>
				<g>
					<path class="st24" d="M232.6,53.6c-0.8,0.4-0.9,1.7-1.2,2.4c-0.6,1.3-1.5,1.9-2.7,1.9c0.1-0.1,0.1-0.3,0.2-0.4
						c0.1-0.2,0.1-0.4,0.2-0.5c0.1-0.4,0.2-0.7,0.4-1.1c0.1-0.2,0.1-0.4,0.2-0.6c0.3-1,0.5-2,0.6-3.1c0.1-1.2-0.2-2.4-1.4-2.8
						c-1.1-0.4-1.9,1.2-2.1,2.1c-0.3,1-0.3,2-0.2,3c-0.5-0.2-1-0.3-1.2-1.1c-0.3-0.8-0.1-1.7-0.3-2.5c-0.3-1.3-1.6-1.5-2.2-0.3
						c-0.6,1.1-0.2,2.4,0.4,3.4c0.1,0.1,0.1,0.2,0.2,0.3c0,0,0,0,0,0c0.2,0.3,0.5,0.6,0.7,0.8c0.1,0.1,0.2,0.2,0.3,0.3
						c0.2,0.2,0.4,0.4,0.5,0.6c0,0.1,0.1,0.1,0.1,0.2c0.1,0.1,0.1,0.2,0.2,0.3c0.3,0.4,0.5,0.9,0.5,1.5c0,0.3,0,0.5-0.1,0.8
						c-0.1,0.1-0.1,0.3-0.2,0.4c-0.1,0.2-0.3,0.5-0.5,0.7c-0.1,0.2-0.3,0.5-0.6,0.8c-0.1,0.1-0.2,0.2-0.2,0.2
						c-0.3,0.3-0.6,0.5-0.9,0.4c-0.2-0.1-0.3-0.4-0.4-0.6c-0.2-0.6-0.3-1.2-0.3-1.9c-0.1-0.7-0.2-1.3-0.4-2
						c-0.2-0.6-0.4-1.2-0.4-1.8c0-0.1,0-0.1,0-0.2c0-0.1,0-0.2,0-0.2c0-0.9,0.3-1.8,0.5-2.7c0.2-0.5,0.3-1.1,0.5-1.6
						c0.5-2,0.5-4.8-1.1-6.2c-1.1-1-2.6-0.8-2.3,1.1c0.2,1.2,1.1,1.9,1.4,3.1c0.1,0.3,0.1,0.6,0.1,0.9c0,0.1,0,0.2,0,0.3
						c-0.1,0.4-0.2,0.8-0.4,1.1c-0.3,0.4-0.7,0.6-1,1c0,0,0,0,0,0c-0.4-0.8-0.5-1.6-0.9-2.4c0,0,0,0,0,0v0c0-0.2-0.1-0.4-0.2-0.5
						c0,0,0,0,0,0c-0.1-0.4-0.2-0.8-0.4-1.3c0,0,0,0,0,0c0-0.2-0.1-0.3-0.1-0.5c0,0,0,0,0,0c-0.1-0.4-0.2-0.8-0.3-1.1
						c0,0,0-0.1,0-0.1v0c0,0-0.1,0-0.1,0c0-0.1,0-0.3-0.1-0.4c0,0,0,0,0,0v0c-0.2-0.5-0.4-1-0.7-1.5c-0.3-0.7-0.8-1.6-1.6-1.8
						c-0.7-0.2-1.2,0.8-1.4,1.4c-0.4,1.2-0.1,2.5,0.4,3.8c-0.2-0.3-0.3-0.7-0.5-1.1c-0.2-0.4-0.7-0.6-1.1-0.5
						c-0.9,0.2-1.1,1.4-0.9,2.3c0.1,0.7,0.3,1.1,0.7,1.5c0,0,0,0,0,0c0.1,0.1,0.2,0.2,0.4,0.3c0.3,0.2,0.7,0.4,1.1,0.6
						c0.9,0.3,1.9,0.5,2.6,1.2c1,1.7,2,3.4,2.6,5.4c0.1,0.4,0.6,1,0.3,1.4c0,0-0.1,0.1-0.1,0.1c-0.1,0.1-0.3,0.1-0.5,0
						c-0.2,0-0.4-0.2-0.6-0.3c-0.2-0.1-0.3-0.2-0.4-0.2c0,0,0,0,0,0c-0.3-0.2-0.6-0.4-0.9-0.7c-0.1-0.1-0.2-0.2-0.3-0.3
						c-0.2-0.2-0.4-0.4-0.6-0.6c-0.1-0.1-0.2-0.2-0.3-0.4c-0.1-0.1-0.1-0.2-0.2-0.3c-0.2-0.3-0.3-0.6-0.3-0.9c0-0.2-0.1-0.4-0.1-0.6
						c-0.1-0.6-0.2-1.2-0.5-1.7c-0.7-0.9-1.8-0.6-2.5,0.2c-2,2.2,0.9,4.2,2.4,5.2c1.6,1.1,3.3,2.2,4.3,3.9c0.4,0.6,0.7,1.4,0.8,2.1
						c0,0.3,0.2,1,0.1,1.2c-0.1,0.2-1-0.2-1-0.3c-0.1-0.1-0.2-0.3-0.3-0.4c0,0-0.1-0.1-0.1-0.1c0,0,0,0,0,0c-0.1-0.2,0-0.4-0.2-0.7
						c0,0,0,0,0,0v0c0-0.2-0.1-0.3-0.2-0.5c0,0,0,0,0-0.1c0,0,0,0,0,0c0,0-0.1-0.1-0.1-0.1c0-0.1-0.1-0.2-0.1-0.3c0,0,0,0,0,0
						c-0.2-0.6-0.5-1.2-0.9-1.6c-1.1-1-2.4,0.3-2.9,1.3c-0.6,1.6,1,2.5,2,3.2c1,0.7,2,1.7,2.2,3c0.1,0.9-0.3,1.8-0.6,2.6
						c-0.2,0.3-0.3,0.7-0.4,1.1c-0.8,0.4-1.5,0-2-0.7c-0.7-0.8-0.7-2.1-1.3-3c-1-1.6-2.5-0.5-2.9,0.9c-0.3,1,0,2,0.6,2.8
						c0.1,0.2,0.2,0.4,0.4,0.6c0.3,0.4,0.7,0.6,1.1,1c0,0,0,0,0,0c0.1,0,0.3,0.1,0.4,0.1c0,0,0,0,0,0c0.5,0.2,0.9,0.3,1.4,0.3
						c0,0,0,0,0,0h0c0.2,0,0.4,0,0.5,0h0.1c0.3,0,0.5,0.2,0.8,0.2h0c0,0,0.1,0,0.1,0c0.1,0,0.2,0.1,0.3,0.1c0.2,0.1,0.4,0.2,0.6,0.4
						c0.1,0.1,0.2,0.1,0.3,0.2c0,0,0,0.1,0.1,0.1c0.4,0.5,0.9,0.8,1.4,1c0.5,0.2,1,0.5,1.5,0.4c0.4-0.1,0.9-0.3,1.3-0.6
						c0.1-0.1,0.3-0.1,0.4-0.1c0.1-0.1,0.2-0.1,0.3-0.1c0,0,0,0,0,0c0,0,0-0.1,0-0.1c0,0,0,0,0,0c0.4-0.2,0.8-0.4,1.2-0.6
						c0,0,0,0,0,0c0.1-0.1,0.3-0.2,0.4-0.2c0,0,0,0,0,0c0.1,0,0.1-0.1,0.2-0.1c0.6-0.3,1.2-0.6,1.8-1c0.2-0.1,0.4-0.2,0.5-0.3
						c0.5-0.3,1-0.6,1.5-1c0.1-0.1,0.1-0.1,0.2-0.2c0.2-0.2,0.4-0.3,0.6-0.5c0,0,0,0,0,0c0.4-0.4,0.7-0.9,1-1.3
						c0.1-0.3,0.3-0.5,0.4-0.8c0.4-1.1,0.4-2.3-0.1-3.6c-0.4-0.8-1.4-1.8-2.3-1.3c-1,0.5-1.4,1.8-1.7,2.8c-0.4,1.3-1.1,2.4-2,3.4
						c-0.5,0.6-1.1,1.2-1.9,1.4c-0.7,0.2-1.6,0.1-1.7-0.8c-0.1-0.6,0.3-1.2,0.5-1.7c0.4-0.8,0.9-1.6,1.2-2.4
						c0.2-0.5,0.4-1.1,0.8-1.5c0.4-0.5,0.9-0.9,1.3-1.3c0.3-0.3,0.6-0.6,0.9-0.9c0.2-0.2,0.3-0.3,0.5-0.5c0.3-0.3,0.5-0.6,0.8-0.9
						c0.2-0.1,0.5-0.3,0.7-0.4c0.8-0.4,1.6-0.5,2.4-0.7c0,0,0,0,0,0c0.2-0.1,0.5-0.2,0.7-0.2h0c0,0,0,0,0,0c0,0,0,0,0,0
						c0,0,0,0,0.1,0c0,0,0,0,0,0c0,0,0,0,0,0c0.1,0,0.3-0.1,0.4-0.1c0.2-0.1,0.5-0.2,0.7-0.3c0,0,0,0,0,0c0.2-0.1,0.4-0.2,0.6-0.4
						l0,0c0.4-0.3,0.7-0.7,1-1.1c0.1-0.2,0.3-0.3,0.4-0.5c0.2-0.3,0.4-0.6,0.5-0.9c0.1-0.2,0.2-0.4,0.3-0.5c0.1-0.3,0.3-0.6,0.4-0.9
						C235.1,54.6,234.1,52.8,232.6,53.6z"/>
					<path class="st25" d="M215.4,43c-0.1-0.4-0.5-0.6-0.8-0.5c-0.4,0.1-0.6,0.5-0.8,0.9c-0.1,0.4-0.1,0.8,0.2,1.1
						c0.1,0.3,0.5,0.5,0.8,0.3C215.3,44.5,215.6,43.6,215.4,43z"/>
					<path class="st25" d="M213.9,52.9c-0.1-0.4-0.4-0.6-0.8-0.6c-0.1-0.1-0.2-0.1-0.3-0.1c-0.2,0-0.3,0-0.5,0.1
						c-0.3,0.1-0.5,0.4-0.6,0.7c-0.2,0.3-0.2,0.6-0.2,0.9c0,0.4,0.4,0.6,0.7,0.6C213,54.5,214.1,53.8,213.9,52.9z"/>
					<path class="st25" d="M220.8,44.1c-0.1,0-0.2,0-0.2,0c-0.1,0-0.1,0-0.2,0c-0.1,0,0,0,0,0c-0.2,0-0.4,0.1-0.5,0.3c0,0,0,0,0,0
						c0,0,0,0,0,0c-0.3,0.2-0.4,0.6-0.3,0.9c0,0.1,0.1,0.1,0.1,0.2c0.1,0.3,0.5,0.5,0.8,0.3c0,0,0,0,0,0c0.1,0,0.1-0.1,0.2-0.1
						c0,0,0,0,0,0c0.1,0,0.2,0,0.3-0.1c0,0,0,0,0-0.1c0.1-0.1,0.1-0.1,0.2-0.2C221.3,44.8,221.2,44.2,220.8,44.1z"/>
					<path class="st25" d="M224.2,50.6c-0.4-0.3-0.9-0.2-1.1,0.2c-0.1,0.2-0.1,0.4-0.2,0.6c0,0.1,0,0.3,0.1,0.4
						c0,0.2,0.1,0.4,0.3,0.5c0.4,0.2,0.8,0,1.1-0.4C224.6,51.4,224.6,50.9,224.2,50.6z"/>
					<path class="st25" d="M229.3,50.5c-0.1-0.2-0.3-0.3-0.4-0.4c-0.1-0.1-0.3-0.2-0.4-0.2c-0.3,0-0.5,0.1-0.7,0.4
						c-0.2,0.2-0.3,0.4-0.3,0.7c-0.1,0.4,0.1,0.9,0.4,1.1c0.5,0.2,1,0,1.3-0.3C229.4,51.4,229.5,50.9,229.3,50.5z"/>
					<path class="st25" d="M233.7,54.1c-0.1-0.2-0.3-0.2-0.5-0.3c-0.3,0-0.6,0.2-0.7,0.4c-0.4,0.5-0.2,1.4,0.4,1.6
						c0.6,0.2,1.4-0.4,1.3-1.1C234.2,54.4,234,54.1,233.7,54.1z"/>
					<path class="st25" d="M229.3,65.9c-0.3-0.4-0.8-0.8-1.3-0.8c-0.4,0-0.7,0.3-0.9,0.7c-0.3,0.3-0.4,0.8-0.3,1.2
						c0.1,0.6,0.6,1.2,1.2,1.3c0.5,0.1,1-0.2,1.3-0.7C229.7,67.1,229.6,66.4,229.3,65.9z"/>
					<path class="st25" d="M215.6,61c-0.4-0.1-0.8,0.3-1.1,0.7c-0.2,0.1-0.3,0.3-0.4,0.4c-0.2,0.4-0.3,0.8,0,1.2
						c0.3,0.4,0.8,0.2,1.2,0.1c0.4-0.2,0.7-0.6,0.9-1C216.5,61.8,216.3,61.1,215.6,61z"/>
					<path class="st25" d="M212.9,68.4c-0.3-0.2-0.7-0.1-1.1,0c-0.2,0.1-0.3,0.2-0.5,0.3c-0.3,0.3-0.5,0.8-0.3,1.2
						c0.2,0.6,0.7,0.7,1.2,0.5C212.9,70.1,213.6,69,212.9,68.4z"/>
					<path class="st25" d="M214.9,54.5c-0.2,0.2-0.4,0.5-0.5,0.6c-0.3,0.2-1,0.5-1.2,0c0-0.1,0.1-0.2,0.1-0.1
						c0.3,0.4,1.1-0.3,1.3-0.6c0.1-0.2,0.2-0.4,0.3-0.6C214.8,54.1,214.8,54.3,214.9,54.5z"/>
					<path class="st25" d="M215.7,56c-0.1,0.1-0.2,0.2-0.3,0.3c-0.3,0.3-0.8,0.4-1.2,0.4c-0.2,0-0.2-0.3,0-0.3c0.4,0,0.7-0.1,1-0.4
						c0.1-0.1,0.1-0.2,0.2-0.2C215.5,55.8,215.6,55.9,215.7,56z"/>
					<path class="st25" d="M216.6,56.9c-0.3,0.4-0.8,0.8-1.2,0.7c-0.1,0-0.1-0.2,0-0.2c0.4,0,0.7-0.4,0.9-0.8
						C216.3,56.7,216.5,56.8,216.6,56.9z"/>
					<path class="st25" d="M217.2,45.6c0,0.5-0.4,1-0.7,1.3c-0.4,0.3-0.8,0.5-1.3,0.6c-0.4,0.1,0,0.1-0.1,0.4
						c-0.4,1.1-1.5,1.8-2.6,1.7c-0.1-0.1-0.3-0.2-0.4-0.3c0.6,0.2,1.4,0,1.9-0.4c0.3-0.2,0.9-0.7,0.8-1.1c0-0.2,0-0.2,0-0.4
						c0-0.1,0.1-0.1,0.2-0.1c1-0.1,2-0.7,2.1-1.9c0,0,0-0.1,0-0.1c0,0,0.1,0,0.1,0C217.2,45.3,217.2,45.5,217.2,45.6z"/>
					<path class="st25" d="M217.8,47.3c-0.4,0.7-1.6,1.8-2.2,1.3c-0.1-0.1,0-0.2,0.1-0.1c0.4,0.2,1-0.4,1.3-0.7
						c0.2-0.2,0.4-0.4,0.5-0.6c0.1-0.1,0.1-0.2,0.2-0.3C217.7,46.9,217.7,47.1,217.8,47.3C217.8,47.3,217.8,47.3,217.8,47.3z"/>
					<path class="st25" d="M218.4,49.1c-0.1,0.2-0.3,0.3-0.5,0.4c-0.5,0.3-1,0.4-1.5,0.4c-0.1,0-0.1-0.2,0-0.2
						c0.4-0.1,0.9-0.2,1.3-0.4c0.3-0.2,0.5-0.4,0.6-0.7C218.3,48.7,218.4,48.9,218.4,49.1L218.4,49.1
						C218.4,49.1,218.3,49.1,218.4,49.1z"/>
					<path class="st25" d="M221.4,52.4c-0.4,0-0.7,0.2-1,0.4c-0.6,0.2-1.1,0.2-1.7-0.2c-0.1-0.1-0.2,0.1-0.1,0.2
						c0.5,0.4,0.9,0.5,1.5,0.5c0.5-0.1,1.1-0.3,1.4-0.7C221.5,52.5,221.4,52.4,221.4,52.4z"/>
					<path class="st25" d="M221.7,54.9c0,0.1,0,0.1,0,0.2c-0.3,0.2-0.7,0.2-1,0.2c-0.4-0.1-0.9-0.3-1.2-0.7c-0.1-0.1,0-0.3,0.1-0.2
						c0.3,0.3,0.7,0.5,1.1,0.5c0.3,0,0.6-0.2,0.9-0.2C221.7,54.7,221.7,54.8,221.7,54.9z"/>
					<path class="st25" d="M221.6,56.8c-0.3,0.1-0.4,0.4-0.8,0.4c-0.4,0.1-0.9-0.1-1.1-0.4c-0.1-0.1-0.2,0-0.1,0.1
						c0.2,0.5,0.6,0.7,1.1,0.7C221.1,57.5,221.7,57.3,221.6,56.8C221.7,56.8,221.7,56.7,221.6,56.8z"/>
					<path class="st25" d="M222.1,58.7c0-0.1-0.1-0.1-0.1-0.1c-0.1,0-0.2,0.1-0.3,0.2c-0.1,0.1-0.3,0.1-0.5,0.1
						c-0.3,0-0.6-0.1-0.8-0.2c-0.2-0.1-0.3,0.3-0.1,0.4c0.4,0.2,0.8,0.3,1.2,0.3C221.7,59.3,222.2,59.1,222.1,58.7z"/>
					<path class="st25" d="M217.9,57.9c0,0.2-0.1,0.3-0.2,0.5c-0.2,0.4-0.4,0.7-0.8,0.7c-0.1,0-0.1-0.2,0-0.2c0.4,0,0.5-0.7,0.6-1
						c0,0,0-0.1,0-0.2C217.6,57.7,217.8,57.8,217.9,57.9z"/>
					<path class="st25" d="M219,58.1c0,0.6-0.5,1.3-0.9,1.6c-0.1,0.1-0.3-0.1-0.2-0.2c0.3-0.3,0.6-0.6,0.6-1.1c0-0.1,0-0.2,0-0.3
						L219,58.1z"/>
					<path class="st25" d="M222.4,48.8c0,0.5-0.5,0.9-1,0.9c-0.3,0-0.5-0.1-0.7-0.2c0-0.1,0-0.2,0-0.3c0.2,0.1,0.4,0.1,0.6,0.1
						c0.4,0,0.6-0.3,0.9-0.6C222.3,48.7,222.4,48.7,222.4,48.8z"/>
					<path class="st25" d="M221.9,46.8c-0.4,0-0.9,0.1-1.3,0.1c-0.3,0-0.3,0.4,0,0.4c0.5,0,1,0,1.4-0.3C222,47,222,46.8,221.9,46.8z
						"/>
					<path class="st25" d="M225.8,60.9c-0.2,0.6-0.8,0.6-1.2,0.5c-0.2-0.1-0.4-0.2-0.5-0.4c0.1-0.1,0.2-0.2,0.2-0.2
						c0.1,0.1,0.3,0.2,0.4,0.3c0.3,0.1,0.6,0,0.9-0.2C225.7,60.7,225.8,60.8,225.8,60.9z"/>
					<path class="st25" d="M227.1,59.5c-0.1,0.4-0.6,0.4-0.9,0.2c-0.3-0.1-0.6-0.3-0.8-0.5c0.1-0.1,0.1-0.3,0.2-0.4
						c0.2,0.1,0.4,0.3,0.6,0.4c0.1,0.1,0.3,0.2,0.5,0.2c0.1,0,0.2,0,0.4-0.1C227,59.4,227.1,59.5,227.1,59.5z"/>
					<path class="st25" d="M224,54.4c-0.2,0.1-0.4,0.1-0.6,0.1c0,0,0,0,0,0c-0.1-0.1-0.1-0.2-0.2-0.3c0.2,0,0.5,0,0.7-0.1
						c0.2,0,0.3-0.1,0.4-0.2c0.1-0.1,0.1-0.1,0.2-0.1c0,0,0.1,0,0.1,0.1C224.7,54.1,224.2,54.3,224,54.4z"/>
					<path class="st25" d="M224.8,55.4c-0.2,0.1-0.3,0.2-0.5,0.2c-0.1-0.1-0.2-0.2-0.3-0.3c0.2-0.1,0.5-0.2,0.7-0.4
						c0.2-0.1,0.4-0.4,0.6-0.4c0,0,0.1,0,0.1,0.1C225.5,54.9,225,55.3,224.8,55.4z"/>
					<path class="st25" d="M225.9,55.8c0,0.3-0.3,0.5-0.5,0.7c-0.1,0.1-0.1,0.1-0.2,0.1c-0.1-0.1-0.1-0.2-0.2-0.3
						c0.1-0.1,0.2-0.1,0.3-0.2c0.2-0.1,0.3-0.4,0.5-0.4C225.8,55.7,225.9,55.7,225.9,55.8z"/>
					<path class="st25" d="M229.6,53.6c-0.1,0-0.2,0.1-0.3,0.2c-0.2,0.1-0.5,0.1-0.7,0.1c-0.4-0.1-0.8-0.3-1.1-0.6
						c-0.2-0.2-0.4,0.1-0.3,0.3c0.4,0.4,0.8,0.7,1.3,0.8c0.4,0.1,1.1,0,1.2-0.5C229.8,53.7,229.7,53.6,229.6,53.6z"/>
					<path class="st25" d="M229.5,55.3c-0.1,0.2-0.1,0.4-0.2,0.6c-0.2,0.1-0.5,0-0.7,0c-0.6-0.2-1.1-0.7-1.4-1.3
						c-0.1-0.2,0.1-0.3,0.2-0.1c0.2,0.5,0.6,0.9,1.1,1.1C229,55.5,229.2,55.4,229.5,55.3z"/>
					<path class="st25" d="M229,57c-0.1,0.2-0.1,0.4-0.2,0.5c-0.6,0-1.4-0.6-1.7-1.2c-0.1-0.2,0.1-0.3,0.2-0.1
						c0.2,0.4,0.6,0.7,1.1,0.8C228.6,57,228.8,57,229,57z"/>
					<path class="st25" d="M229.7,60.6c0.2,0.1,0.4,0.2,0.6,0.2c0,0,0,0-0.1,0c0,0,0,0,0,0c0,0,0,0,0,0h0c-0.2,0-0.5,0.1-0.7,0.2
						c-0.6-0.5-0.7-1.3-0.7-2.1c0-0.2,0.2-0.2,0.3,0C229.1,59.4,229.2,60.3,229.7,60.6z"/>
					<path class="st25" d="M232,59.9L232,59.9c-0.2,0.2-0.4,0.3-0.6,0.4c-0.1,0-0.1-0.1-0.2-0.1c-0.5-0.4-0.8-1.1-0.9-1.8
						c0-0.2,0.3-0.3,0.3-0.1c0.1,0.5,0.3,1.1,0.7,1.4C231.6,60,231.8,60,232,59.9z"/>
					<path class="st25" d="M233.5,58.4c-0.1,0.2-0.2,0.4-0.4,0.5c-0.1,0-0.2,0-0.3-0.1c-0.6-0.3-0.9-0.9-0.9-1.6
						c0-0.2,0.2-0.2,0.2,0c0,0.5,0.4,0.9,0.8,1.1C233.1,58.5,233.3,58.4,233.5,58.4z"/>
					<path class="st25" d="M234.2,56.9c-0.1,0.2-0.2,0.4-0.3,0.5c-0.7,0-1.6-0.6-1.9-0.9c-0.1-0.1,0.1-0.4,0.2-0.2
						c0.3,0.3,0.8,0.6,1.2,0.7C233.8,57,234,57,234.2,56.9z"/>
					<path class="st25" d="M225.5,62.9c-0.2,0.2-0.3,0.3-0.5,0.5c-0.2,0-0.4-0.1-0.5-0.2c-0.3-0.3-0.7-0.7-0.8-1.2
						c-0.1-0.1,0.2-0.2,0.2-0.1c0.1,0.3,0.4,0.6,0.6,0.8c0.1,0.1,0.3,0.3,0.5,0.3c0.2,0,0.3-0.2,0.4-0.2
						C225.4,62.8,225.5,62.9,225.5,62.9z"/>
					<path class="st25" d="M222.3,60.8c-0.3-0.2-0.7,0-1.1-0.1c-0.6-0.1-1.1-0.3-1.4-0.8c-0.1-0.1-0.3,0-0.2,0.1
						c0.3,0.5,0.7,0.8,1.2,1c0.4,0.2,1.2,0.3,1.6-0.1C222.3,61,222.3,60.9,222.3,60.8z"/>
					<path class="st25" d="M222.7,63.1c-0.3-0.2-0.8-0.1-1.2-0.2c-0.5-0.1-1-0.4-1.3-0.9c-0.1-0.1-0.3,0-0.2,0.1
						c0.3,0.5,0.7,0.9,1.2,1.1c0.4,0.2,1.2,0.4,1.6,0.1C222.7,63.3,222.8,63.2,222.7,63.1z"/>
					<path class="st25" d="M222.5,64.6c-0.9,0.6-1.8-0.2-2.4-0.8c-0.1-0.1-0.3,0.1-0.2,0.2c0.5,0.5,1,1.1,1.8,1.2
						c0.4,0.1,1,0,1.1-0.5C222.7,64.6,222.5,64.5,222.5,64.6z"/>
					<path class="st25" d="M222,65.8c0-0.1-0.1-0.2-0.2-0.1c-0.3,0.2-0.4,0.5-0.7,0.6c-0.3,0-0.6-0.1-0.9-0.3
						c-0.1-0.1-0.3,0.1-0.2,0.2c0.3,0.3,0.7,0.5,1.2,0.5C221.6,66.6,222,66.3,222,65.8z"/>
					<path class="st25" d="M217.4,62.3c0,0-0.1,0-0.1,0c-0.1,0.1-0.1,0.2-0.1,0.4c0,0.2-0.1,0.4-0.2,0.5c-0.2,0.3-0.5,0.4-0.9,0.6
						c-0.2,0.1-0.1,0.4,0.1,0.4c0.4-0.1,0.8-0.3,1.1-0.7C217.5,63.2,217.8,62.6,217.4,62.3z"/>
					<path class="st25" d="M218,64.1c0,0.1-0.1,0.1-0.1,0.2c-0.3,0.4-0.7,0.7-1.1,0.6c-0.2,0-0.2-0.4,0-0.4c0.3,0,0.6-0.3,0.8-0.6
						c0.1-0.1,0.1-0.3,0.2-0.4c0,0,0-0.1,0-0.1C217.9,63.7,217.9,63.9,218,64.1C218,64.1,218,64.1,218,64.1z"/>
					<path class="st25" d="M220.8,68.3c-0.2,0.1-0.3,0.2-0.5,0.3c-0.2,0-0.5-0.1-0.7-0.2c-0.4-0.2-0.8-0.6-1.1-1
						c-0.1-0.1-0.3,0-0.2,0.1c0.3,0.5,0.8,1,1.3,1.4c0.4,0.3,1.3,0.4,1.4-0.3C221,68.3,220.9,68.2,220.8,68.3z"/>
					<path class="st25" d="M220.2,70.1c-0.1,0-0.3,0.1-0.4,0.1c-0.2,0.1-0.4,0-0.5,0c-0.4,0-0.9-0.2-0.9-0.7c0-0.2-0.2-0.2-0.3,0
						c-0.1,0.6,0.4,1,0.9,1.1c0.3,0.1,1.3,0.2,1.4-0.4C220.4,70.2,220.3,70.1,220.2,70.1z"/>
					<path class="st25" d="M220.2,71.9c-0.6,0-1.7,0.8-1.9-0.2c0-0.2-0.2-0.1-0.2,0.1c0.1,0.6,0.4,0.9,1,0.9c0.4,0,1.1-0.1,1.3-0.6
						C220.4,72,220.3,71.9,220.2,71.9z"/>
					<path class="st25" d="M222.4,75.4C222.4,75.4,222.4,75.5,222.4,75.4C222.4,75.5,222.4,75.5,222.4,75.4
						c-0.1,0.1-0.3,0.1-0.4,0.2c-0.1,0.1-0.2,0.1-0.4,0.2c-0.1-0.1-0.2-0.2-0.3-0.3c-0.5-0.5-0.6-1.3-0.7-2.1c0-0.2,0.3-0.2,0.3,0
						c0,0.6,0.2,1.3,0.6,1.7C221.8,75.4,222.1,75.5,222.4,75.4z"/>
					<path class="st25" d="M224,74.5C224,74.5,224,74.5,224,74.5c-0.1,0.1-0.3,0.2-0.4,0.2c0,0-0.1-0.1-0.1-0.1
						c-0.5-0.6-0.6-1.3-0.6-2.1c0-0.2,0.2-0.2,0.3,0c0,0.6,0.2,1.2,0.5,1.6C223.8,74.3,223.9,74.4,224,74.5z"/>
					<path class="st25" d="M226.5,73.1c-0.2,0.1-0.4,0.2-0.5,0.3c-0.1,0-0.1-0.1-0.2-0.1c-0.7-0.3-0.9-1-1.2-1.6
						c-0.1-0.2,0.2-0.3,0.2-0.1C225.2,72.3,225.7,73.1,226.5,73.1z"/>
					<path class="st25" d="M228.8,71.4c-0.2,0.2-0.4,0.4-0.6,0.5c-0.2,0-0.4-0.1-0.6-0.2c-0.8-0.4-1.2-1.1-1.4-2
						c0-0.2,0.2-0.2,0.2-0.1c0.2,0.6,0.5,1.3,1.1,1.6C228,71.5,228.3,71.6,228.8,71.4z"/>
					<path class="st25" d="M230.2,69.3c-0.1,0.3-0.2,0.5-0.4,0.8c-1,0.3-2.2-0.1-3-0.9c-0.1-0.1,0.1-0.4,0.2-0.2
						c0.6,0.6,1.4,1,2.3,0.8C229.6,69.6,229.9,69.4,230.2,69.3z"/>
					<path class="st25" d="M214.5,72.2c-0.1,0.5-0.6,0.9-1,1.2c-0.1,0.1-0.2,0.1-0.3,0.2c0,0,0,0,0,0c-0.1-0.1-0.3-0.1-0.4-0.2
						c0.3-0.1,0.5-0.2,0.8-0.5c0.3-0.3,0.5-0.7,0.9-0.8C214.4,72,214.6,72.1,214.5,72.2z"/>
					<path class="st25" d="M215.1,73.9c-0.2,0-0.4,0-0.6-0.1c0.1-0.1,0.1-0.1,0.2-0.2c0.1-0.1,0.2-0.2,0.3-0.4
						c0.1-0.1,0.1-0.2,0.2-0.3c0,0,0.1,0,0.1,0C215.6,73.2,215.4,73.6,215.1,73.9z"/>
					<path class="st25" d="M216.5,74.1c-0.1,0-0.2-0.1-0.3-0.1c0,0-0.1,0-0.1,0c0,0,0,0,0,0c0.3-0.4,0.4-0.8,0.8-1.1
						c0.1-0.1,0.2,0,0.2,0.1C217,73.3,216.8,73.8,216.5,74.1z"/>
					<path class="st25" d="M217.5,74.8C217.4,74.8,217.4,74.8,217.5,74.8c-0.2-0.2-0.2-0.2-0.3-0.3c0.4-0.5,0.7-1.1,0.9-1.8
						c0-0.1,0.2-0.1,0.2,0C218.4,73.5,218,74.2,217.5,74.8z"/>
				</g>
				<path class="st25" d="M212.7,45.8c-0.3,0-0.6,0.1-0.8,0.3c-0.3,0.4-0.6,1.1-0.1,1.4c0.1,0.1,0.3,0.1,0.4,0.1
					c0.5,0.1,0.9-0.6,0.9-1.1C213.2,46.2,213,45.8,212.7,45.8z"/>
			</g>
		</g>
		<g>
			<g>
				<path class="st26" d="M121.7,73.1c-0.1-0.2-0.2-0.3-0.3-0.4c-0.2-0.1-0.6-0.2-0.6-0.4c0-0.3,0.2-0.6,0.2-0.9
					c0-0.2,0-0.4-0.2-0.6c-0.2-0.3-0.5-0.3-0.9-0.4c-0.4-0.1,0.1-0.8,0.2-1.1c0.4-1-0.6-1.2-1.3-1.1c-0.3,0-0.4,0.1-0.4-0.3
					c0-0.2,0-0.4,0-0.6c0-0.4,0-0.7-0.2-1c-0.2-0.2-0.6-0.2-0.8,0c-0.2,0.2-0.4,0.3-0.6,0.4c-0.3,0.1-0.4-0.6-0.5-0.8
					c-0.3-0.7-0.9,0.1-1.1,0.4c-0.1,0.1-0.2,0.3-0.3,0.4c-0.1,0.1,0-0.3,0-0.4c0-0.4,0.1-0.9-0.2-1.2c-0.6-0.9-1.7,0.3-2.1,0.9
					c-0.1,0.1-0.1,0.2-0.2,0.3c0,0,0,0,0,0c-0.5,1.1-0.3,2.5-0.1,3.6c0.2,1.8,0.1,3.4-1.1,4.7c-0.4,0.5-0.8,0.9-1.2,1.5
					c-0.3,0.5-0.4,1.1-0.6,1.6c-0.2,0.8-0.2,1.7,0.1,2.5c0.1,0.4,0.3,0.8,0.6,1.1c0.6,0.6,1.7,0.5,2.4,0.3c0.8-0.2,1.5-0.6,2.2-0.9
					c1.1-0.6,2.3-1,3.2-1.8c0.4-0.4,0.8-0.8,1-1.4c0.1-0.3,0.2-0.6,0.3-0.9c0.1-0.4,0.5-0.7,0.7-1c0.2-0.2,0.5-0.4,0.7-0.7
					C121.4,74.4,121.9,73.8,121.7,73.1z"/>
				<path class="st27" d="M120.9,74.9c0-0.3,0-0.5-0.1-0.6c-0.2-0.3-0.6-0.2-0.8-0.5c-0.2-0.3,0-0.7,0-1.1c0.2-1.4-0.8-0.8-1.1-1.8
					c-0.2-0.4,0.2-1-0.1-1.4c-0.3-0.4-0.6-0.2-1-0.3c-0.7-0.2-0.4-1.2-1.3-1.3c-0.5,0-1.1,0.5-1.6,0.2c-0.4-0.2-0.6-0.9-0.7-1.4
					c-0.2-0.6-0.5-1-1.1-0.8c-0.2,0.1-0.4,0.2-0.6,0.3c0-0.1,0.1-0.2,0.2-0.3c0.4-0.6,1.4-1.8,2.1-0.9c0.2,0.3,0.2,0.8,0.2,1.2
					c0,0.1-0.1,0.5,0,0.4c0.1-0.1,0.2-0.3,0.3-0.4c0.2-0.4,0.8-1.1,1.1-0.4c0.1,0.2,0.2,0.9,0.5,0.8c0.2-0.1,0.4-0.3,0.6-0.4
					c0.2-0.2,0.7-0.2,0.8,0c0.2,0.3,0.2,0.7,0.2,1c0,0.2-0.1,0.4,0,0.6c0,0.3,0.2,0.3,0.4,0.3c0.7-0.1,1.7,0.1,1.3,1.1
					c-0.1,0.3-0.7,1-0.2,1.1c0.3,0.1,0.6,0.2,0.9,0.4c0.1,0.2,0.2,0.4,0.2,0.6c0,0.3-0.3,0.6-0.2,0.9c0,0.3,0.4,0.3,0.6,0.4
					c0.1,0.1,0.3,0.3,0.3,0.4C121.9,73.8,121.4,74.4,120.9,74.9z"/>
			</g>
			<g>
				<path class="st28" d="M113.6,67.9c-0.2-0.3-0.6-0.3-1-0.3c-0.2,0-0.4,0-0.6,0c-0.2-0.1-0.1-0.5-0.1-0.6c0.1-0.5,0.4-1.6-0.4-1.7
					c-0.4,0-0.7,0.2-1,0.3c-0.2,0.1-0.5,0.3-0.6,0c-0.1-0.2,0-0.5,0-0.7c0.1-0.7-0.1-1.7-0.9-1.3c-0.3,0.2-0.5,0.5-0.8,0.8
					c-0.1,0.2-0.3,0.3-0.4,0.4c-0.3,0.2-0.4-0.3-0.4-0.5c-0.2-0.7-0.4-2.2-1.5-1.9c-0.8,0.2-1.3,1.2-1.6,2c-0.2,0.6-0.6,1.2-1.1,0.5
					c-0.2-0.3-0.4-0.8-0.6-1.1c-0.6-0.7-1.2,0.1-1.5,0.7c-0.1,0.3-0.2,0.6-0.2,0.9c-0.1,0.7,0,1.4,0.1,2.1c0.7,2.8,3.5,4,5.1,6.1
					c1.5,1.9-0.7,4,0,6.1c0.5,1.4,2.2,1.6,3.4,2c0.1,0,0.2-0.1,0.1-0.2c0,0,0,0,0,0c0,0,0.1,0,0.1-0.1c0.8-0.8,1.2-1.9,1-3.1
					c-0.1-0.7-0.3-1.3-0.5-2c-0.3-0.9-0.1-1.5,0.4-2.2c0.8-1.2,1.8-2.2,2.5-3.4c0.1-0.1,0.1-0.2,0.2-0.3
					C113.8,69.6,114.2,68.6,113.6,67.9z"/>
				<path class="st29" d="M113.4,70.3c-0.3,0-0.7,0.2-1,0c-0.5-0.3,0.1-1,0-1.4c-0.2-0.6-0.6-0.2-1-0.1c-1,0.3-0.3-1.1-0.7-1.7
					c-0.6-0.9-1.5,1-2.1,1c-0.8-0.1-0.5-2.1-1.1-2.6c-0.9-0.8-0.8,1-1.3,1.3c-0.6,0.3-1.1-1-1.8-0.7c-0.6,0.3-0.7,1.7-1.5,1.1
					c-0.6-0.4-0.7-1.9-1.7-1.9c-0.1,0-0.2,0-0.3,0.1c0-0.3,0.1-0.6,0.2-0.9c0.2-0.6,0.9-1.4,1.5-0.7c0.3,0.3,0.4,0.7,0.6,1.1
					c0.5,0.7,0.9,0.1,1.1-0.5c0.3-0.8,0.8-1.8,1.6-2c1.1-0.3,1.3,1.2,1.5,1.9c0.1,0.2,0.2,0.7,0.4,0.5c0.2-0.1,0.3-0.3,0.4-0.4
					c0.2-0.3,0.4-0.7,0.8-0.8c0.9-0.4,1,0.6,0.9,1.3c0,0.2-0.1,0.5,0,0.7c0.1,0.3,0.4,0.1,0.6,0c0.3-0.2,0.7-0.4,1-0.3
					c0.8,0.1,0.5,1.2,0.4,1.7c0,0.2-0.1,0.6,0.1,0.6c0.2,0.1,0.4,0,0.6,0c0.3,0,0.7,0,1,0.3C114.2,68.6,113.8,69.6,113.4,70.3z"/>
			</g>
			<g>
				<path class="st30" d="M112.3,75.2c-0.2,0-0.4,0-0.6,0c-0.4,0-0.1-0.6,0-0.8c0.1-0.4,0.3-0.8,0.4-1.2c0.2-0.7,0-1.5-0.8-1.2
					c-0.4,0.1-0.7,0.4-1.1,0.5c-0.4,0.1-0.1-0.8-0.1-1c0.1-0.6,0-1.4-0.8-1.1c-0.4,0.2-0.7,0.5-1,0.8c-0.2,0.1-0.5,0.3-0.7,0.2
					c-0.2-0.2-0.3-0.5-0.4-0.7c-0.3-0.8-0.8-1.2-1.5-0.6c-0.5,0.5-0.9,2.3-1.7,1.3c-0.4-0.5-0.8-1.5-1.6-1.2c-0.7,0.2-0.9,1.2-1,2
					c0,0.1,0,0.3,0,0.4c0,1,0.3,2.2,0.9,3c0.3,0.4,0.7,0.8,1.1,1.1c0.5,0.3,1.1,0.5,1.7,0.8c0.6,0.3,1,0.8,1.4,1.4
					c0.4,0.6,0.9,1.3,1.3,1.9c0.3,0.4,0.6,0.7,1.1,0.9c0,0,0.1,0,0.1,0c0,0,0,0,0.1,0c0.5,0.1,0.8-0.2,1-0.6
					c0.5-0.9,1.1-1.6,1.7-2.5c0.2-0.3,0.9-1.2,1.1-2C113.1,75.8,113,75.3,112.3,75.2z"/>
				<path class="st31" d="M112.9,76.4c-0.3,0-0.8,0.4-1.1,0.1c-0.3-0.2,0-0.8-0.2-1c-0.2-0.3-0.4,0-0.6-0.1
					c-0.7-0.2,0.2-1.5-0.6-1.5c-0.3,0-0.7,0.5-1,0.3c-0.2-0.2,0-1,0-1.2c-0.4-1.2-1.1,0.7-1.6,0.7c-0.8-0.1-0.6-1.6-1.7-1.1
					c-0.5,0.3-0.9,0.9-1.6,0.9c-0.5,0-1.1-0.4-1.4-0.7c-0.4-0.4-0.5-1-1.2-0.8c-0.1,0-0.3,0.1-0.4,0.2c0-0.8,0.3-1.8,1-2
					c0.8-0.3,1.2,0.7,1.6,1.2c0.8,1,1.2-0.8,1.7-1.3c0.7-0.6,1.2-0.2,1.5,0.6c0.1,0.2,0.2,0.6,0.4,0.7c0.2,0.2,0.5,0,0.7-0.2
					c0.3-0.2,0.6-0.6,1-0.8c0.7-0.3,0.8,0.5,0.8,1.1c0,0.2-0.3,1.1,0.1,1c0.4-0.1,0.7-0.4,1.1-0.5c0.8-0.3,1,0.5,0.8,1.2
					c-0.1,0.4-0.2,0.8-0.4,1.2c0,0.2-0.3,0.8,0,0.8c0.2,0,0.4-0.1,0.6,0C113,75.3,113.1,75.8,112.9,76.4z"/>
			</g>
			<g>
				<path class="st32" d="M118.2,74.3c-0.3-0.3-0.6-0.2-1-0.4c-0.5-0.3,1.4-2.2,0.4-2.7c-0.3-0.1-0.5,0-0.8,0.1
					c-0.2,0.1-0.3,0.1-0.5,0.2c-0.3,0.1-0.2-0.4-0.1-0.6c0.1-0.7,0.1-2-0.8-1.9c-0.4,0.1-0.8,0.4-1,0.8c-0.3,0.4-0.5,1-0.6,1.4
					c-0.4,1.5-0.3,3.4-1.3,4.7c-0.4,0.5-0.9,1.3-1.5,1.1c-2.7-1.1-1.4,3.4-1.6,3.9c-0.4,0.7,1.2,1,2,0.7c1.3-0.6,2.5-1.4,3.7-2.2
					c0.2-0.1,0.5-0.3,0.7-0.5c0.6-0.5,1.1-1.1,0.7-1.7c-0.1-0.2,0.7-0.8,0.9-0.9c0.3-0.3,0.7-0.7,0.9-1.1
					C118.4,74.9,118.4,74.5,118.2,74.3z"/>
				<path class="st33" d="M118.3,75.2c-0.2,0.4-0.5,0.8-0.9,1.1c-0.1,0.1-1,0.8-0.9,0.9c0.4,0.6-0.2,1.3-0.7,1.7
					c-0.1,0-0.1-0.1-0.2-0.1c-0.3-0.2-0.4-0.1-0.3-0.5c0.1-0.5,0.8-0.8,0.9-1.4c0-0.4-0.2-0.3-0.4-0.6c-0.7-0.7,0.2-1.5,0.4-2.3
					c0.4-1.3-0.9-0.1-1.1-0.9c-0.3-0.9,1.2-2.5,0.3-3.4c-0.2-0.2-0.6-0.2-0.9,0c0.3-0.4,0.6-0.8,1-0.8c0.9-0.2,0.9,1.2,0.8,1.9
					c0,0.2-0.2,0.7,0.1,0.6c0.2,0,0.3-0.1,0.5-0.2c0.2-0.1,0.5-0.2,0.8-0.1c1,0.5-0.9,2.4-0.4,2.7c0.3,0.2,0.7,0.1,1,0.4
					C118.4,74.5,118.4,74.9,118.3,75.2z"/>
			</g>
		</g>
		<g>
			<defs>
				<path id="SVGID_1_" d="M238.8,78.1V41.4c0-2.3,1.2-3.6,3.6-3.6h6.8c2.4,0,3.6,1.3,3.6,3.6v28.9h12.7c2.3,0,3.6,1.3,3.6,3.6v4.1
					c0,2.3-1.3,3.6-3.6,3.6h-23.2C240,81.6,238.8,80.4,238.8,78.1z"/>
			</defs>
			<clipPath id="SVGID_00000076580435785349002610000006856819598355060116_">
				<use xlink:href="#SVGID_1_"  style="overflow:visible;"/>
			</clipPath>
			<g style="clip-path:url(#SVGID_00000076580435785349002610000006856819598355060116_);">
				<path class="st35" d="M280.8,72.3c-3.2-6.2-10.5-8.6-16.3-9.4c-6.3-0.9-12.9,0-18.9,2.6c-1,0.4-2,0.9-3,1.5
					c-3.6,2.1-6.9,5.2-8.2,9.7c-0.2,0.7-0.3,1.4-0.4,2.1c-0.1,1-0.2,2-0.1,3c0.2,5.3,2.9,10.2,6.4,13.8c4.9,5,11.9,5.5,18.1,6.3
					c0.1,0,0.3,0,0.4,0.1c0.1,0,0.1,0,0.1-0.1c1.9,0.2,3.8,0.1,5.7-0.2c5.7-1,11.1-4.4,15-9.5c1.8-2.3,2.9-5.1,3.3-8
					C283.4,80.2,282.7,76,280.8,72.3z"/>
				<path class="st36" d="M280.8,77.3c0-0.1-0.1-0.1-0.1-0.2c-0.4-1.8-1.2-3.7-2.3-4.6c-0.4-0.3-0.9-0.7-1.4-0.6
					c-0.8,0.1-1.5,0.3-2.1-0.4c-0.4-0.5-0.8-1.4-0.5-2c0.3-0.3,0.6-0.4,0.9-0.4c0.2,0.1,0.4,0.2,0.7,0.2c0.5,0.2,0.6,0.6,0.4,1.2
					c-0.4-0.1-0.7,0.5-0.4,0.9c1.2,1.5,2.5-0.9,1.6-2.3c-1-1.4-3.1-2-4.1-0.3c-0.2,0.4-0.3,0.7-0.3,1.1c-1.4-1.6-3.3-2.3-5.2-2
					c0.7-0.2,1.4-0.5,1.7-1.1c0.7-1.1,0.2-2.1-0.9-2.4c-2.3-0.6-4.4,0.8-5.8,2.9c0-0.4-0.1-0.7-0.1-1c-0.4-1.7-2.2-2-3.4-2.2
					c-2-0.4-4.1,0-6.1,0.6c-1,0.3-2,0.7-3,1.1c-0.8,0.3-1.6,0.5-2.4,0.6c-0.9-0.2-2,0.3-2.7,0.9c-0.6,0.5-0.8,1.2-1.2,1.9
					c-0.6,1.3-2.5,0.6-3.7,0.7c-1.7,0.2-3.4,1.3-3.9,3.3c-0.2,1-0.2,1.8,0,2.8c0.3,1.1,1.1,1.8,1.4,2.9c-0.1,0.7-0.1,1.4,0,2
					c0.2,1.6,1.1,2.6,2.4,3.1c2.6,1,5.6-0.2,8.1,1.4c1.2,0.7,2.8,3.5,0.7,4.4c-0.9,0.3-2.2-0.4-3.1-0.5c-1.3-0.2-2.5,0.6-2.7,2.1
					c-0.2,1.2,0.2,2.3,0.8,3.3c-0.5-0.2-1-0.3-1.5-0.5c-2.2-0.6-3.6-2.4-4.3-4.8c-0.8-2.8,1.9-3.4,3.7-3.1c1.2,0.2,2.6,1.9,3.9,0.9
					c0.3-0.2,0.5-0.4,0.8-0.6c0.1,0.4,0.3,0.7,0.4,1.1c-0.3,0.1-0.6,0.1-0.9,0.1c-0.8,0.1-1.6-0.2-2.4-0.5c-1-0.3-2.6-0.7-3.5,0.2
					c-1.5,1.6-0.9,4.6,1.2,4.9c0.3,0.1,0.5-0.4,0.5-0.7c0-0.1,0-0.2,0-0.3c-0.1-0.4-0.5-0.5-0.7-0.2c-0.8-0.5-1.1-1.7-0.4-2.6
					c0.7-1,2.6,0,3.5,0.3c1.3,0.5,3,0.6,4.1-0.5c1.1-1.1-0.4-3-1.3-3.3c-0.6-0.1-1.1,0.4-1.5,0.8c-0.8,0.7-2.6-0.7-3.6-0.9
					c-1.4-0.2-2.9,0-4.1,1c-0.3,0.3-0.5,0.6-0.6,0.9c-0.1-0.3-0.3-0.5-0.5-0.8c-0.6-0.8-1.4-1.4-1.7-2.4c-0.2-0.6,0-1.4,0.2-2
					c0.8-2.1,2.3,1.7,1,0.9c-0.2-0.1-0.4,0-0.4,0.3c0.1,1.4,1.3,1.6,1.9,0.5c0.8-1.5-0.8-3.5-2.1-3.4c-1.3,0.1-1.9,2.4-1.7,3.6
					c0.2,1,0.6,1.7,1.3,2.5c0.3,0.4,0.7,0.8,1.1,1.2c0.3,0.4,0.6,0.9,0.8,1.5c0.1,0.7,0.2,1.4,0.5,1.9c0.8,2,2,3.6,3.9,4.4
					c1,0.4,2.1,0.5,3.1,0.9c0.5,0.2,1,0.5,1.5,0.6c1.1,0.8,2.3,1.2,3.3,1.3c2.1,0.1,3.9-1.1,5.9-1.7c1.4-0.4,2.8-0.4,3.9,0.7
					c0.8,0.8,1.1,2,1.3,3.1c-1.1-0.8-2.2-2.2-3.7-1.8c-0.6-1.3-1.8-1.6-3-1.4c-0.9,0.2-2.5,1.5-2.1,2.8c0.6,1.7,1.8,1.5,3.1,1
					c1.3-0.5,2.2-1.6,3.6-0.9c0.8,0.4,1.3,1.3,2.2,1.1c0,0,0.1,0,0.1,0c0.2,0.1,0.6-0.1,0.5-0.4c-0.5-3.4-2-6.3-5.4-5.7
					c-1.9,0.3-3.6,1.6-5.5,1.9c-2,0.2-4.4-1.2-5.4-3.2c-0.4-0.7-0.8-1.8-0.2-2.5c0.7-0.9,2.1-0.1,2.9,0.1c1.4,0.4,2.4,0,3.3-1.3
					c0.8-1.3,0.2-2.9-0.4-4c-1.1-1.7-2.8-2.2-4.5-2.6c-1.9-0.3-4.8,0.4-6.4-1c-1.5-1.3-0.3-4.5,0.7-5.7c1.1-1.4,3-0.3,4.4-0.1
					c1.2,0.1,2.1-0.3,2.9-1.5c0.9-1.3,1.1-3,2-4.3c1.3-1.9,4.5-1,6.1-0.3c1.6,0.8,1.8,3.3,3.6,4c1.5,0.6,2.7-0.2,3.9-1.3
					c1.7-1.6,2.8-3.4,5.2-3.6c2.3-0.3,4.1,1.6,5.3,3.7c1.1,2,1.9,4.3,1.4,6.7c-0.1,0.6-0.3,1.1-0.5,1.6c0.3-0.9,0.6-1.8,0.7-2.9
					c0.1-1.7-0.9-3.5-1.7-4.9c-0.9-1.4-2.8-3.4-4.5-3c-1.9,0.5-1.6,3-0.6,4.3c0.8,1.2,3,2.5,3.6,0.3c0.2-0.6-0.3-1-0.8-0.9
					c-0.2,0-0.3,0.1-0.4,0.2c-0.1,0.1-0.2,0.3-0.3,0.4c-0.5-0.2-1.7-1.6-1.7-2.1c0-1.7,2-0.2,2.5,0.2c1.1,0.9,2,2.6,2.5,4.1
					c0.7,2.1-0.4,4.5-0.9,6.4c0,0.2,0,0.3,0.1,0.4c-0.6,0.8-1.1,1.7-1.5,2.6c-0.6,1.4-0.6,2.6,0.2,3.9c0.8,1.4,1.4,2.2,0.3,3.6
					c-0.8,1-1.9,1.7-3,2.1c-2.5,1-3.9-0.8-3.9-3.5c0-2.4,1.1-4.2,2.6-5.7c1.3-1.4,3.3-4,3.7-6.4c0.1,0.2,0.2,0.4,0.2,0.7
					c0.6,2.1-1.6,4.5-2.8,5.8c-1.5,1.7-3.4,4-2.8,6.5c0.6,2.1,2.9,2.3,3.9,0.5c0.4-0.7,0.7-1.6,0.4-2.5c-0.2-0.6-0.9-1.2-1.4-0.7
					c-0.2,0.2-0.2,0.4-0.1,0.6c0.3,0.7,0.7,0.8,0.3,1.7c-0.8,1.8-2.2,0.1-1.8-1.4c0.5-2,2.4-3.6,3.5-5.1c1.3-1.6,2.2-3.4,1.9-5.7
					c-0.2-1-0.7-1.9-1.4-2.5c-0.1-0.2-0.1-0.4-0.2-0.6c-1.4-2.7-5.1-4-7.4-1.9c-0.9,0.9-1.2,2.4-1.8,3.6c-0.1,0.2-0.1,0.3-0.2,0.4
					c-0.6-0.3-1.3-0.3-1.9-0.5c-0.8-0.2-1.6-0.6-2.2-1.2c-0.8-0.9-0.2-2,0.7-2.4c0.5-0.2,1-0.1,1.4,0.1c0,0,0.9,1.2,0.4,1.2
					c-0.2,0-0.6-0.2-0.9-0.2c-0.3-0.1-0.7,0.3-0.5,0.7c1.1,1.6,3.1,0.6,2.5-1.4c-0.6-2-3-2.4-4.3-1c-0.2,0.2-0.4,0.5-0.6,0.8
					c-1.1-2.2-2.9-4.3-5.2-2.7c-1.2,0.9-1.5,2.8-2.7,3.7c-0.8,0.6-1.8,0.8-2.7,0.9c-0.9,0.1-1.9-0.7-2.8-0.3c-1,0.4-1.6,1.1-1.4,2.3
					c0.2,1.5,2.4,1.8,3.4,1.6c2-0.4,3.7-1.1,5.6-0.4c1.7,0.6,2.7,2.5,3.2,4.4c0.5,1.7,0.9,4.1-0.9,4.9c-1.1,0.5-2.4,0.7-3.4,1.6
					c-2,1.9,1.3,3.4,2.7,2.7c1.7-0.7,2.9-1.9,4.4-3.1c1.1-0.9,2.5-1.5,3.3-2.8c0.7-1.1,0.7-2.2,0.3-3.2c0.5,0,1,0,1.5-0.2
					c1.6-0.5,2.6-2.3,3.5-3.8c0.2-0.4,0.4-0.7,0.6-1c0.8-1,0.6,0.6,0.4,1c-0.4,1-1.4,1.9-2.2,2.5c-1.2,1-2.5,2-3.3,3.5
					c-0.7,1.3-0.7,2.9-0.1,4.2c0.4,0.8,1.9,1.8,1.4,2.9c-0.3,0.6-0.7,1-0.8,1.8c-0.2,1.4,1,2.7,1.9,3.5c1.6,1.4,3-0.1,4.4-0.9
					c0.7-0.4,0.1-1.5-0.6-1.2c-1,0.5-2,1.7-3.2,0.9c-0.9-0.6-1.6-1.8-0.9-2.9c0.7-1.1,0.8-2.2,0-3.2c-0.6-0.9-1.4-1.5-1.4-2.8
					c0-1,0.5-1.8,1.1-2.5c1.1-1.3,2.5-2.1,3.5-3.3c0.8-0.9,2-2.6,1.5-4c-0.4-1.2-1.1-1.6-2.1-1c-1.1,0.7-1.8,2.5-2.5,3.6
					c-1.7,2.4-3.9,1.7-5.2-0.7c-0.7-1.2-1.3-2.2-2.2-3.1c-0.5-0.5-1.8-1.2-2.2-0.1c-0.8,2.2,3.4,4.7,4.5,5.8c0.7,0.7,1.5,2,1,3.1
					c-0.4,0.8-1.2,1.3-1.8,1.7c-1.5,1.1-2.9,2.4-4.5,3.4c-0.7,0.4-1.5,0.4-2.2,0.2c-0.3-0.1,0.1-0.1,0.4-0.3
					c0.3-0.2,0.7-0.3,1.1-0.5c1.1-0.4,2.4-0.8,3.1-1.9c1.4-2.3,0-6.5-1.3-8.5c-1.8-2.8-4.8-3.1-7.6-2.2c-0.6,0.2-1.2,0.3-1.8,0.4
					c-2.2,0.2-0.8-1.4,0-1.2c0.7,0.2,1.3,0.2,1.9,0.1c1.3-0.2,2.9-0.7,3.8-2c0.5-0.7,0.8-1.6,1.3-2.3c0.9-1.3,2.2-0.7,3.2,0.2
					c1.3,1.3,1.1,3.6,2.2,5.1c1.9,2.5,5,2.7,6.4-0.4c0.8-1.7,1.1-3.4,3-3.5c1.1-0.1,2.2,0.4,3.1,1.2c1.2,1.1,0.9,2.9,0.4,4.3
					c-0.7,1.9-2.1,3.2-3.4,4.6c-1.2,1.3-1.9,2.8-2.2,4.7c-0.6,3.2,0.4,6.7,3.6,6.9c0.9,0.1,2.1-0.3,3.1-0.8c0.1,0,0.1,0,0.2-0.1
					c1-0.6,2-1.5,2.6-2.5c1.6-0.9,3.4-1.5,4.7-2.9c1.2-1.4,2.2-4.3,1-6c0,0-0.1-0.1-0.1-0.1c-0.3-1.1-0.9-2.2-1.3-3.5
					c-0.4-1.4-0.1-5.1,1.9-4.6c0.3,0.1,0.5,0.3,0.6,0.5c0.2,0.8,0.4,1.7,0.4,2.6c0,0,0,0,0,0.1c-0.8,1-1.2,0.9-1.4-0.3
					c0-0.3-0.2-0.7-0.5-0.6c-1.9,0.8,0.1,3.5,1.6,2.8C281.8,81.7,281.9,78.9,280.8,77.3z M253.7,99.8c-0.7,0.4-0.9,0-0.7-1.1
					c0.2-0.3,0.5-0.4,0.9-0.5c0.7-0.3,1.3,0,1.8,0.6C255,99.1,254.4,99.5,253.7,99.8z M247.6,70.2c-0.5,0.6-1.1,1.1-1.7,1.5
					c-1.2,0.8-2.5,0.7-3.9,1c-0.3,0.1-0.6,0.1-0.9,0.1c-0.7,0.1-0.7,0-0.5-0.7c0.1-0.4-0.3-0.8-0.6-0.5c-0.7,0.6-1,1.7,0,2.2
					c1.1,0.5,2.7,0,3.7-0.1c0.9-0.1,2.3-0.7,3.6-1.6c-0.4,1-0.7,2.1-1.5,2.6c-1.1,0.8-3.2-0.6-4.6-0.4c-1.4,0.2-2.5,1.6-3.1,3.1
					c0,0,0-0.1-0.1-0.1c-1.2-2.1-1.2-4.4,0.8-5.7c2.1-1.4,4.5,0.9,6-1.7c0.7-1.2,1.2-2.2,2.5-2.3C248.8,67.6,248,69.6,247.6,70.2z
					 M265.6,67.9C265.6,67.9,265.6,67.9,265.6,67.9c0.2,0.1,0.3,0.1,0.3,0.1c0.4,0.1,0.9,0.1,1.4,0c-1,0.2-2.1,0.7-3,1.5
					c-1.4,1.1-2.6,3.8-4.6,3.5c-1.1-0.2-1.8-1.8-2.4-2.8c-0.5-0.7-1.1-1.1-1.9-1.4c-2.1-0.8-4.4-1.1-6.1,0.1c0-0.5-0.2-1.1-0.6-1.7
					c1.2-0.2,2.4-0.7,3.6-1.2c2.5-0.9,5.1-1.2,7.7-0.6c1.4,0.3,1.8,1.3,1.6,2.8c-0.2,0.9-0.5,2.6-1.7,2c-0.5-0.3-0.9-0.9-1-1.5
					c-0.3-1,0.8-0.7,1.3-0.6c0.5,0.1,1-0.8,0.4-1.1c-1.8-0.9-3.6,0.2-2.8,2.5c0.7,2,2.9,2.9,4.2,1.1c0.1,0,0.1-0.1,0.2-0.2
					c0-0.1,0-0.1,0.1-0.2c0.1-0.2,0.2-0.4,0.3-0.7c0.8-2,2.3-3.4,4.1-4c0.5-0.2,1.3-0.1,1.8,0c0.7,0.2-0.9,1-1.1,1
					c-0.5,0.1-1.1,0.1-1.6,0C265.2,66.3,264.9,67.6,265.6,67.9z M258.9,80.7c-0.3-0.1-0.5-0.2-0.7-0.3c0.4,0.2,0.9,0.3,1.3,0.4
					C259.3,80.8,259.1,80.8,258.9,80.7z M277.2,84.7c-1.2-0.3-2.7,0.3-3,1.7c-0.3,1-0.1,2,0.7,2.7c0.7,0.6,1.3,0,1.5-0.7
					c0.2-0.5-0.5-0.8-0.8-0.5c-0.7-0.2-0.7-0.8,0-1.6c0.3-0.2,0.7-0.3,1.1-0.3c0.9,0,1.2,0.8,1.2,1.6c0.1,1.8-1.1,3.3-2.3,4.3
					c-0.7,0.5-1.4,0.9-2.1,1.3c0.1-0.3,0.1-0.7,0.1-1c0-0.9-0.5-1.6-0.9-2.3c-0.8-1.2-0.8-1.8-0.2-3.2c0.5-1.1,1.3-1.9,1.9-2.9
					c0.6-1,1.1-2.1,1.5-3.2c0-0.1,0.1-0.3,0.1-0.4c-0.1,0.9,0.1,1.7,0.4,2.6C276.7,83.5,276.9,84.1,277.2,84.7z M276.4,78.5
					c0,0.1-0.1,0.2-0.1,0.3c0.1-1.9-0.4-3.8-1.2-5.5c0.3,0.1,0.6,0.1,0.8,0c1.4-0.4,2,0.2,2.7,1.5c0.2,0.4,0.4,0.9,0.6,1.4
					C278.1,76,276.9,76.9,276.4,78.5z"/>
				<path class="st37" d="M282.8,84.1c-0.4,2.9-1.6,5.6-3.3,8c-3.8,5-9.2,8.4-15,9.5c-1.9,0.3-3.8,0.4-5.7,0.2c0,0-0.1,0.1-0.1,0.1
					c-0.1,0-0.3,0-0.4-0.1c-6.2-0.8-13.2-1.4-18.1-6.3c-3.5-3.5-6.2-8.5-6.4-13.8c1.1,1.4,2.6,2.5,4.6,3.5
					C252.3,92.2,269.5,93.1,282.8,84.1z"/>
			</g>
		</g>
		<g class="st1">
			<g>
				<path class="st2" d="M300.7,70.1c-0.3-0.2-0.7-0.3-1.1-0.4c-0.5-0.2-0.9-0.3-1.3-0.6c-0.9-0.7-1.4-1.8-1.6-2.8
					c-0.1-0.2-0.1-0.4-0.2-0.6c-0.2-0.9-0.5-1.9-1-2.7c-0.5-0.7-1.1-1.3-1.8-1.8c-0.1-0.2-0.2-0.5-0.2-0.7c-0.1-0.7,0.1-1.3,0.3-2.1
					c0.2-0.8,0.4-1.5,0.3-2.3c-0.2-1.1-0.9-2.1-2.2-3.1c-1.8-1.4-4-2.3-6.4-2.7c-0.4-0.1-0.9-0.1-1.3-0.2c-1.1-0.1-2.2-0.3-3.2-0.7
					c0,0-0.1,0-0.1-0.1c0.5-0.3,0.9-0.6,1.4-0.9c0.3-0.2,0.6-0.4,0.9-0.6c0.5,0.4,1.2,0.7,1.8,0.8c0,0,0,0,0,0
					c0.8,0.2,1.5,0.1,2.3,0.1c0.4,0,0.8,0,1.2,0c1.8,0.1,3.5,0.7,5,1.7c0.9,0.6,1.5,1.3,1.7,2c0.2,0.7,0.1,1.4,0,2.2
					c0,0.2-0.1,0.5-0.1,0.7c-0.2,1.8,0.2,3.5,1.2,4.7c0.7,0.8,1.6,1.4,2.6,1.6c0.6,0.1,1.3,0.1,1.9-0.1l-0.2-0.5
					c-1.3,0.5-3-0.1-3.9-1.3c-0.8-1.1-1.2-2.6-1.1-4.3c0-0.2,0.1-0.5,0.1-0.7c0.1-0.8,0.2-1.6,0-2.5c-0.3-0.8-0.9-1.6-1.9-2.3
					c-1.5-1.1-3.4-1.7-5.2-1.8c-0.4,0-0.8,0-1.2,0c-0.8,0-1.5,0-2.2-0.1c0,0,0,0,0,0c-0.5-0.1-1-0.3-1.5-0.6
					c0.1-0.1,0.2-0.2,0.3-0.4c0.2-0.3,0.4-0.7,0.7-1.1c0.5-0.6,1.2-0.8,1.7-1.3c0.4-0.3,0.7-0.9,0.7-1.4c0-0.3,0.2-0.5,0.4-0.6
					c0.5-0.2,0.9-0.6,0.9-1.1c0.1-0.7,0.7-1.8,0.1-2.2c-0.6-0.4-2.1-0.1-2.8,0c-1,0.2-1.5,0.3-2.2,0.5c-2.9,0.7-5,0.2-8,0.1
					c-1.9-0.2-3.8,0-4.8,0.9c-1,0.8-1.6,2.1-2,3.3c-0.4,1.3-0.7,2.6-1.2,3.8c-0.9,2.2-2.5,3.9-3.6,6c-0.2,0.4-0.4,0.8-0.4,1.2
					c0,0.4,0.1,0.9,0.5,1.1c0.4,0.2,0.8,0.2,1.3,0.1c0.4-0.1,0.8-0.4,1.2-0.5c1.4-0.5,3,0.1,4.2-0.7c0.6-0.4,1-1,1.7-1.2
					c0.7-0.2,1.4,0,2.1-0.3c0.3-0.2,0.6-0.5,0.8-0.7c0.2,0.3,0.4,0.6,0.6,0.8c0.8,0.7,1.9,1.1,3.3,1.2c0.6,0,1.1,0,1.7,0
					c0.6,0,1.2,0,1.8,0c1.7,0.1,3.4,0.8,4.7,1.8c0.2,0.1,0.3,0.2,0.4,0.3c0.1,1.1-0.3,2.2-0.7,3.3c-0.4,1.1-0.8,2.2-0.8,3.3
					c0,2,1.2,3.6,2.3,5.2c0.2,0.2,0.3,0.5,0.5,0.7c0.7,1.1,1.7,2.7,2.1,4.5c0.3,1.7,0,3.4-1,4.6l0.4,0.3c1-1.3,1.4-3.1,1.1-5
					c-0.4-1.9-1.4-3.6-2.1-4.7c-0.2-0.2-0.3-0.5-0.5-0.7c-1.1-1.5-2.2-3.1-2.2-5c0-1.1,0.4-2.1,0.8-3.1c0.4-1,0.7-2,0.8-3
					c0,0,0.1,0.1,0.1,0.1c0,0.3,0.1,0.6,0.1,0.9c0.2,1.1,0.3,2.2,0.8,3.3c0.6,1.4,1.8,2.6,2.9,3.7c1.4,1.3,2.6,2.6,3,4.3
					c0.1,0.5,0.1,0.9,0.1,1.4c-0.2,0.3-0.5,0.6-0.7,0.9c-0.3,0.4-0.6,0.7-0.9,1.1c-0.7,1-1.3,2.6-0.5,3.8l0.4-0.3
					c-0.6-1-0.1-2.3,0.5-3.2c0.3-0.4,0.6-0.7,0.9-1.1c0.1-0.1,0.2-0.2,0.2-0.3c-0.1,0.5-0.2,1.1-0.3,1.6c-0.3,1.6-0.6,3.3,0,4.8
					c0.2,0.4,0.3,0.7,0.5,1c0.2,0.2,0.3,0.5,0.4,0.7c0.2,0.4,0.4,1.1,0.2,1.7l0.5,0.2c0.3-0.7,0-1.5-0.2-2.1
					c-0.1-0.3-0.3-0.5-0.4-0.8c-0.2-0.3-0.4-0.6-0.5-0.9c-0.6-1.4-0.3-2.9,0-4.5c0.2-0.8,0.3-1.6,0.4-2.4c0.2-0.3,0.4-0.6,0.6-1
					c0.3-0.7,0.5-1.4,0.5-2.1c0.3,0.4,0.6,0.8,1,1.1c0.4,0.3,0.9,0.5,1.4,0.7c0.4,0.1,0.7,0.2,1,0.4c0.7,0.4,1.3,1.1,1,1.8l0.5,0.2
					C302.3,71.6,301.6,70.5,300.7,70.1z M295.4,63.7c-0.1-0.2-0.3-0.4-0.5-0.6c-0.2-0.3-0.4-0.6-0.6-0.8c0.3,0.3,0.6,0.6,0.8,0.9
					C295.3,63.3,295.4,63.5,295.4,63.7z M280.8,49.8c1.1,0.5,2.2,0.6,3.4,0.8c0.4,0,0.9,0.1,1.3,0.2c2.2,0.4,4.3,1.3,6.1,2.6
					c1.2,0.9,1.8,1.8,2,2.7c0.1,0.7-0.1,1.4-0.3,2.1c-0.2,0.7-0.4,1.5-0.3,2.2c0,0.1,0,0.2,0,0.3c-0.2-0.1-0.3-0.2-0.5-0.3
					c-0.5-0.3-1-0.6-1.4-0.9c-0.6-0.4-1.2-1-1.7-1.5c-0.2-0.2-0.4-0.4-0.6-0.5c-0.2-1.3-0.6-2.5-1.5-3.4c-0.6-0.7-1.4-1.1-2.2-1.4
					c-1.1-0.7-2.3-1.1-3.5-1.6c-0.3-0.1-0.6-0.2-0.8-0.3c-0.5-0.2-0.9-0.4-1.3-0.7c0.2-0.1,0.5-0.3,0.7-0.4
					C280.6,49.7,280.7,49.7,280.8,49.8z M279.3,50.3C279.3,50.3,279.3,50.3,279.3,50.3c0.4,0.4,1,0.6,1.5,0.8
					c0.3,0.1,0.6,0.2,0.8,0.3c0.4,0.2,0.9,0.3,1.3,0.5c-0.1,0-0.2,0-0.3-0.1l-0.5-0.1c-1.4-0.3-2.5-0.7-3.3-1.2
					C279,50.5,279.2,50.4,279.3,50.3z M282.8,54.5c-0.6,0-1.2,0-1.8,0c-0.5,0-1.1,0-1.6,0c-1.3-0.1-2.3-0.5-3-1.1
					c-0.2-0.2-0.4-0.5-0.5-0.7c0.7-0.3,1.6-0.1,2.1-0.6c0.3-0.3,0.4-0.6,0.6-0.9c0,0,0.1-0.1,0.1-0.1c0.8,0.6,2,1.1,3.5,1.4l0.5,0.1
					c0.9,0.2,1.7,0.3,2.6,0.6c0.1,0,0.1,0.1,0.2,0.1c1.3,0.9,2.2,2,2.5,3.2c0,0,0,0,0,0C286.3,55.3,284.6,54.7,282.8,54.5z
					 M296.1,70.3c0,0.1-0.1,0.2-0.1,0.2c0-0.3-0.1-0.5-0.1-0.8c-0.4-1.9-1.8-3.3-3.2-4.6c-1.1-1.1-2.2-2.2-2.8-3.5
					c-0.4-1-0.6-2.1-0.8-3.1c0-0.1,0-0.1,0-0.2c0,0,0.1,0.1,0.1,0.1c0.5,0.5,1.1,1.1,1.7,1.5c0.5,0.3,1,0.7,1.4,1
					c0.3,0.2,0.6,0.4,1,0.6c0.3,0.7,0.8,1.3,1.2,2c0.2,0.2,0.3,0.4,0.5,0.6C296.2,65.7,297.1,68.2,296.1,70.3z"/>
				<g>
					<path class="st38" d="M264.5,56.4c-0.1,0-0.2-0.1-0.2-0.2c-0.1-0.9,0.4-1.9,1.1-2.5c0.1-0.1,0.3-0.1,0.4,0
						c0.1,0.1,0.1,0.3,0,0.4c-0.6,0.5-1,1.3-0.9,2C264.8,56.2,264.7,56.4,264.5,56.4C264.5,56.4,264.5,56.4,264.5,56.4z"/>
				</g>
				<g>
					<path class="st38" d="M283.5,40.8c-0.1,0-0.2-0.1-0.2-0.3c0-0.1,0.1-0.3,0.3-0.3c0.6,0,1.2-0.1,1.8-0.3c0.2,0,0.3-0.1,0.5-0.1
						c0.8-0.2,1.6-0.3,2.5,0c0.1,0,0.2,0.2,0.2,0.3c0,0.1-0.2,0.2-0.3,0.2c-0.7-0.3-1.5-0.1-2.2,0c-0.2,0-0.3,0.1-0.5,0.1
						C284.9,40.6,284.2,40.8,283.5,40.8C283.5,40.8,283.5,40.8,283.5,40.8z"/>
				</g>
				<g>
					<path class="st38" d="M284.8,41.9c-0.1,0-0.2-0.1-0.2-0.2c0-0.1,0.1-0.3,0.3-0.3c0.9,0,1.8,0.2,2.7,0.5
						c0.1,0.1,0.2,0.2,0.1,0.3c-0.1,0.1-0.2,0.2-0.3,0.1C286.6,42.1,285.7,41.9,284.8,41.9C284.8,41.9,284.8,41.9,284.8,41.9z"/>
				</g>
				<g>
					<path class="st38" d="M286.4,43.4C286.4,43.4,286.4,43.4,286.4,43.4c-0.8-0.3-1.7-0.6-2.5-0.7c-0.1,0-0.2-0.1-0.2-0.3
						c0-0.1,0.1-0.2,0.3-0.2c0.9,0.1,1.8,0.4,2.6,0.7c0.1,0.1,0.2,0.2,0.1,0.3C286.7,43.4,286.6,43.4,286.4,43.4z"/>
				</g>
				<g>
					<path class="st38" d="M277,52.1C277,52.1,276.9,52,277,52.1c-1.3-0.9-2.1-2.2-2.3-3.6c0-0.1,0.1-0.3,0.2-0.3
						c0.1,0,0.3,0.1,0.3,0.2c0.2,1.3,0.9,2.5,2,3.3c0.1,0.1,0.1,0.2,0.1,0.4C277.2,52.1,277.1,52.1,277,52.1z"/>
				</g>
				<g>
					<path class="st38" d="M278.1,50.7c-0.1,0-0.1,0-0.1-0.1l-1.1-1.2c-0.1-0.1-0.1-0.3,0-0.4c0.1-0.1,0.3-0.1,0.4,0l1.1,1.2
						c0.1,0.1,0.1,0.3,0,0.4C278.2,50.7,278.2,50.7,278.1,50.7z"/>
				</g>
				<g>
					<path class="st38" d="M280.3,49.1c-0.1,0-0.1,0-0.1-0.1c-0.9-1.1-2.1-1.9-3.4-2.2c-0.1,0-0.2-0.2-0.2-0.3
						c0-0.1,0.2-0.2,0.3-0.2c1.4,0.4,2.7,1.3,3.7,2.4c0.1,0.1,0.1,0.3,0,0.4C280.4,49.1,280.4,49.2,280.3,49.1z"/>
				</g>
				<g>
					<path class="st38" d="M282.8,47.2c0,0-0.1,0-0.1-0.1c-0.7-0.6-1.6-1-2.4-1.3c-0.1,0-0.2-0.2-0.2-0.3c0-0.1,0.2-0.2,0.3-0.2
						c0.9,0.3,1.8,0.8,2.6,1.4c0.1,0.1,0.1,0.2,0,0.4C283,47.2,282.9,47.2,282.8,47.2z"/>
				</g>
				<g>
					<path class="st38" d="M283.5,46.4c0,0-0.1,0-0.1-0.1c-0.8-0.7-1.7-1.1-2.7-1.4c0,0,0,0,0,0c-0.1,0-0.2-0.2-0.2-0.3
						c0-0.1,0.2-0.2,0.3-0.2c1.1,0.2,2.1,0.7,3,1.5c0.1,0.1,0.1,0.3,0,0.4C283.7,46.4,283.6,46.5,283.5,46.4z"/>
				</g>
				<g>
					<path class="st38" d="M285,44.9C285,44.9,284.9,44.9,285,44.9c-0.9-0.5-1.7-0.8-2.7-0.8c-0.1,0-0.2-0.1-0.2-0.3
						c0-0.1,0.1-0.2,0.3-0.2c1,0.1,2,0.4,2.8,0.9c0.1,0.1,0.2,0.2,0.1,0.4C285.2,44.9,285.1,44.9,285,44.9z"/>
				</g>
				<g>
					<path class="st38" d="M267.5,55.4c-0.1,0-0.2-0.1-0.2-0.2c-0.1-0.7,0-1.3,0.2-2c0-0.1,0.2-0.2,0.3-0.2c0.1,0,0.2,0.2,0.2,0.3
						c-0.2,0.6-0.2,1.2-0.1,1.8C267.9,55.3,267.8,55.4,267.5,55.4C267.6,55.4,267.6,55.4,267.5,55.4z"/>
				</g>
				<g>
					<path class="st38" d="M268.9,55.3c-0.1,0-0.2-0.1-0.2-0.2l0-1.7c0-0.1,0.1-0.3,0.3-0.3c0.1,0,0.3,0.1,0.3,0.3l0,1.7
						C269.2,55.2,269.1,55.3,268.9,55.3C268.9,55.3,268.9,55.3,268.9,55.3z"/>
				</g>
				<g>
					<path class="st38" d="M272.1,53.8c-0.1,0-0.1-0.1-0.2-0.1c-0.4-0.7-0.6-1.5-0.8-2.3c0-0.1,0.1-0.3,0.2-0.3
						c0.1,0,0.3,0.1,0.3,0.2c0.2,0.7,0.4,1.5,0.8,2.2c0.1,0.1,0,0.3-0.1,0.3C272.2,53.8,272.1,53.8,272.1,53.8z"/>
				</g>
				<g>
					<path class="st38" d="M273.7,53.3c-0.1,0-0.1,0-0.1-0.1c-0.4-0.5-0.7-1.2-0.7-1.8c0-0.1,0.1-0.3,0.2-0.3c0.1,0,0.3,0.1,0.3,0.2
						c0,0.6,0.2,1.1,0.6,1.5c0.1,0.1,0.1,0.3,0,0.4C273.8,53.3,273.7,53.3,273.7,53.3z"/>
				</g>
			</g>
			<path class="st38" d="M269.3,45.9c-0.2,0-0.5,0.1-0.6,0.3c-0.1,0.2-0.2,0.4-0.3,0.7c0,0.1-0.1,0.3,0,0.4c0.1,0.1,0.3,0.1,0.4,0
				c0.3-0.1,0.5-0.5,0.8-0.7c0.2-0.1,0.5-0.2,0.8-0.3c0.3-0.1,0.5-0.4,0.5-0.6c-0.3,0-0.7,0.1-1,0.2c-0.1,0.1-0.3,0.1-0.4,0.1
				C269.5,46,269.4,45.9,269.3,45.9z"/>
			<path class="st38" d="M273.1,49c0.3-0.2,0.7-0.4,0.9-0.7c0.3-0.4,0.3-1,0.7-1.1c-0.6,0-1,0.5-1.5,0.9c-0.6,0.6-1.3,1-2,1.3
				c-0.3,0.2-0.7,0.3-1,0.5c-0.2,0.2-0.4,0.4-0.7,0.6c-0.2,0.1-0.4,0.2-0.7,0.3c-0.8,0.3-1.5,0.6-2.3,1c-0.1,0-0.1,0.1-0.2,0
				c-0.1,0-0.1-0.1-0.1-0.1c-0.1,0.1-0.1,0.2-0.1,0.4c0,0.1,0.1,0.3,0.2,0.3c0.1,0,0.1,0,0.2-0.1c0.3-0.1,0.6-0.3,0.9-0.3
				c0.2,0,0.5,0.1,0.7,0.1c0.3-0.1,0.4-0.4,0.6-0.6c0.5-0.7,1.5-0.8,2.3-1.1c0.5-0.2,1-0.5,1.4-0.9C272.8,49.3,272.9,49.2,273.1,49z
				"/>
			<path class="st38" d="M277.6,45.3c0.1,0,0.2-0.1,0.3-0.1c0.1-0.1,0.1-0.3,0.2-0.4c0.1-0.2,0.3-0.4,0.5-0.5
				c0.2-0.1,0.5-0.1,0.6-0.4c0.1-0.1,0.1-0.2,0.1-0.3c0.1-0.5,0.4-0.9,0.8-1.1c0.2-0.1,0.5-0.2,0.6-0.4c0.1-0.2,0-0.5,0.1-0.7
				c0.1-0.2,0.4-0.3,0.5-0.6c-0.3-0.1-0.6,0.1-0.8,0.3c-0.2,0.3-0.3,0.6-0.5,0.9c-0.4,0.6-1.1,0.9-1.5,1.5c-0.3,0.3-0.4,0.7-0.7,1
				c-0.2,0.2-0.4,0.5-0.7,0.7c-0.4,0.3-0.8,0.7-1.2,1C276.6,45.7,277.1,45.4,277.6,45.3z"/>
		</g>
		<g>
			<g>
				<path class="st2" d="M128.4,36.3c-1.2,0-2.2-1-2.2-2.2c0-1.2,1-2.2,2.2-2.2c1.2,0,2.2,1,2.2,2.2
					C130.6,35.4,129.6,36.3,128.4,36.3z M128.4,32.8c-0.8,0-1.4,0.6-1.4,1.4c0,0.8,0.6,1.4,1.4,1.4c0.8,0,1.4-0.6,1.4-1.4
					C129.8,33.4,129.2,32.8,128.4,32.8z"/>
			</g>
			<g>
				<path class="st2" d="M135.5,29.8c-2.4,0-4.4-2-4.4-4.4c0-2.4,2-4.4,4.4-4.4c2.4,0,4.4,2,4.4,4.4
					C139.9,27.8,137.9,29.8,135.5,29.8z M135.5,21.9c-2,0-3.6,1.6-3.6,3.6c0,2,1.6,3.6,3.6,3.6c2,0,3.6-1.6,3.6-3.6
					C139.1,23.5,137.5,21.9,135.5,21.9z"/>
			</g>
			<g>
				<path class="st2" d="M125.4,20.8c-1.2,0-2.2-1-2.2-2.2c0-1.2,1-2.2,2.2-2.2s2.2,1,2.2,2.2C127.6,19.8,126.6,20.8,125.4,20.8z
					 M125.4,17.2c-0.8,0-1.4,0.6-1.4,1.4c0,0.8,0.6,1.4,1.4,1.4s1.4-0.6,1.4-1.4C126.8,17.8,126.2,17.2,125.4,17.2z"/>
			</g>
			<g>
				<path class="st2" d="M275,35c-1.9,0-3.4-1.5-3.4-3.4c0-1.9,1.5-3.4,3.4-3.4s3.4,1.5,3.4,3.4C278.4,33.4,276.9,35,275,35z
					 M275,29c-1.4,0-2.6,1.2-2.6,2.6c0,1.4,1.2,2.6,2.6,2.6c1.4,0,2.6-1.2,2.6-2.6C277.6,30.1,276.4,29,275,29z"/>
			</g>
			<g>
				<path class="st2" d="M266,38.5c-1.1,0-2-0.9-2-2c0-1.1,0.9-2,2-2c1.1,0,2,0.9,2,2C268,37.6,267.1,38.5,266,38.5z M266,35.2
					c-0.7,0-1.2,0.6-1.2,1.2c0,0.7,0.6,1.2,1.2,1.2c0.7,0,1.2-0.6,1.2-1.2C267.2,35.8,266.6,35.2,266,35.2z"/>
			</g>
			<g>
				<path class="st2" d="M176.5,89.6c-1.4,0-2.5-1.1-2.5-2.5s1.1-2.5,2.5-2.5s2.5,1.1,2.5,2.5S177.8,89.6,176.5,89.6z M176.5,85.5
					c-0.9,0-1.6,0.7-1.6,1.6c0,0.9,0.7,1.6,1.6,1.6c0.9,0,1.6-0.7,1.6-1.6C178.1,86.2,177.4,85.5,176.5,85.5z"/>
			</g>
			<g>
				<path class="st2" d="M210.2,89.6c-2,0-3.7-1.7-3.7-3.7c0-2,1.7-3.7,3.7-3.7c2,0,3.7,1.7,3.7,3.7C213.9,88,212.3,89.6,210.2,89.6
					z M210.2,83c-1.6,0-2.9,1.3-2.9,2.9s1.3,2.9,2.9,2.9s2.9-1.3,2.9-2.9S211.8,83,210.2,83z"/>
			</g>
			<g>
				<path class="st2" d="M186.2,86.6c-1,0-1.8-0.8-1.8-1.8s0.8-1.8,1.8-1.8c1,0,1.8,0.8,1.8,1.8S187.2,86.6,186.2,86.6z M186.2,83.9
					c-0.5,0-1,0.4-1,1c0,0.5,0.4,1,1,1c0.5,0,1-0.4,1-1C187.1,84.3,186.7,83.9,186.2,83.9z"/>
			</g>
		</g>
	</g>
</g>
</svg>
