<?xml version="1.0" encoding="UTF-8" standalone="no" ?>
<!DOCTYPE svg PUBLIC "-//W3C//DTD SVG 1.1//EN" "http://www.w3.org/Graphics/SVG/1.1/DTD/svg11.dtd">
<svg xmlns="http://www.w3.org/2000/svg" xmlns:xlink="http://www.w3.org/1999/xlink" version="1.1" width="1080" height="1080" viewBox="0 0 1080 1080" xml:space="preserve">
<desc>Created with Fabric.js 5.2.4</desc>
<defs>
</defs>
<rect x="0" y="0" width="100%" height="100%" fill="transparent"></rect>
<g transform="matrix(1 0 0 1 540 540)" id="45e2c055-7fb1-45f5-ae78-85be25d0f912"  >
</g>
<g transform="matrix(1 0 0 1 540 540)" id="93a4e1bc-c277-4530-bfc7-833750a3c8d8"  >
<rect style="stroke: none; stroke-width: 1; stroke-dasharray: none; stroke-linecap: butt; stroke-dashoffset: 0; stroke-linejoin: miter; stroke-miterlimit: 4; fill: rgb(255,255,255); fill-rule: nonzero; opacity: 1; visibility: hidden;" vector-effect="non-scaling-stroke"  x="-540" y="-540" rx="0" ry="0" width="1080" height="1080" />
</g>
<g transform="matrix(11.9 0 0 11.9 540 540)"  >
<path style="stroke: rgb(0,0,0); stroke-width: 0; stroke-dasharray: none; stroke-linecap: butt; stroke-dashoffset: 0; stroke-linejoin: miter; stroke-miterlimit: 4; fill: rgb(254,177,0); fill-rule: nonzero; opacity: 1;" vector-effect="non-scaling-stroke"  transform=" translate(-48, -48)" d="M 80 12 L 16 12 C 9.373 12 4 17.373 4 24 L 4 72 C 4 78.627 9.373000000000001 84 16 84 L 80 84 C 86.627 84 92 78.627 92 72 L 92 24 C 92 17.373 86.627 12 80 12 z M 80 20 C 80.462 20 80.906 20.078 81.318 20.223 L 48 46.878 L 14.682 20.223 C 15.094 20.078 15.538 20 16 20 L 80 20 z M 80 76 L 16 76 C 13.791 76 12 74.209 12 72 L 12 28.322 L 45.501 55.123 C 46.231 55.708 47.115 56 48 56 C 48.885 56 49.769 55.708 50.499 55.123 L 84 28.322 L 84 72 C 84 74.209 82.209 76 80 76 z" stroke-linecap="round" />
</g>
<g transform="matrix(NaN NaN NaN NaN 0 0)"  >
<g style=""   >
</g>
</g>
</svg>