<?xml version="1.0" standalone="no"?>
<!DOCTYPE svg PUBLIC "-//W3C//DTD SVG 20010904//EN"
 "http://www.w3.org/TR/2001/REC-SVG-20010904/DTD/svg10.dtd">
<svg version="1.0" xmlns="http://www.w3.org/2000/svg"
 width="872.000000pt" height="600.000000pt" viewBox="0 0 872.000000 600.000000"
 preserveAspectRatio="xMidYMid meet">
<metadata>
Created by potrace 1.16, written by Peter Selinger 2001-2019
</metadata>
<g transform="translate(0.000000,600.000000) scale(0.100000,-0.100000)"
fill="#000000" stroke="none">
<path d="M7215 5833 c-107 -35 -171 -51 -173 -44 -4 13 -39 15 -46 2 -6 -10
21 -105 45 -159 16 -38 39 -49 46 -24 3 11 22 23 51 31 26 8 57 20 70 28 13 8
29 12 35 10 15 -5 67 20 67 32 0 5 9 7 19 4 17 -4 49 8 101 39 8 5 23 11 33
14 9 4 20 18 24 31 6 25 8 25 74 21 133 -10 240 -84 353 -245 32 -46 62 -83
67 -83 6 0 19 5 30 10 24 13 19 23 -50 104 -86 102 -193 179 -286 208 -16 5
-68 15 -115 22 -47 6 -85 16 -85 21 -1 49 -56 45 -260 -22z"/>
<path d="M5619 5308 c-8 -18 -48 -38 -176 -88 -91 -36 -178 -72 -193 -82 -27
-16 -32 -39 -16 -78 4 -10 -9 -23 -43 -42 -75 -42 -151 -125 -199 -217 -85
-161 -104 -254 -78 -390 9 -46 16 -85 16 -87 0 -6 36 -5 43 2 3 3 -1 27 -9 52
-7 26 -14 86 -14 134 0 72 5 102 30 169 56 155 133 272 206 315 47 28 67 30
84 9 7 -8 21 -15 32 -15 10 0 21 7 24 15 4 9 19 15 35 15 18 0 33 7 41 19 9
15 19 18 44 14 28 -5 35 -2 44 19 9 19 17 23 40 20 19 -3 32 2 41 15 18 26 93
37 110 17 7 -8 22 -14 33 -12 31 4 24 68 -16 148 -36 70 -61 86 -79 48z"/>
<path d="M7210 5088 c-73 -15 -345 -87 -477 -125 -112 -33 -123 -38 -123 -59
0 -29 30 -32 87 -9 42 16 334 97 508 140 101 26 124 36 125 58 0 9 -64 7 -120
-5z"/>
<path d="M7215 5021 c-112 -29 -268 -71 -295 -80 -14 -5 -76 -24 -137 -42 -62
-18 -113 -37 -113 -42 0 -10 143 -270 184 -335 22 -35 32 -42 72 -48 73 -11
145 1 246 41 164 64 207 86 214 109 14 41 5 125 -26 247 -18 68 -35 134 -37
147 -6 26 -15 26 -108 3z"/>
<path d="M7831 3637 c-6 -8 -49 -40 -96 -72 -47 -32 -85 -61 -85 -65 0 -3 14
-16 31 -29 67 -50 153 -222 184 -372 35 -165 12 -396 -51 -521 -54 -107 -216
-234 -341 -267 -42 -11 -43 -13 -43 -53 l0 -40 56 7 c141 17 257 70 376 171
129 109 210 235 248 384 48 188 15 502 -70 670 -31 60 -109 158 -144 179 -39
25 -50 26 -65 8z"/>
<path d="M6842 3520 c-37 -22 -68 -52 -108 -106 -31 -41 -62 -78 -69 -80 -26
-10 -50 -142 -50 -274 0 -280 100 -518 297 -706 46 -43 88 -88 94 -99 10 -17
15 -18 33 -7 11 6 26 12 32 12 16 0 151 83 180 110 13 13 53 41 89 64 l65 41
3 88 c2 77 0 92 -19 118 -12 17 -24 27 -28 21 -10 -15 -148 -82 -155 -74 -9 8
-43 85 -62 135 l-13 38 32 -6 c100 -19 187 95 157 206 -23 84 -74 129 -145
129 -114 0 -168 -91 -127 -215 11 -33 23 -73 26 -89 4 -16 27 -71 52 -124 24
-52 44 -98 44 -101 0 -3 -28 -24 -63 -46 -72 -47 -104 -79 -112 -117 -9 -39
-26 -35 -77 20 -95 102 -150 206 -195 369 -24 87 -27 116 -27 263 -1 155 0
168 23 213 31 63 109 148 166 182 29 17 45 33 45 45 0 28 -26 25 -88 -10z"/>
<path d="M5756 3332 c-12 -19 -35 -137 -28 -143 4 -3 28 -14 54 -23 26 -10 67
-36 90 -59 81 -79 146 -244 134 -336 -20 -147 -159 -281 -293 -281 -41 0 -54
-4 -63 -19 -17 -33 -12 -40 36 -47 60 -9 175 11 242 41 69 32 158 123 196 200
54 108 43 270 -28 415 -40 83 -142 192 -209 224 -60 29 -122 42 -131 28z"/>
<path d="M5439 3238 c-90 -65 -141 -143 -165 -257 -13 -61 -10 -161 5 -161 11
0 48 75 64 130 19 67 65 138 106 165 26 17 31 27 37 83 3 34 4 65 2 68 -3 2
-25 -10 -49 -28z"/>
<path d="M5035 2416 c-107 -31 -128 -40 -212 -92 -188 -117 -286 -323 -255
-536 15 -100 62 -234 114 -326 57 -101 164 -207 250 -249 220 -109 503 -29
654 183 149 209 151 468 7 758 -120 239 -315 331 -558 262z m170 -226 c102
-50 209 -192 250 -335 34 -118 8 -306 -60 -421 -34 -57 -106 -119 -162 -138
-97 -33 -247 -12 -341 48 -131 83 -242 291 -242 453 0 51 24 152 47 198 44 87
138 166 243 205 75 28 194 23 265 -10z"/>
<path d="M3908 783 c-14 -3 -18 -15 -18 -53 l0 -48 -63 5 c-51 4 -70 2 -91
-12 -37 -24 -56 -65 -56 -120 0 -92 105 -154 188 -111 18 9 32 12 32 6 0 -5
11 -10 25 -10 l25 0 0 123 c0 128 -8 228 -19 226 -3 -1 -14 -3 -23 -6z m-37
-162 c35 -35 38 -77 9 -114 -52 -65 -150 -23 -150 64 0 30 53 79 85 79 16 0
38 -12 56 -29z"/>
<path d="M5585 748 c-3 -11 -18 -287 -16 -313 0 -5 11 -11 25 -13 27 -3 27 -3
41 241 l5 97 -25 0 c-14 0 -27 -6 -30 -12z"/>
<path d="M5716 643 c-4 -60 -9 -136 -12 -170 l-6 -63 30 0 29 0 7 131 c3 73 9
149 12 170 6 38 6 39 -24 39 l-30 0 -6 -107z"/>
<path d="M4358 694 c-62 -33 -40 -102 41 -134 52 -20 68 -42 45 -64 -19 -20
-24 -20 -74 0 -31 13 -44 14 -53 5 -20 -20 25 -53 80 -58 58 -5 94 12 107 49
15 44 -6 76 -69 103 -39 18 -55 30 -55 44 0 28 33 35 71 16 28 -15 33 -15 47
-2 13 14 11 18 -19 36 -40 24 -83 26 -121 5z"/>
<path d="M4620 699 c-46 -14 -56 -25 -41 -43 10 -12 17 -12 50 1 50 20 94 2
99 -39 3 -27 2 -27 -28 -17 -86 31 -173 -39 -144 -116 15 -38 97 -57 149 -33
19 9 28 9 37 0 27 -27 36 -11 42 71 4 45 3 95 -2 111 -16 57 -89 86 -162 65z"/>
<path d="M4054 667 c-37 -34 -39 -39 -39 -96 0 -55 3 -64 32 -92 26 -26 42
-33 86 -37 59 -5 127 19 127 44 0 22 -23 26 -56 9 -16 -8 -41 -15 -55 -15 -33
0 -79 35 -79 61 0 17 8 19 100 19 l100 0 0 35 c0 24 -9 44 -29 67 -24 27 -36
32 -88 36 -58 4 -62 3 -99 -31z"/>
<path d="M4867 693 c-4 -3 -7 -62 -7 -130 0 -123 0 -123 24 -123 22 0 24 4 30
87 9 108 16 121 64 125 29 2 37 7 37 23 0 24 -43 32 -76 15 -15 -9 -24 -9 -32
-1 -12 12 -30 14 -40 4z"/>
<path d="M2528 683 c-13 -3 -18 -15 -18 -43 0 -24 -5 -40 -15 -44 -22 -8 -18
-36 5 -36 11 0 20 -1 21 -2 0 -2 4 -38 8 -81 10 -95 33 -127 92 -127 38 0 66
21 54 40 -4 7 -18 9 -30 6 -14 -4 -29 0 -38 9 -16 16 -34 136 -22 154 3 6 19
11 36 11 22 0 29 5 29 20 0 17 -7 20 -39 20 -39 0 -40 1 -43 37 -3 37 -10 44
-40 36z"/>
<path d="M5067 683 c-4 -3 -7 -60 -7 -125 0 -117 0 -118 24 -118 21 0 24 6 30
53 3 28 6 67 6 85 0 41 32 74 68 70 22 -2 28 2 30 20 3 20 -1 22 -35 22 -22 0
-44 -5 -50 -11 -8 -8 -13 -8 -17 0 -8 12 -39 15 -49 4z"/>
<path d="M5310 672 c-42 -21 -80 -75 -80 -113 0 -45 30 -95 70 -118 96 -54
210 7 210 112 0 53 -24 93 -70 117 -48 25 -84 25 -130 2z m118 -52 c61 -57 24
-150 -59 -150 -46 0 -79 36 -79 87 0 70 87 110 138 63z"/>
<path d="M3488 670 c-9 -6 -28 -46 -43 -90 -15 -44 -30 -80 -34 -80 -3 0 -25
37 -47 83 -36 73 -43 82 -65 79 -13 -2 -25 -5 -27 -7 -1 -1 24 -53 57 -116 57
-108 59 -114 45 -141 -10 -19 -22 -28 -39 -28 -18 0 -25 -5 -25 -20 0 -29 60
-28 87 3 23 25 135 306 127 319 -7 10 -15 10 -36 -2z"/>
<path d="M3081 644 c-15 -11 -26 -13 -33 -6 -5 5 -19 7 -29 5 -19 -5 -20 -12
-14 -117 4 -61 8 -117 10 -123 3 -7 16 -13 31 -13 l26 0 -7 85 c-9 101 5 135
54 135 28 0 47 22 35 41 -8 14 -47 11 -73 -7z"/>
<path d="M5891 632 c-92 -49 -90 -181 2 -228 41 -22 103 -22 145 0 48 25 77
92 63 144 -24 87 -128 128 -210 84z m128 -49 c12 -10 24 -35 28 -55 5 -32 1
-41 -26 -69 -28 -27 -37 -31 -69 -26 -68 11 -95 85 -51 141 25 32 85 36 118 9z"/>
<path d="M2768 624 c-53 -16 -65 -28 -48 -49 10 -13 16 -13 41 0 42 22 85 19
103 -7 9 -12 16 -25 16 -29 0 -4 -30 -9 -66 -11 -58 -4 -70 -8 -90 -32 -29
-33 -30 -65 -3 -100 17 -22 28 -26 73 -26 30 0 61 6 73 15 14 10 24 12 28 5 3
-5 15 -10 27 -10 19 0 20 4 13 93 -8 104 -21 132 -70 153 -40 17 -37 17 -97
-2z"/>
<path d="M6770 618 c0 -30 -11 -45 -34 -49 -28 -6 -32 -29 -6 -36 22 -6 22 -9
16 -95 -7 -85 -6 -89 19 -114 20 -20 33 -25 63 -22 29 2 37 7 37 23 0 14 -6
19 -18 17 -33 -6 -47 17 -46 72 2 86 9 101 53 100 32 -1 37 1 34 20 -2 16 -11
22 -35 24 -31 3 -33 6 -33 43 0 35 -3 39 -25 39 -19 0 -25 -5 -25 -22z"/>
<path d="M6426 548 c-3 -29 -8 -86 -12 -125 l-7 -73 26 0 c28 0 29 2 42 114 3
27 13 58 22 68 20 23 76 24 94 1 14 -16 16 -79 4 -159 -5 -39 -4 -42 20 -46
14 -3 27 -2 30 2 2 4 7 50 11 103 6 80 4 100 -10 121 -21 33 -80 49 -127 36
-22 -7 -35 -7 -37 0 -2 5 -14 10 -27 10 -20 0 -23 -6 -29 -52z"/>
<path d="M2302 573 c-37 -18 -50 -53 -34 -88 8 -17 27 -29 66 -40 60 -17 80
-34 70 -58 -9 -24 -39 -30 -79 -17 -55 18 -80 -15 -30 -38 54 -25 144 -6 159
33 21 55 -7 95 -80 115 -56 16 -70 32 -48 55 12 11 25 15 43 10 48 -12 65 -10
69 6 3 18 -37 39 -76 39 -15 0 -42 -8 -60 -17z"/>
<path d="M2043 547 c-128 -48 -109 -236 26 -254 49 -7 126 19 142 48 15 29
-12 34 -57 10 -21 -12 -48 -21 -60 -21 -25 0 -74 36 -74 55 0 13 97 35 159 35
41 0 48 19 24 67 -27 57 -98 83 -160 60z"/>
<path d="M6979 517 c-67 -44 -86 -137 -40 -193 40 -49 128 -69 186 -42 33 15
29 44 -5 39 -75 -10 -112 -5 -131 18 -11 13 -19 32 -19 43 0 18 5 18 63 11
112 -14 142 -11 145 14 6 38 -28 92 -69 113 -50 26 -88 25 -130 -3z"/>
<path d="M1738 502 c-22 -11 -48 -17 -67 -14 -29 4 -31 3 -26 -24 2 -16 9 -63
15 -104 17 -120 17 -120 46 -120 29 0 29 3 8 140 -4 26 0 42 16 63 43 55 104
24 115 -60 14 -111 15 -113 39 -113 12 0 25 2 28 5 7 7 -21 174 -33 197 -10
19 -65 48 -92 48 -7 0 -29 -8 -49 -18z"/>
<path d="M7308 492 c-16 -2 -40 -18 -59 -39 -28 -33 -31 -41 -27 -85 3 -32 13
-57 27 -72 28 -29 86 -45 125 -35 37 10 42 6 28 -26 -24 -52 -85 -57 -139 -11
-32 27 -57 21 -51 -10 4 -25 83 -64 128 -64 39 0 93 29 109 59 6 11 18 68 27
128 9 59 17 113 17 118 1 6 -14 10 -34 10 -20 1 -43 6 -50 12 -16 12 -62 19
-101 15z m99 -64 c62 -58 -5 -156 -84 -123 -39 17 -56 47 -48 86 13 57 88 79
132 37z"/>
<path d="M1435 463 c-83 -22 -122 -124 -75 -201 22 -36 72 -62 117 -62 37 1
112 35 120 56 10 27 -18 35 -48 13 -42 -30 -79 -33 -116 -10 -18 12 -33 27
-33 35 0 15 9 18 129 37 l73 11 -6 31 c-14 67 -87 108 -161 90z"/>
<path d="M925 448 c-27 -6 -51 -11 -52 -12 -3 -3 56 -319 61 -323 6 -7 160 28
188 43 56 29 64 89 17 136 -27 28 -29 34 -19 58 14 34 4 76 -23 95 -24 17 -96
18 -172 3z"/>
<path d="M8065 418 c-4 -24 -17 -99 -31 -167 -13 -68 -23 -125 -21 -126 14
-12 48 -14 52 -3 6 15 64 322 61 325 0 1 -13 4 -28 8 -24 6 -26 4 -33 -37z"/>
<path d="M7557 338 c-22 -142 -22 -138 8 -138 18 0 26 6 29 23 2 12 9 49 15
82 13 71 30 90 79 90 30 0 37 4 37 20 0 18 -6 20 -52 19 -29 -1 -53 2 -53 7 0
5 -10 9 -23 9 -22 0 -25 -6 -40 -112z"/>
<path d="M7772 402 c-7 -5 -10 -15 -7 -24 5 -12 17 -14 56 -10 57 5 89 -14 89
-55 0 -23 -14 -31 -24 -14 -4 5 -24 12 -45 16 -53 9 -104 -14 -120 -53 -27
-65 42 -122 130 -108 24 4 39 2 39 -4 0 -5 11 -10 24 -10 22 0 25 7 40 89 18
100 13 126 -30 160 -20 16 -41 21 -83 21 -31 0 -62 -4 -69 -8z"/>
</g>
</svg>
