<?xml version="1.0" encoding="UTF-8" standalone="no" ?>
<!DOCTYPE svg PUBLIC "-//W3C//DTD SVG 1.1//EN" "http://www.w3.org/Graphics/SVG/1.1/DTD/svg11.dtd">
<svg xmlns="http://www.w3.org/2000/svg" xmlns:xlink="http://www.w3.org/1999/xlink" version="1.1" width="1080" height="1080" viewBox="0 0 1080 1080" xml:space="preserve">
<desc>Created with Fabric.js 5.2.4</desc>
<defs>
</defs>
<rect x="0" y="0" width="100%" height="100%" fill="transparent"></rect>
<g transform="matrix(1 0 0 1 540 540)" id="45e2c055-7fb1-45f5-ae78-85be25d0f912"  >
</g>
<g transform="matrix(1 0 0 1 540 540)" id="93a4e1bc-c277-4530-bfc7-833750a3c8d8"  >
<rect style="stroke: none; stroke-width: 1; stroke-dasharray: none; stroke-linecap: butt; stroke-dashoffset: 0; stroke-linejoin: miter; stroke-miterlimit: 4; fill: rgb(255,255,255); fill-rule: nonzero; opacity: 1; visibility: hidden;" vector-effect="non-scaling-stroke"  x="-540" y="-540" rx="0" ry="0" width="1080" height="1080" />
</g>
<g transform="matrix(NaN NaN NaN NaN 0 0)"  >
<g style=""   >
</g>
</g>
<g transform="matrix(2.18 0 0 2.18 539.16 531.65)" id="88ca1bd5-d76d-46a9-83cb-a9c3543cdd3f"  >
<path style="stroke: rgb(0,0,0); stroke-width: 0; stroke-dasharray: none; stroke-linecap: butt; stroke-dashoffset: 0; stroke-linejoin: miter; stroke-miterlimit: 4; fill: rgb(254,177,0); fill-rule: nonzero; opacity: 1;" vector-effect="non-scaling-stroke"  transform=" translate(-238.58, -238.58)" d="M 475.009 380.316 L 472.634 373.15999999999997 C 467.009 356.441 448.572 339.00399999999996 431.634 334.40999999999997 L 368.946 317.28499999999997 C 351.946 312.65999999999997 327.696 318.87899999999996 315.25800000000004 331.316 L 292.57000000000005 354.00399999999996 C 210.11700000000005 331.72399999999993 145.46100000000004 267.066 123.21100000000004 184.62899999999996 L 145.9 161.94 C 158.338 149.502 164.556 125.28399999999999 159.931 108.28399999999999 L 142.83700000000002 45.56499999999999 C 138.21200000000002 28.59599999999999 120.74300000000002 10.158999999999992 104.05600000000001 4.595999999999989 L 96.9 2.19 C 80.18100000000001 -3.3729999999999998 56.337 2.253 43.900000000000006 14.69 L 9.962 48.659 C 3.899 54.69 0.024 71.94 0.024 72.003 C -1.163 179.753 41.087 283.565 117.305 359.784 C 193.336 435.815 296.759 478.003 404.196 477.097 C 404.75800000000004 477.097 422.50800000000004 473.284 428.571 467.25199999999995 L 462.509 433.31399999999996 C 474.946 420.878 480.571 397.035 475.009 380.316 z" stroke-linecap="round" />
</g>
<g transform="matrix(NaN NaN NaN NaN 0 0)"  >
<g style=""   >
</g>
</g>
</svg>