<?xml version="1.0" encoding="UTF-8" standalone="no" ?>
<!DOCTYPE svg PUBLIC "-//W3C//DTD SVG 1.1//EN" "http://www.w3.org/Graphics/SVG/1.1/DTD/svg11.dtd">
<svg xmlns="http://www.w3.org/2000/svg" xmlns:xlink="http://www.w3.org/1999/xlink" version="1.1" width="1080" height="1080" viewBox="0 0 1080 1080" xml:space="preserve">
<desc>Created with Fabric.js 5.2.4</desc>
<defs>
</defs>
<rect x="0" y="0" width="100%" height="100%" fill="transparent"></rect>
<g transform="matrix(1 0 0 1 540 540)" id="4e614f0c-963f-4ec3-b477-c9b9c3e1f2c8"  >
<rect style="stroke: none; stroke-width: 1; stroke-dasharray: none; stroke-linecap: butt; stroke-dashoffset: 0; stroke-linejoin: miter; stroke-miterlimit: 4; fill: rgb(255,255,255); fill-rule: nonzero; opacity: 1; visibility: hidden;" vector-effect="non-scaling-stroke"  x="-540" y="-540" rx="0" ry="0" width="1080" height="1080" />
</g>
<g transform="matrix(1 0 0 1 540 540)" id="dea8c3a9-a276-4712-88fa-b57215b7f45e"  >
</g>
<g transform="matrix(2.04 0 0 2.04 535.66 540.96)" id="28b74aa9-391f-4462-a99f-c8892e1f8bda"  >
<path style="stroke: rgb(0,0,0); stroke-width: 0; stroke-dasharray: none; stroke-linecap: butt; stroke-dashoffset: 0; stroke-linejoin: miter; stroke-miterlimit: 4; fill: rgb(39,85,162); fill-rule: nonzero; opacity: 1;" vector-effect="non-scaling-stroke"  transform=" translate(-255, -255)" d="M 255 0 C 114.75 0 0 114.75 0 255 C 0 395.25 114.75 510 255 510 C 395.25 510 510 395.25 510 255 C 510 114.75 395.25 0 255 0 z M 255 76.5 C 298.35 76.5 331.5 109.65 331.5 153 C 331.5 196.35 298.35 229.5 255 229.5 C 211.65 229.5 178.5 196.35 178.5 153 C 178.5 109.65 211.65 76.5 255 76.5 z M 255 438.6 C 191.25 438.6 135.15 405.451 102 357 C 102 306 204 277.95 255 277.95 C 306 277.95 408 306 408 357 C 374.85 405.45 318.75 438.6 255 438.6 z" stroke-linecap="round" />
</g>
</svg>