<?xml version="1.0" encoding="UTF-8" standalone="no" ?>
<!DOCTYPE svg PUBLIC "-//W3C//DTD SVG 1.1//EN" "http://www.w3.org/Graphics/SVG/1.1/DTD/svg11.dtd">
<svg xmlns="http://www.w3.org/2000/svg" xmlns:xlink="http://www.w3.org/1999/xlink" version="1.1" width="1080" height="1080" viewBox="0 0 1080 1080" xml:space="preserve">
<desc>Created with Fabric.js 5.2.4</desc>
<defs>
</defs>
<g transform="matrix(1 0 0 1 540 540)" id="00092b34-e57a-4765-af90-078f8661503b"  >
<rect style="stroke: none; stroke-width: 1; stroke-dasharray: none; stroke-linecap: butt; stroke-dashoffset: 0; stroke-linejoin: miter; stroke-miterlimit: 4; fill: rgb(255,255,255); fill-rule: nonzero; opacity: 1; visibility: hidden;" vector-effect="non-scaling-stroke"  x="-540" y="-540" rx="0" ry="0" width="1080" height="1080" />
</g>
<g transform="matrix(1 0 0 1 540 540)" id="98e889c8-421e-4918-8892-79f897e9a066"  >
</g>
<g transform="matrix(17.7 0 0 17.7 540 540.89)" id="path859"  >
<path style="stroke: rgb(255,255,255); stroke-width: 0; stroke-dasharray: none; stroke-linecap: butt; stroke-dashoffset: 0; stroke-linejoin: miter; stroke-miterlimit: 4; fill: rgb(239,28,130); fill-rule: nonzero; opacity: 1;" vector-effect="non-scaling-stroke"  transform=" translate(-32, -32)" d="M 17.501953 2 C 8.9222363 2 2.0037795 9.3858823 2 18.396484 C 1.9924409 24.185284 4.0550655 29.458778 7.0546875 34.085938 C 7.3033804 37.018019 8.5051437 39.561874 9.6523438 41.689453 C 10.939008 44.075703 12.058594 45.830195 12.058594 47 L 12 47 C 11.447735 46.997899 10.998324 47.443833 10.996094 47.996094 L 10.996094 51.001953 C 10.446891 51.004153 10.002192 51.448829 10 51.998047 L 10 60.996094 C 9.9978801 61.548366 10.443867 61.997793 10.996094 62 L 53.001953 62 C 53.554218 61.9978 54.000126 61.548366 53.998047 60.996094 L 53.998047 51.998047 C 53.995847 51.448829 53.551156 51.004153 53.001953 51.001953 L 53.001953 47.996094 C 52.999723 47.443833 52.550311 46.997891 51.998047 47 L 51.111328 47 C 51.36569 45.85294 52.055625 44.890279 52.882812 43.353516 C 53.704634 41.826726 54.499874 39.920999 54.833984 37.072266 C 58.938929 31.780307 62.008542 25.467492 62 18.396484 C 61.99622 9.3858823 55.077763 2 46.498047 2 C 38.113732 2 33.094551 5.7696604 32 6.6796875 C 30.905449 5.7696604 25.886268 2 17.501953 2 z M 31.996094 13 C 32.539195 13.000155 33 13.424803 33 13.996094 L 33 22.996094 L 33 24 C 33 25.333659 35 25.333659 35 24 L 35 16.998047 C 35 16.42676 35.452144 16.001953 35.996094 16.001953 C 36.540043 16.001953 37 16.42676 37 16.998047 L 37 25.996094 C 37 27.329765 39 27.329765 39 25.996094 L 39 21.003906 C 39 20.432607 39.454173 20 39.998047 20 C 40.538595 20 40.992491 20.429004 40.998047 20.996094 C 41.000069 23.357454 41 25.637501 41 28.085938 C 41 32.392927 40.036054 34.700886 39.119141 36.404297 C 38.301667 37.923057 37.339681 39.211838 37.076172 40.998047 L 27.054688 40.998047 C 27.054686 39.124229 25.652966 37.047395 24.412109 34.746094 C 23.171252 32.444815 21.998236 29.857281 21.998047 27.001953 C 21.999265 25.476483 22.005859 23.963296 22.005859 22.4375 C 22.036096 21.620789 22.671199 21 23.498047 21 C 24.346361 21 25.003906 21.6517 25.003906 22.5 L 25.003906 27.001953 C 25.004548 27.380473 25.2201 27.725563 25.558594 27.894531 C 25.558594 27.894531 29.005859 29.662764 29.005859 32.996094 C 29.032316 34.347823 30.990223 34.332486 30.998047 32.996094 C 30.998047 29.077281 27.788687 26.920559 27.003906 26.425781 C 27.005557 22.949087 27.005859 19.473776 27.005859 15.996094 C 27.005859 15.424803 27.457966 15 28.001953 15 C 28.535849 15 28.983446 15.411437 29 15.966797 L 29 23 C 29 24.333663 31 24.333663 31 23 C 31.011187 19.943436 31.000683 16.665568 31 13.996094 C 31 13.424804 31.45303 12.999845 31.996094 13 z M 19 20 C 19.544876 20.000055 20.003906 20.424803 20.003906 20.996094 L 20.003906 22.441406 C 20.003566 22.461438 19.996094 22.479972 19.996094 22.5 L 19.996094 27.001953 C 19.996358 30.396442 21.357867 33.305156 22.644531 35.691406 C 23.931234 38.077658 25.052734 39.829217 25.052734 40.998047 L 25 40.998047 C 24.443918 40.995945 23.992881 41.447828 23.996094 42.003906 L 23.996094 45 C 23.446852 45.0022 23.002192 45.446887 23 45.996094 L 23 47 L 14.056641 46.998047 C 14.056641 45.123231 12.654921 43.045431 11.414062 40.744141 C 10.173243 38.442892 9.000189 35.85728 9 33.001953 L 9 28.498047 C 8.9999622 27.649815 9.6497317 27 10.498047 27 C 11.346362 27 12.003906 27.649747 12.003906 28.498047 L 12.003906 33.001953 C 12.004586 33.380473 12.219722 33.725564 12.558594 33.894531 C 12.558594 33.894531 16.005859 35.662764 16.005859 38.996094 C 16.032316 40.347823 17.990261 40.332493 17.998047 38.996094 C 17.998047 35.077281 14.790603 32.920559 14.005859 32.425781 L 14.005859 22.996094 C 14.005859 22.424803 14.457966 22 15.001953 22 C 15.535849 22 15.983446 22.411437 16 22.966797 L 16 30 C 16 31.333659 18.001953 31.333659 18.001953 30 C 18.004402 27.664543 18.005859 25.333072 18.005859 22.996094 C 18.005859 22.982865 18.00207 22.970369 18.001953 22.957031 L 18.001953 20.996094 C 18.001953 20.424803 18.455087 19.999945 19 20 z M 43.996094 20 C 44.540081 20.000042 45 20.424803 45 20.996094 L 45 30.996094 C 45 32.329756 47 32.329756 47 30.996094 L 47 23.998047 C 47 23.426756 47.452144 23.001953 47.996094 23.001953 C 48.540043 23.001953 49 23.426756 49 23.998047 L 49 32 C 49 32.833541 49.783049 33.14588 50.369141 32.9375 C 50.720637 32.812473 51.001953 32.500122 51.001953 32 L 51.001953 27.001953 C 51.001953 26.430651 51.454173 25.998047 51.998047 25.998047 C 52.541921 25.998047 53 26.430651 53 27.001953 L 53 34.087891 C 53 38.394895 52.036054 40.7048 51.119141 42.408203 C 50.301893 43.9265 49.340021 45.214642 49.076172 47 L 40.998047 47 L 40.998047 45.996094 C 40.995847 45.446887 40.551194 45.0022 40.001953 45 L 40.001953 42.003906 C 40.00495 41.486538 39.609645 41.074792 39.107422 41.019531 C 39.358005 39.863071 40.050561 38.895831 40.882812 37.349609 C 41.963268 35.34234 43 32.692127 43 28.085938 L 43 21 C 43 20.424759 43.452144 19.999958 43.996094 20 z M 25.998047 43 L 26.042969 43 C 26.050566 43.000079 26.058847 43.000079 26.066406 43 L 38.001953 43 L 38.001953 45 L 25.998047 45 L 25.998047 43 z M 25.001953 47 L 38.998047 47 L 38.998047 60 L 25.001953 60 L 25.001953 47 z M 12.996094 49.001953 L 23 49.001953 L 23 51.001953 L 12.996094 51.001953 L 12.996094 49.001953 z M 40.998047 49.001953 L 51.001953 49.001953 L 51.001953 51.001953 L 40.998047 51.001953 L 40.998047 49.001953 z M 12 53.001953 L 23.001953 53.001953 L 23.001953 60 L 12 60 L 12 53.001953 z M 40.998047 53.001953 L 51.998047 53.001953 L 51.998047 60 L 40.998047 60 L 40.998047 53.001953 z" stroke-linecap="round" />
</g>
<g transform="matrix(NaN NaN NaN NaN 0 0)"  >
<g style=""   >
</g>
</g>
</svg>