<?xml version="1.0" encoding="UTF-8" standalone="no" ?>
<!DOCTYPE svg PUBLIC "-//W3C//DTD SVG 1.1//EN" "http://www.w3.org/Graphics/SVG/1.1/DTD/svg11.dtd">
<svg xmlns="http://www.w3.org/2000/svg" xmlns:xlink="http://www.w3.org/1999/xlink" version="1.1" width="1080" height="1080" viewBox="0 0 1080 1080" xml:space="preserve">
<desc>Created with Fabric.js 5.2.4</desc>
<defs>
</defs>
<g transform="matrix(1 0 0 1 540 540)" id="f07c9547-2c6c-403a-b7cd-ace841dc7a5d"  >
<rect style="stroke: none; stroke-width: 1; stroke-dasharray: none; stroke-linecap: butt; stroke-dashoffset: 0; stroke-linejoin: miter; stroke-miterlimit: 4; fill: rgb(255,255,255); fill-rule: nonzero; opacity: 1; visibility: hidden;" vector-effect="non-scaling-stroke"  x="-540" y="-540" rx="0" ry="0" width="1080" height="1080" />
</g>
<g transform="matrix(1 0 0 1 540 540)" id="0e3e2941-0290-4819-b70a-93589070b663"  >
</g>
<g transform="matrix(22.93 0 0 22.93 541.23 536.82)" id="df373dbf-6c7d-4328-8206-153b3498053a"  >
<path style="stroke: rgb(255,255,255); stroke-width: 0; stroke-dasharray: none; stroke-linecap: butt; stroke-dashoffset: 0; stroke-linejoin: miter; stroke-miterlimit: 4; fill: rgb(255,255,255); fill-rule: nonzero; opacity: 1;" vector-effect="non-scaling-stroke"  transform=" translate(-25, -24.99)" d="M 47.74 22 L 2.26 22 L 5.61 11.12 C 5.991761783982568 9.855835759760279 7.159466725064692 8.993280193525399 8.48 9 L 15.05 9 C 15.020000000000001 9.33 15 9.66 15 10 C 14.998112408793357 12.165621757619052 15.70393123343906 14.27254362223309 17.01 16.000000000000004 L 16 16 C 15.447715250169207 16 15 16.447715250169207 15 17 C 15 17.552284749830793 15.447715250169207 18 16 18 L 34 18 C 34.5522847498308 18 35 17.552284749830793 35 17 C 35 16.447715250169207 34.5522847498308 16 34 16 L 32.99 16 C 34.29606876656094 14.272543622233089 35.00188759120664 12.165621757619048 35 9.999999999999996 C 35 9.66 34.98 9.33 34.95 9 L 41.52 9 C 42.8405408428472 8.993257012297398 44.008258148374466 9.855821711850647 44.39 11.120000000000001 Z M 28.61475 29 C 27.523105708089453 28.997600326634974 26.476011376588684 29.43268456573987 25.707520000000002 30.208 C 25.31038015801086 30.58297636711078 24.689659841989144 30.58297636711078 24.292520000000003 30.208 C 23.524018873802113 29.43267468250785 22.47690815115105 28.997589618869977 21.38525 29 C 19.111323427835682 29.0062254261898 17.27161249458535 30.852065299397218 17.272949999999998 33.126 C 17.272949999999998 37.511739999999996 23.209469999999996 41.668 24.99995 42.822289999999995 C 26.79048 41.667989999999996 32.72695 37.511739999999996 32.72695 33.126 C 32.72828763415517 30.852104227186334 30.88863749296614 29.006280463131585 28.61475 29 Z M 38 29 C 37.99993101130628 29.26523763319659 38.10526569735561 29.51963163183766 38.292817032758975 29.707182967241025 C 38.48036836816234 29.894734302644387 38.73476236680341 30.00006898869372 39 30 L 48 30 L 48 35 L 39 35 C 38.4477152501692 35 38 35.4477152501692 38 36 C 38 36.5522847498308 38.4477152501692 37 39 37 L 48 37 L 48 42 L 39 42 C 38.4477152501692 42 38 42.4477152501692 38 43 C 38 43.5522847498308 38.4477152501692 44 39 44 L 48 44 L 48 45 C 47.99819228834681 46.65610489287288 46.65610489287288 47.9981922883468 45 48 L 5 48 C 3.3438951071271203 47.9981922883468 2.001807711653196 46.65610489287288 2 45 L 2 44 L 11 44 C 11.552284749830793 44 12 43.5522847498308 12 43 C 12 42.4477152501692 11.552284749830793 42 11 42 L 2 42 L 2 37 L 11 37 C 11.552284749830793 37 12 36.5522847498308 12 36 C 12 35.4477152501692 11.552284749830793 35 11 35 L 2 35 L 2 30 L 11 30 C 11.552284749830793 30 12 29.552284749830793 12 29 C 12 28.447715250169207 11.552284749830793 28 11 28 L 2 28 L 2 24 L 48 24 L 48 28 L 39 28 C 38.73476236680341 27.99993101130628 38.48036836816234 28.105265697355613 38.292817032758975 28.292817032758975 C 38.10526569735561 28.48036836816234 37.99993101130628 28.73476236680341 38 29 Z M 34.727 33.126 C 34.726903981821934 29.748109293930288 31.99263196241797 27.007686308799002 28.614750000000004 27 C 27.313884940073144 26.996403482579662 26.04643110527758 27.411753863403725 25 28.18457 C 23.953568894722416 27.411753863403725 22.686115059926856 26.996403482579662 21.38525 27 C 18.007348502366572 27.007658783686114 15.273046081352788 29.74808982128741 15.272949999999996 33.126 C 15.272949999999998 39.41115 24.119629999999997 44.644549999999995 24.49609 44.864279999999994 C 24.808527925755147 45.04199085303734 25.19147207424485 45.04199085303734 25.503909999999998 44.864279999999994 C 25.88049 44.64446 34.72705 39.41109 34.72705 33.126 Z M 17 10 C 16.992806089957302 6.31205082707198 19.50765585098958 3.0970626792948863 23.08882927280876 2.2160304566730105 C 26.670002694627946 1.3349982340511346 30.389413776822774 3.0162475649231375 32.094082559025466 6.286587791478436 C 33.798751341228154 9.556928018033734 33.04690105204271 13.5688277243528 30.273740000000007 15.999999999999993 L 19.72626 16 C 17.99505603198318 14.486524996309761 17.00132011543657 12.299493862346145 16.999999999999996 10 Z M 24 7 C 23.99993101130628 7.265237633196592 24.105265697355613 7.519631631837662 24.292817032758975 7.7071829672410255 C 24.48036836816234 7.894734302644388 24.73476236680341 8.000068988693721 25 8 C 26.10404635337135 8.001261966884739 26.99873803311526 8.895953646628652 27 10 C 27 10.552284749830793 27.447715250169207 11 28 11 C 28.552284749830793 11 29 10.552284749830793 29 10 C 28.997646551984737 7.7918365654244495 27.208163434575553 6.002353448015263 25 6 C 24.73476236680341 5.999931011306279 24.48036836816234 6.105265697355612 24.292817032758975 6.2928170327589745 C 24.105265697355613 6.480368368162338 23.99993101130628 6.734762366803408 24 7 Z M 21 10 C 21.002353448015263 12.20816343457555 22.79183656542445 13.997646551984737 25 14 C 25.552284749830793 14 26 13.552284749830793 26 13 C 26 12.447715250169207 25.552284749830793 12 25 12 C 23.89595364662865 11.998738033115261 23.00126196688474 11.104046353371348 23 10 C 23 9.447715250169207 22.552284749830793 9 22 9 C 21.447715250169207 9 21 9.447715250169207 21 10 Z" stroke-linecap="round" />
</g>
</svg>