<?xml version="1.0" encoding="utf-8"?>
<!-- Generator: Adobe Illustrator 27.6.1, SVG Export Plug-In . SVG Version: 6.00 Build 0)  -->
<svg version="1.1" xmlns="http://www.w3.org/2000/svg" xmlns:xlink="http://www.w3.org/1999/xlink" x="0px" y="0px"
	 viewBox="0 0 1080 368" style="enable-background:new 0 0 1080 368;" xml:space="preserve">
<style type="text/css">
	.st0{fill:#5FA5CC;}
	.st1{clip-path:url(#SVGID_00000116200662784285596830000001135125100796437634_);}
	.st2{opacity:0.8;fill:#5FA5CC;}
	.st3{clip-path:url(#SVGID_00000060731482607474405830000005499921681028500408_);fill:#EAAE04;}
	.st4{clip-path:url(#SVGID_00000060731482607474405830000005499921681028500408_);fill:#CE2280;}
	
		.st5{clip-path:url(#SVGID_00000060731482607474405830000005499921681028500408_);fill:none;stroke:#FFFFFF;stroke-width:2;stroke-linecap:round;stroke-linejoin:round;stroke-miterlimit:10;}
	.st6{fill:#AFB511;}
	.st7{opacity:0.69;fill:#AFB511;}
	.st8{clip-path:url(#SVGID_00000147218085746540122850000015271899601430497982_);}
	
		.st9{clip-path:url(#SVGID_00000132051120879471896150000009016860842723112375_);fill:url(#SVGID_00000012449256936282554730000011583024272177515396_);}
	.st10{clip-path:url(#SVGID_00000132051120879471896150000009016860842723112375_);}
	.st11{fill:#F6F9EF;}
	.st12{fill:#FFFFFF;}
	.st13{fill:url(#SVGID_00000146495600632632281660000014455058013653780653_);}
	.st14{fill:url(#SVGID_00000081620837923169792980000018056793912497634434_);}
	.st15{fill:url(#SVGID_00000102521052768846371870000007248142846815310519_);}
	.st16{fill:url(#SVGID_00000134962603684315172330000003411838470544543645_);}
	.st17{fill:url(#SVGID_00000007399527416631299190000010752116142458606767_);}
	.st18{fill:url(#SVGID_00000017497996914413826870000008342297246940872577_);}
	.st19{fill:#DEDFE0;}
	.st20{fill:#E5E5E6;}
	.st21{opacity:0.4;fill:#E5E5E6;}
	.st22{opacity:0.3;fill:#9A9C9E;}
	.st23{fill:#C6C7C9;}
	.st24{fill:#616264;}
	.st25{fill:#223D5F;}
	.st26{fill:#7CC6F2;}
	.st27{fill:#B5B7B8;}
	.st28{fill:#BFC1C2;}
	.st29{opacity:0.4;fill:#BFC1C2;}
	.st30{fill:#202022;}
	.st31{opacity:0.4;fill:#ABACAF;}
	.st32{opacity:0.4;}
	.st33{fill:#ABACAF;}
	.st34{opacity:0.5;fill:#ABACAF;}
	.st35{fill:#8AA1BE;}
	.st36{fill:#1F1D1E;}
	.st37{fill:#B6B8B9;}
	.st38{fill:#323334;}
	.st39{fill:#252425;}
	.st40{opacity:0.54;fill:#A1A3A5;}
	.st41{fill:#8D8F92;}
	.st42{fill:#B4B6B7;}
	.st43{fill:#9DA0A0;}
	.st44{fill:#66686A;}
	.st45{fill:#414345;}
	.st46{clip-path:url(#SVGID_00000039122999573400263410000009818015065549312169_);}
	.st47{fill:url(#SVGID_00000123403869766956680550000012125015775547253150_);}
	.st48{opacity:0.81;fill:url(#SVGID_00000096056869464811564340000005235853866438827411_);}
	.st49{fill:none;stroke:#FFFFFF;stroke-width:7;stroke-miterlimit:10;}
	.st50{fill:#76CEC6;}
	.st51{fill:#D3FAED;}
	.st52{opacity:0.83;}
	.st53{fill:none;stroke:#FFFFFF;stroke-width:2;stroke-linecap:round;stroke-linejoin:round;stroke-miterlimit:10;}
	.st54{fill:#5F6F3C;}
	.st55{fill:#47532E;}
	.st56{fill:#89A256;}
	.st57{fill:#B8D878;}
	.st58{fill:#9EBA68;}
	.st59{fill:#A7C46D;}
	.st60{fill:#73844B;}
	.st61{fill:#427288;}
	.st62{fill:#305160;}
	.st63{fill:#C27545;}
	.st64{fill:#EFF0CE;}
	.st65{fill:#A2563A;}
	.st66{fill:#699FB6;}
	.st67{fill:#6192A7;}
	.st68{fill:#DC9041;}
	.st69{fill:#4B809A;}
	.st70{fill:#417086;}
	.st71{fill:#E2B045;}
	.st72{fill:#765B1D;}
	.st73{fill:#98B53F;}
	.st74{fill:#809635;}
	.st75{fill:#885282;}
	.st76{fill:#A6629D;}
	.st77{fill:#A8539E;}
	.st78{fill:#CA62BE;}
	.st79{fill:#D199CD;}
	.st80{fill:#D7B5D6;}
	.st81{fill:#B06FAA;}
	.st82{fill:#CE97CB;}
	.st83{clip-path:url(#SVGID_00000083789255192484301350000008160990657619597469_);}
	.st84{fill:#E0BE50;}
	.st85{fill:#F2F3CF;}
	.st86{opacity:0.5;fill:#E0BE50;}
	.st87{fill:#CE2280;}
	.st88{opacity:0.87;fill:#FFFFFF;}
	.st89{fill:#ACA9A3;}
	.st90{fill:#333333;}
	.st91{fill:#AEB42B;}
	.st92{fill:#E7AB29;}
	.st93{fill:#CD227E;}
	.st94{fill:#5FA6CD;}
	.st95{fill:#5B5856;}
</style>
<g id="Capa_3">
	<g>
		<defs>
			<rect id="SVGID_00000012444306536482376030000017677154103997824148_" x="-3.5" y="-5" width="1087" height="378"/>
		</defs>
		<clipPath id="SVGID_00000055700137041335561550000016509237618917736071_">
			<use xlink:href="#SVGID_00000012444306536482376030000017677154103997824148_"  style="overflow:visible;"/>
		</clipPath>
		<g style="clip-path:url(#SVGID_00000055700137041335561550000016509237618917736071_);">
			<g>
				<g>
					<g>
						<defs>
							<path id="SVGID_00000164501744286119993340000010218580543010833599_" d="M1113.4,53.7c-3.5-1.8-7.2-3.3-11-4.4
								c-18.1-5.5-37.7-3.9-56.1,0.2c-43.4,9.6-83.1,28-124.7,43c-7.1,2.6-14.3,5-21.7,6.8c8.6-10,18.2-19.2,27.5-28.5
								c13-13,26-26,38.2-39.7c9.2-10.4,18.1-21.2,25.6-32.9c4.6-6.3,9-12.8,13.2-19.4c14.3-22.7,27.2-48.2,33-74.6
								c15.3-69.9-49.3-111.7-110.4-121.7c-54.1-8.8-110.9,0.8-164.1,11.6c-65.5,13.4-129.3,34.1-190.9,59.8
								C390.5-70.4,211.6,39.2,84.2,191.1c-30,35.8-63.8,79.1-75.5,125.2c-5.4,21.2-3.9,45.1,8.9,62.8c14.6,20.1,39.6,26,62.9,29.2
								c30.2,4.1,60.9,0.4,90.1-7.6c61.8-16.8,117-50.6,174.6-77.5c11.6-5.4,23.4-10.6,35.4-15.2c-29.4,29.2-60.4,56.8-85.9,89.7
								c-23.7,30.6-49.8,73.9-31.7,113.3c24.4,53.3,92.5,57.4,143.4,56.6c63.3-1.1,125.6-17,185.1-37.6
								c174.5-60.5,333.6-160.3,462.2-292.9c33.9-35,90.6-88.7,89.2-141.5C1142.5,76.8,1129.6,61.9,1113.4,53.7z"/>
						</defs>
						<clipPath id="SVGID_00000143582221450405524620000016953536851293238185_">
							<use xlink:href="#SVGID_00000164501744286119993340000010218580543010833599_"  style="overflow:visible;"/>
						</clipPath>
						
							<linearGradient id="SVGID_00000152958915385649750200000000585879026621189311_" gradientUnits="userSpaceOnUse" x1="574.3795" y1="532.248" x2="574.3795" y2="-364.8891">
							<stop  offset="0" style="stop-color:#425E73"/>
							<stop  offset="1" style="stop-color:#2A1648"/>
						</linearGradient>
						
							<path style="clip-path:url(#SVGID_00000143582221450405524620000016953536851293238185_);fill:url(#SVGID_00000152958915385649750200000000585879026621189311_);" d="
							M1113.4,53.7c-3.5-1.8-7.2-3.3-11-4.4c-18.1-5.5-37.7-3.9-56.1,0.2c-43.4,9.6-83.1,28-124.7,43c-7.1,2.6-14.3,5-21.7,6.8
							c8.6-10,18.2-19.2,27.5-28.5c13-13,26-26,38.2-39.7c9.2-10.4,18.1-21.2,25.6-32.9c4.6-6.3,9-12.8,13.2-19.4
							c14.3-22.7,27.2-48.2,33-74.6c15.3-69.9-49.3-111.7-110.4-121.7c-54.1-8.8-110.9,0.8-164.1,11.6
							c-65.5,13.4-129.3,34.1-190.9,59.8C390.5-70.4,211.6,39.2,84.2,191.1c-30,35.8-63.8,79.1-75.5,125.2
							c-5.4,21.2-3.9,45.1,8.9,62.8c14.6,20.1,39.6,26,62.9,29.2c30.2,4.1,60.9,0.4,90.1-7.6c61.8-16.8,117-50.6,174.6-77.5
							c11.6-5.4,23.4-10.6,35.4-15.2c-29.4,29.2-60.4,56.8-85.9,89.7c-23.7,30.6-49.8,73.9-31.7,113.3
							c24.4,53.3,92.5,57.4,143.4,56.6c63.3-1.1,125.6-17,185.1-37.6c174.5-60.5,333.6-160.3,462.2-292.9
							c33.9-35,90.6-88.7,89.2-141.5C1142.5,76.8,1129.6,61.9,1113.4,53.7z"/>
						<g style="clip-path:url(#SVGID_00000143582221450405524620000016953536851293238185_);">
							<g>
								<g>
									<g>
										<path class="st11" d="M977.6,15.4c0,1-0.8,1.9-1.9,1.9c-1,0-1.9-0.8-1.9-1.9c0-1,0.8-1.9,1.9-1.9
											C976.8,13.6,977.6,14.4,977.6,15.4z"/>
									</g>
								</g>
								<g>
									<g>
										<path class="st11" d="M583,15.4c0,1-0.8,1.9-1.9,1.9c-1,0-1.9-0.8-1.9-1.9c0-1,0.8-1.9,1.9-1.9
											C582.1,13.6,583,14.4,583,15.4z"/>
									</g>
								</g>
								<g>
									<g>
										<path class="st11" d="M188.3,15.4c0,1-0.8,1.9-1.9,1.9c-1,0-1.9-0.8-1.9-1.9c0-1,0.8-1.9,1.9-1.9
											C187.5,13.6,188.3,14.4,188.3,15.4z"/>
									</g>
								</g>
							</g>
							<g>
								<g>
									<g>
										<path class="st11" d="M67.7,248.2c1,0.2,2-0.4,2.2-1.4c0.2-1-0.4-2-1.4-2.2c-1-0.2-2,0.4-2.2,1.4
											C66.1,247,66.7,248,67.7,248.2z"/>
									</g>
									<g>
										<path class="st11" d="M214.3,207.9c0,1,0.8,1.9,1.9,1.9c1,0,1.9-0.8,1.9-1.9c0-1-0.8-1.9-1.9-1.9
											C215.2,206.1,214.3,206.9,214.3,207.9z"/>
										<path class="st11" d="M151.7,187.9c0,1,0.8,1.9,1.9,1.9c1,0,1.9-0.8,1.9-1.9c0-1-0.8-1.9-1.9-1.9
											C152.5,186.1,151.7,186.9,151.7,187.9z"/>
										<path class="st11" d="M171.2,275.3c0,1,0.8,1.9,1.9,1.9c1,0,1.9-0.8,1.9-1.9c0-1-0.8-1.9-1.9-1.9
											C172,273.4,171.2,274.2,171.2,275.3z"/>
									</g>
									<g>
										<path class="st11" d="M149.2,36c1,0.2,2-0.4,2.2-1.4c0.2-1-0.4-2-1.4-2.2c-1-0.2-2,0.4-2.2,1.4
											C147.5,34.8,148.2,35.8,149.2,36z"/>
										<path class="st11" d="M115.9,92.7c1,0.2,2-0.4,2.2-1.4c0.2-1-0.4-2-1.4-2.2c-1-0.2-2,0.4-2.2,1.4
											C114.3,91.5,114.9,92.5,115.9,92.7z"/>
										<path class="st11" d="M205.4,92.9c1,0.2,2-0.4,2.2-1.4c0.2-1-0.4-2-1.4-2.2c-1-0.2-2,0.4-2.2,1.4
											C203.8,91.7,204.4,92.7,205.4,92.9z"/>
									</g>
									<g>
										<path class="st11" d="M379,146.2c0,1,0.8,1.9,1.9,1.9c1,0,1.9-0.8,1.9-1.9c0-1-0.8-1.9-1.9-1.9
											C379.9,144.4,379,145.2,379,146.2z"/>
										<path class="st11" d="M316.4,126.3c0,1,0.8,1.9,1.9,1.9c1,0,1.9-0.8,1.9-1.9c0-1-0.8-1.9-1.9-1.9
											C317.2,124.4,316.4,125.2,316.4,126.3z"/>
										<path class="st11" d="M335.9,213.6c0,1,0.8,1.9,1.9,1.9c1,0,1.9-0.8,1.9-1.9c0-1-0.8-1.9-1.9-1.9
											C336.7,211.7,335.9,212.6,335.9,213.6z"/>
									</g>
								</g>
								<g>
									<g>
										<path class="st11" d="M372.8,247.8c1,0.2,2-0.4,2.2-1.4c0.2-1-0.4-2-1.4-2.2c-1-0.2-2,0.4-2.2,1.4
											C371.2,246.5,371.8,247.5,372.8,247.8z"/>
										<path class="st11" d="M462.3,248.2c1,0.2,2-0.4,2.2-1.4c0.2-1-0.4-2-1.4-2.2c-1-0.2-2,0.4-2.2,1.4
											C460.7,247,461.3,248,462.3,248.2z"/>
									</g>
									<g>
										<path class="st11" d="M608.9,207.9c0,1,0.8,1.9,1.9,1.9c1,0,1.9-0.8,1.9-1.9c0-1-0.8-1.9-1.9-1.9
											C609.8,206.1,608.9,206.9,608.9,207.9z"/>
										<path class="st11" d="M546.3,187.9c0,1,0.8,1.9,1.9,1.9c1,0,1.9-0.8,1.9-1.9c0-1-0.8-1.9-1.9-1.9
											C547.1,186.1,546.3,186.9,546.3,187.9z"/>
										<path class="st11" d="M565.8,275.3c0,1,0.8,1.9,1.9,1.9c1,0,1.9-0.8,1.9-1.9c0-1-0.8-1.9-1.9-1.9
											C566.6,273.4,565.8,274.2,565.8,275.3z"/>
									</g>
									<g>
										<path class="st11" d="M543.8,36c1,0.2,2-0.4,2.2-1.4c0.2-1-0.4-2-1.4-2.2c-1-0.2-2,0.4-2.2,1.4
											C542.2,34.8,542.8,35.8,543.8,36z"/>
										<path class="st11" d="M510.5,92.7c1,0.2,2-0.4,2.2-1.4c0.2-1-0.4-2-1.4-2.2c-1-0.2-2,0.4-2.2,1.4
											C508.9,91.5,509.5,92.5,510.5,92.7z"/>
										<path class="st11" d="M600,92.9c1,0.2,2-0.4,2.2-1.4c0.2-1-0.4-2-1.4-2.2c-1-0.2-2,0.4-2.2,1.4
											C598.4,91.7,599,92.7,600,92.9z"/>
									</g>
									<g>
										<path class="st11" d="M773.7,146.2c0,1,0.8,1.9,1.9,1.9c1,0,1.9-0.8,1.9-1.9c0-1-0.8-1.9-1.9-1.9
											C774.5,144.4,773.7,145.2,773.7,146.2z"/>
										<path class="st11" d="M711,126.3c0,1,0.8,1.9,1.9,1.9c1,0,1.9-0.8,1.9-1.9c0-1-0.8-1.9-1.9-1.9
											C711.8,124.4,711,125.2,711,126.3z"/>
										<path class="st11" d="M730.5,213.6c0,1,0.8,1.9,1.9,1.9c1,0,1.9-0.8,1.9-1.9c0-1-0.8-1.9-1.9-1.9
											C731.3,211.7,730.5,212.6,730.5,213.6z"/>
									</g>
								</g>
								<g>
									<g>
										<path class="st11" d="M767.5,247.8c1,0.2,2-0.4,2.2-1.4c0.2-1-0.4-2-1.4-2.2c-1-0.2-2,0.4-2.2,1.4
											C765.8,246.5,766.5,247.5,767.5,247.8z"/>
										<path class="st11" d="M856.9,248.2c1,0.2,2-0.4,2.2-1.4c0.2-1-0.4-2-1.4-2.2c-1-0.2-2,0.4-2.2,1.4
											C855.3,247,855.9,248,856.9,248.2z"/>
									</g>
									<g>
										<path class="st11" d="M1003.6,207.9c0,1,0.8,1.9,1.9,1.9c1,0,1.9-0.8,1.9-1.9c0-1-0.8-1.9-1.9-1.9
											C1004.4,206.1,1003.6,206.9,1003.6,207.9z"/>
										<path class="st11" d="M940.9,187.9c0,1,0.8,1.9,1.9,1.9c1,0,1.9-0.8,1.9-1.9c0-1-0.8-1.9-1.9-1.9
											C941.7,186.1,940.9,186.9,940.9,187.9z"/>
										<path class="st11" d="M960.4,275.3c0,1,0.8,1.9,1.9,1.9c1,0,1.9-0.8,1.9-1.9c0-1-0.8-1.9-1.9-1.9
											C961.2,273.4,960.4,274.2,960.4,275.3z"/>
									</g>
									<g>
										<path class="st11" d="M938.4,36c1,0.2,2-0.4,2.2-1.4c0.2-1-0.4-2-1.4-2.2c-1-0.2-2,0.4-2.2,1.4
											C936.8,34.8,937.4,35.8,938.4,36z"/>
										<path class="st11" d="M905.2,92.7c1,0.2,2-0.4,2.2-1.4c0.2-1-0.4-2-1.4-2.2c-1-0.2-2,0.4-2.2,1.4
											C903.5,91.5,904.2,92.5,905.2,92.7z"/>
										<path class="st11" d="M994.6,92.9c1,0.2,2-0.4,2.2-1.4c0.2-1-0.4-2-1.4-2.2c-1-0.2-2,0.4-2.2,1.4
											C993,91.7,993.6,92.7,994.6,92.9z"/>
									</g>
								</g>
							</g>
							<g>
								<g>
									<g>
										<path class="st11" d="M999.6,305.6c-1,0.2-2-0.4-2.2-1.4c-0.2-1,0.4-2,1.4-2.2c1-0.2,2,0.4,2.2,1.4
											C1001.2,304.4,1000.6,305.4,999.6,305.6z"/>
										<path class="st11" d="M1032.8,362.3c-1,0.2-2-0.4-2.2-1.4c-0.2-1,0.4-2,1.4-2.2c1-0.2,2,0.4,2.2,1.4
											C1034.5,361.1,1033.9,362.1,1032.8,362.3z"/>
										<path class="st11" d="M943.4,362.5c-1,0.2-2-0.4-2.2-1.4c-0.2-1,0.4-2,1.4-2.2c1-0.2,2,0.4,2.2,1.4
											C945,361.3,944.4,362.3,943.4,362.5z"/>
									</g>
								</g>
								<g>
									<g>
										<path class="st11" d="M605,305.6c-1,0.2-2-0.4-2.2-1.4c-0.2-1,0.4-2,1.4-2.2c1-0.2,2,0.4,2.2,1.4
											C606.6,304.4,606,305.4,605,305.6z"/>
										<path class="st11" d="M638.2,362.3c-1,0.2-2-0.4-2.2-1.4c-0.2-1,0.4-2,1.4-2.2c1-0.2,2,0.4,2.2,1.4
											C639.9,361.1,639.2,362.1,638.2,362.3z"/>
										<path class="st11" d="M548.7,362.5c-1,0.2-2-0.4-2.2-1.4c-0.2-1,0.4-2,1.4-2.2c1-0.2,2,0.4,2.2,1.4
											C550.4,361.3,549.7,362.3,548.7,362.5z"/>
									</g>
								</g>
								<g>
									<g>
										<path class="st11" d="M210.3,305.6c-1,0.2-2-0.4-2.2-1.4c-0.2-1,0.4-2,1.4-2.2c1-0.2,2,0.4,2.2,1.4
											C212,304.4,211.3,305.4,210.3,305.6z"/>
										<path class="st11" d="M243.6,362.3c-1,0.2-2-0.4-2.2-1.4c-0.2-1,0.4-2,1.4-2.2c1-0.2,2,0.4,2.2,1.4
											C245.2,361.1,244.6,362.1,243.6,362.3z"/>
										<path class="st11" d="M154.1,362.5c-1,0.2-2-0.4-2.2-1.4c-0.2-1,0.4-2,1.4-2.2c1-0.2,2,0.4,2.2,1.4
											C155.7,361.3,155.1,362.3,154.1,362.5z"/>
									</g>
								</g>
							</g>
						</g>
					</g>
					<path class="st12" d="M824.4,30c-4,0-7.8,0.8-11.3,2.2c1.4-0.3,2.9-0.4,4.4-0.4c14,0,25.3,11.3,25.3,25.3
						c0,14-11.3,25.3-25.3,25.3c-8,0-15.2-3.7-19.8-9.6c4.9,9.9,15,16.7,26.7,16.7c16.4,0,29.8-13.3,29.8-29.8S840.9,30,824.4,30z"
						/>
					<g>
						<g>
							
								<linearGradient id="SVGID_00000018947861669715937270000008091921720485741191_" gradientUnits="userSpaceOnUse" x1="1029.4871" y1="211.5013" x2="885.3234" y2="314.7995">
								<stop  offset="0" style="stop-color:#080C1B"/>
								<stop  offset="0.1708" style="stop-color:#172331"/>
								<stop  offset="0.3561" style="stop-color:#233543"/>
								<stop  offset="0.4897" style="stop-color:#273B49"/>
								<stop  offset="0.8948" style="stop-color:#2A1648"/>
								<stop  offset="1" style="stop-color:#2A1648"/>
							</linearGradient>
							<path style="fill:url(#SVGID_00000018947861669715937270000008091921720485741191_);" d="M1021.6,230.2l-147.9,80
								c0,0-5.3,3.7-1.3,9.5c0,0,2.8,3.6,9.2-0.5C888,315,1021.6,230.2,1021.6,230.2z"/>
							
								<linearGradient id="SVGID_00000116937272922128327470000003326646425644640957_" gradientUnits="userSpaceOnUse" x1="875.0161" y1="316.2464" x2="891.916" y2="305.6524">
								<stop  offset="0" style="stop-color:#FFFFFF"/>
								<stop  offset="1.223028e-02" style="stop-color:#FBFBFC"/>
								<stop  offset="0.2173" style="stop-color:#BBC2C6"/>
								<stop  offset="0.4132" style="stop-color:#869299"/>
								<stop  offset="0.5945" style="stop-color:#5D6C77"/>
								<stop  offset="0.7584" style="stop-color:#3F515E"/>
								<stop  offset="0.899" style="stop-color:#2D414E"/>
								<stop  offset="1" style="stop-color:#273B49"/>
							</linearGradient>
							<path style="fill:url(#SVGID_00000116937272922128327470000003326646425644640957_);" d="M892.6,303.7
								c-1.9,0.7-3.9,1.3-5.7,2.1c-0.9,0.4-1.8,0.8-2.7,1.2c-0.6,0.3-1.2,0.6-1.7,0.9c0.9-0.7,2.1-1.2,3.2-1.8c0,0,0,0,0,0l0,0
								c0,0,0,0,0.1,0c0.2-0.1,0.1-0.4-0.2-0.3c-2.3,0.8-4.6,1.5-6.8,2.5c-1.1,0.5-2.4,1.1-3.4,1.9c-0.7,0.4-1.4,1-1.9,1.6
								c-1.1,1.3-1.6,2.8-1.4,4.5c0.3,1.7,1.3,3.4,3,4c1,0.3,2.1,0.2,3-0.2c0.8-0.3,1.6-0.7,2.4-1.2c0.4-0.2,0.8-0.5,1.2-0.8
								c1-0.7,1.9-1.6,2.8-2.5c0.9-0.9,1.7-2,2.5-2.9c0.7-0.8,1.6-1.7,1.9-2.7c0-0.1,0-0.3-0.2-0.3c-0.6,0-1.1,0.2-1.6,0.5
								c0.5-0.4,0.9-0.8,1.4-1.2c0.6-0.5,1.3-1.1,1.8-1.8c0.1-0.1,0-0.3-0.1-0.3c-0.6,0-1.1,0.4-1.7,0.7c-0.7,0.3-1.4,0.7-2.1,1
								c-0.3,0.2-0.7,0.4-1,0.6c0.8-0.6,1.6-1.2,2.4-1.8c0.8-0.6,1.7-1.2,2.6-1.8c0.4-0.3,0.9-0.6,1.3-0.8c0.4-0.2,0.8-0.4,1.1-0.7
								C893.1,303.9,892.9,303.6,892.6,303.7z"/>
						</g>
						
							<linearGradient id="SVGID_00000107583478583431649860000012037568754336070030_" gradientUnits="userSpaceOnUse" x1="896.6611" y1="293.2644" x2="902.9036" y2="302.1551">
							<stop  offset="0" style="stop-color:#080C1B"/>
							<stop  offset="0.1708" style="stop-color:#172331"/>
							<stop  offset="0.3561" style="stop-color:#233543"/>
							<stop  offset="0.4897" style="stop-color:#273B49"/>
							<stop  offset="0.8948" style="stop-color:#2A1648"/>
							<stop  offset="1" style="stop-color:#2A1648"/>
						</linearGradient>
						<path style="fill:url(#SVGID_00000107583478583431649860000012037568754336070030_);" d="M911.9,291.3
							c0,0-34.8,16.6-38.4,20.4c-3.7,3.8-1.7,10.6,7,7.1c8.7-3.5,45.8-31.2,45.8-31.2l-16.3,9.5l20.9-14.5l-19.2,11.1
							c0,0,9.7-7.2,9.3-7.1C920.7,286.7,911.9,291.3,911.9,291.3z"/>
					</g>
					<g>
						<g>
							
								<linearGradient id="SVGID_00000166637448898208775020000004883407397422567590_" gradientUnits="userSpaceOnUse" x1="434.4706" y1="-52.9119" x2="330.3758" y2="21.6756">
								<stop  offset="0" style="stop-color:#080C1B"/>
								<stop  offset="0.1708" style="stop-color:#172331"/>
								<stop  offset="0.3561" style="stop-color:#233543"/>
								<stop  offset="0.4897" style="stop-color:#273B49"/>
								<stop  offset="0.8948" style="stop-color:#2A1648"/>
								<stop  offset="1" style="stop-color:#2A1648"/>
							</linearGradient>
							<path style="fill:url(#SVGID_00000166637448898208775020000004883407397422567590_);" d="M428.8-39.4L321.9,18.3
								c0,0-3.9,2.6-0.9,6.9c0,0,2,2.6,6.7-0.4C332.3,21.8,428.8-39.4,428.8-39.4z"/>
							
								<linearGradient id="SVGID_00000037669525072391783200000014667789848373114264_" gradientUnits="userSpaceOnUse" x1="322.9323" y1="22.7232" x2="335.1354" y2="15.0734">
								<stop  offset="0" style="stop-color:#FFFFFF"/>
								<stop  offset="1.223028e-02" style="stop-color:#FBFBFC"/>
								<stop  offset="0.2173" style="stop-color:#BBC2C6"/>
								<stop  offset="0.4132" style="stop-color:#869299"/>
								<stop  offset="0.5945" style="stop-color:#5D6C77"/>
								<stop  offset="0.7584" style="stop-color:#3F515E"/>
								<stop  offset="0.899" style="stop-color:#2D414E"/>
								<stop  offset="1" style="stop-color:#273B49"/>
							</linearGradient>
							<path style="fill:url(#SVGID_00000037669525072391783200000014667789848373114264_);" d="M335.7,13.7
								c-1.4,0.5-2.8,0.9-4.1,1.5c-0.7,0.3-1.3,0.6-2,0.9c-0.4,0.2-0.8,0.4-1.2,0.6c0.7-0.5,1.5-0.9,2.3-1.3h0l0,0c0,0,0,0,0,0
								c0.2-0.1,0.1-0.3-0.1-0.2c-1.7,0.5-3.3,1.1-4.9,1.8c-0.8,0.4-1.7,0.8-2.4,1.4c-0.5,0.3-1,0.7-1.4,1.1c-0.8,0.9-1.2,2-1,3.2
								c0.2,1.2,1,2.5,2.2,2.9c0.7,0.2,1.5,0.1,2.2-0.1c0.6-0.2,1.2-0.5,1.7-0.8c0.3-0.2,0.6-0.4,0.8-0.6c0.7-0.5,1.4-1.2,2-1.8
								c0.7-0.7,1.2-1.4,1.8-2.1c0.5-0.6,1.1-1.2,1.4-2c0-0.1,0-0.2-0.1-0.2c-0.4,0-0.8,0.2-1.2,0.4c0.3-0.3,0.7-0.6,1-0.9
								c0.4-0.4,1-0.8,1.3-1.3c0.1-0.1,0-0.2-0.1-0.2c-0.4,0-0.8,0.3-1.2,0.5c-0.5,0.3-1,0.5-1.5,0.8c-0.2,0.1-0.5,0.3-0.7,0.4
								c0.6-0.4,1.2-0.9,1.8-1.3c0.6-0.4,1.2-0.9,1.9-1.3c0.3-0.2,0.6-0.4,1-0.6c0.3-0.1,0.5-0.3,0.8-0.5
								C336,13.8,335.8,13.6,335.7,13.7z"/>
						</g>
						
							<linearGradient id="SVGID_00000165925170600753420430000014762426869268097449_" gradientUnits="userSpaceOnUse" x1="338.562" y1="6.1273" x2="343.0705" y2="12.5484">
							<stop  offset="0" style="stop-color:#080C1B"/>
							<stop  offset="0.1708" style="stop-color:#172331"/>
							<stop  offset="0.3561" style="stop-color:#233543"/>
							<stop  offset="0.4897" style="stop-color:#273B49"/>
							<stop  offset="0.8948" style="stop-color:#2A1648"/>
							<stop  offset="1" style="stop-color:#2A1648"/>
						</linearGradient>
						<path style="fill:url(#SVGID_00000165925170600753420430000014762426869268097449_);" d="M349.5,4.7c0,0-25.1,12-27.8,14.7
							c-2.7,2.7-1.2,7.7,5.1,5.2c6.3-2.5,33.1-22.5,33.1-22.5l-11.7,6.9l15.1-10.5l-13.8,8c0,0,7-5.2,6.7-5.1
							C355.9,1.4,349.5,4.7,349.5,4.7z"/>
					</g>
				</g>
			</g>
			<g>
				<g>
					<g>
						<path class="st19" d="M332.9,152.7c0,62.9-51,113.9-113.9,113.9c-62.9,0-113.9-51-113.9-113.9c0-62.9,51-113.9,113.9-113.9
							C281.9,38.9,332.9,89.9,332.9,152.7z"/>
						<path class="st20" d="M332.9,152.7c0,62.9-51,113.9-113.9,113.9c-62.9,0-113.9-51-113.9-113.9c0-62.9,51-113.9,113.9-113.9
							C281.9,38.9,332.9,89.9,332.9,152.7z"/>
						<path class="st21" d="M159,65.8c-16.7,11.2-28.7,28.6-36,47.1c-2,5-3.6,10.1-5.1,15.3c-1.7,6-3.2,12-4.2,18.2
							c-0.2,1.2-0.4,2.5-0.5,3.7c0.7,1.1,1.5,2.3,2.4,3.3c5.8,7.2,13.7,12.6,22.2,16.3c3.5,1.6,7.3,2.9,11.2,3.7
							c-2.9-21.6-1.6-43.9,3.1-65.1c4.3-19.4,12.5-39.2,28.4-52C172.8,58.1,165.5,61.4,159,65.8z"/>
						<path class="st22" d="M219,38.9c-18.4,0-35.7,4.4-51.1,12.1c13.6,1,26.8,6.9,37.6,15.2c14.5,11.1,25.9,26.6,32,43.9
							c3,8.4,4.8,17.2,4.6,26.1c-0.2,10.9-2.4,22.2-8.4,31.5c-2.4,3.7-5.4,6.9-9.1,9.5c-3.7,2.5-7.8,4.4-12,5.7
							c-8.8,2.8-18.1,3.8-27.2,4.3c-17.3,1-35.5,2.9-51.9-3.9c-7.7-3.2-14.2-8.6-18.2-16c-4.1-7.5-6.2-16-7.4-24.4
							c-0.5-3.7-0.8-7.5-1-11.3c-1.3,6.9-2,13.9-2,21.2c0,62.9,51,113.9,113.9,113.9c62.9,0,113.9-51,113.9-113.9
							C332.9,89.9,281.9,38.9,219,38.9z"/>
						<path class="st20" d="M300.8,123.2c-35.5-2.3-71.3-1.1-106.7,2.2c-18.9,1.7-37.8,4.2-56.4,7.5c-6.9,1.2-13.5,3.4-20.3,5.4
							c-3.7,1.1-7.7,2.3-11.7,3c-0.1,0.5-0.1,1.1-0.2,1.6c20-6.6,41.1-9.5,61.9-11.8c38.7-4.3,77.7-5.9,116.6-2.5
							c15.8,1.4,31.6,3.2,47.3,5.3c-0.4-2.7-1-5.3-1.6-7.9C320.1,124.7,310.4,123.9,300.8,123.2z"/>
						<path class="st23" d="M182.4,37.1H170c0,0-7.8,1.9-15.4,10.3l4.7,8.3c0,0,19.3-14.8,48.5,8.4s45,52.1,45.7,84.4
							c0.7,32.3-23,63.2-23,63.2l16.5,0.5c0,0,25.1-30.3,22.1-69.5c-3-39.2-16.2-53.8-32.7-71.9C220,52.8,182.4,37.1,182.4,37.1z"/>
						<g>
							<path class="st24" d="M210,38.5C259.1,53,295,98.5,295,152.3c0,60.8-45.6,110.8-104.5,117.9c4.7,0.6,9.4,0.9,14.3,0.9
								c65.6,0,118.8-53.2,118.8-118.7c0-47.3-27.6-88.1-67.6-107.2c-12.4-4.4-25.8-6.8-39.7-6.8C214.1,38.3,212.1,38.4,210,38.5z"
								/>
							<path class="st25" d="M312.9,150.7c-5.7,2.4-12.6,2.4-18-0.7c0,0.8,0,1.5,0,2.3c0,60.8-45.6,110.8-104.5,117.9
								c4.7,0.6,9.4,0.9,14.3,0.9c65.6,0,118.8-53.2,118.8-118.7c0-3.9-0.2-7.8-0.6-11.6C320.8,145,317.6,148.7,312.9,150.7z"/>
							<g>
								<path class="st26" d="M158.4,264c5.8,0.9,11.8,1.3,17.8,1.3c2.1,0,4.1-0.1,6.2-0.2c-3.8-1.1-7.5-2.4-11-3.9
									C167.1,262.4,162.8,263.3,158.4,264z"/>
								<path class="st12" d="M176.2,265.5c-6,0-12-0.5-17.9-1.3L157,264l1.4-0.2c4.3-0.6,8.7-1.6,12.9-2.7l0.1,0l0.1,0
									c3.6,1.5,7.3,2.8,11,3.9l1.2,0.3l-1.2,0.1C180.3,265.5,178.3,265.5,176.2,265.5z M159.8,264c5.4,0.8,11,1.1,16.5,1.1
									c1.6,0,3.3,0,4.9-0.1c-3.3-1-6.6-2.2-9.8-3.5C167.5,262.5,163.6,263.3,159.8,264z"/>
							</g>
							<path class="st26" d="M172.6,260.9c-0.4,0.1-0.9,0.2-1.3,0.4c3.6,1.5,7.3,2.8,11,3.9c2.7-0.1,5.4-0.4,8.1-0.7
								C184.4,263.7,178.4,262.5,172.6,260.9z"/>
							<path class="st26" d="M171.3,261.3c0.4-0.1,0.9-0.2,1.3-0.4c-2.6-0.7-5.1-1.5-7.6-2.4C167.1,259.5,169.2,260.4,171.3,261.3z"
								/>
							<g>
								<path class="st20" d="M201.2,263.1c-3.6-0.1-7.2-0.4-10.7-0.8c-1.2,0.1-2.3,0.3-3.5,0.4c3.5,0.3,7.1,0.5,10.8,0.5
									C198.9,263.1,200,263.1,201.2,263.1z"/>
								<path class="st20" d="M256.5,37.4c0,0.9,0,1.9,0,2.8c42,18.3,71.4,60.2,71.4,108.9c0,64.4-51.3,116.8-115.2,118.7
									c1.2,0,2.3,0.1,3.5,0.1c65.6,0,118.8-53.2,118.8-118.7C334.9,97.6,302.2,53.9,256.5,37.4z"/>
								<path class="st22" d="M327.4,160C322,219.3,273,266,212.7,267.8c1.2,0,2.3,0.1,3.5,0.1c62.9,0,114.4-48.9,118.5-110.8
									C332.3,158.1,329.8,159,327.4,160z"/>
								<path class="st20" d="M187,262.6c-1.2-0.1-2.3-0.2-3.5-0.4c-2.7,0.3-5.4,0.6-8.1,0.7c10.7,3.2,22.1,4.9,33.8,4.9
									c1.2,0,2.3,0,3.5-0.1c-10.5-0.3-20.7-2-30.3-4.8C183.9,262.9,185.4,262.8,187,262.6z"/>
								<path class="st27" d="M327.9,149.1c0-48.8-29.4-90.6-71.4-108.9c0,1.7,0,3.5,0.1,5.2c0.1,0.1,0.3,0.2,0.4,0.3
									c33.7,17.2,65.2,57.8,65.2,100.4c0,65.6-51.9,117-117.4,117c-1.2,0-2.4,0-3.6-0.1c-1.2,0-2.3,0.1-3.5,0.1
									c-3.6,0-7.2-0.2-10.8-0.5c-1.5,0.1-3.1,0.2-4.6,0.3c9.6,2.9,19.8,4.5,30.3,4.8C276.6,265.9,327.9,213.5,327.9,149.1z"/>
							</g>
							<g>
								<g>
									<g>
										<g>
											<g>
												<path class="st28" d="M273.4,116.6c-5.6-21.5-6.4-40-1.9-41.1l71.2-18.5c-4.6,1.2-3.7,19.6,1.9,41.1
													c5.6,21.5,13.8,38,18.4,36.9l-71.2,18.5C287.2,154.7,279,138.2,273.4,116.6z"/>
												<path class="st22" d="M313.4,144.8c-1.3-2.6-2.1-5.5-2.6-8.4c-0.6-3.2-1-6.5-1.3-9.7c-0.3-3.2-0.6-6.3-1-9.5
													c-0.2-1.4-0.4-2.7-0.6-4.1c-0.3-1.6-0.8-3.2-1.2-4.9c-0.7-2.9-1.5-5.8-2.5-8.6c-0.5-1.4-1.1-2.9-1.7-4.3
													c-0.3-0.7-0.6-1.4-1-2.1c-0.3-0.6-0.6-1.2-1-1.8c-1.6-1.8-3.4-3.4-5-5.2c-1.5-1.6-2.8-3.4-3.3-5.6
													c-1-4.2,1.1-8.2,4.2-11c0.4-0.4,0.9-0.8,1.3-1.1l-26,6.7c-4.6,1.2-3.7,19.6,1.9,41.1c5.6,21.5,13.8,38,18.4,36.9l23.3-6
													C314.4,146.6,313.8,145.7,313.4,144.8z"/>
												<g>
													<path class="st29" d="M353.6,124.5c4.8,8.3,7.4,11.1,9.4,10.6l-71.2,18.5c-2,0.5-4.6-2.3-9.4-10.5L353.6,124.5z"/>
													<path class="st28" d="M339.9,70.5c0.1,2.3,0.4,4.8,0.7,7.5l-71.2,18.5c-0.3-2.7-0.6-5.2-0.7-7.5L339.9,70.5z"/>
												</g>
											</g>
											<path class="st28" d="M333.6,59.4l9.2-2.4c-4.6,1.2-3.7,19.6,1.9,41.1c5.6,21.5,13.8,38,18.4,36.9l-9.4,2.5
												c-4.9-6.1-10.8-20.3-15.2-37.4C333.7,82.5,332.1,66.8,333.6,59.4z"/>
											<path class="st28" d="M271.6,75.5l3.4-0.9c-2.7,5.5-1.6,21.8,3.2,40.3c5.3,20.3,13,36.1,18.1,37.4l-4.5,1.2
												c-4.6,1.2-12.8-15.3-18.4-36.9C267.8,95.1,267,76.7,271.6,75.5z"/>
										</g>
										<g>
											<path class="st28" d="M257.2,84.9l10.9-2.8c-3.9,1-3.2,16.9,1.6,35.6c4.8,18.6,11.9,32.9,15.9,31.9l-11.4,3
												c-4.3-6.5-9-18.2-12.6-32C257.8,105.8,256.3,92.5,257.2,84.9z"/>
										</g>
										<g>
											<g>
												<path class="st30" d="M354.4,95.7c6.1,23.6,15.1,41.7,20.2,40.4c5-1.3,4.1-21.5-2-45.1c-6.1-23.6-15.1-41.7-20.2-40.4
													C347.4,51.8,348.3,72,354.4,95.7z"/>
												<path class="st31" d="M355.7,95.3c5.2,20.2,13,35.7,17.2,34.6c4.3-1.1,3.5-18.4-1.7-38.6c-5.2-20.2-13-35.7-17.2-34.6
													C349.7,57.8,350.4,75.1,355.7,95.3z"/>
												<path class="st30" d="M341.3,53.4l11.1-2.9c-5,1.3-4.1,21.5,2,45.1c6.1,23.6,15.1,41.7,20.2,40.4l-11.1,2.9
													c-5,1.3-14-16.8-20.1-40.4C337.2,74.9,336.3,54.7,341.3,53.4z"/>
											</g>
											<g class="st32">
												<path class="st33" d="M353.9,56.7c2.9-0.7,7.3,6,11.4,16.5L352,76.7C350.5,65.4,351.1,57.4,353.9,56.7z"/>
												<path class="st34" d="M374.3,105.6c1.3,7.8,2,16,0.9,20.8l-5.9,1.5c-3-3.1-6.6-11.2-9.3-18.7L374.3,105.6z"/>
												<path class="st33" d="M375.3,112.9c0.3,2.7,0.4,5.1,0.4,7.3l-10,2.5c-1-1.9-2.1-4.1-3.2-6.6L375.3,112.9z"/>
												<path class="st31" d="M353.9,56.7c3.9-1,10.7,11.9,15.9,29.6l-15.4,3.9C350.4,72.2,350,57.7,353.9,56.7z"/>
											</g>
											<g>
												<path class="st35" d="M351.3,62.6c4,5.7,9.2,17,12.8,30.5c3.5,13.6,4.4,26,3.7,32.9c-4-5.7-8.6-17.2-12.1-30.7
													C352.2,81.8,350.7,69.5,351.3,62.6z"/>
												<path class="st35" d="M351.3,62.6c0.5,0.8,1.1,1.7,1.7,2.6c-0.1,7.2,1.5,17.9,4.5,29.6c3,11.7,6.9,21.8,10.5,28
													c0,1.1-0.1,2.2-0.2,3.1c-4-5.7-8.6-17.2-12.1-30.7C352.2,81.8,350.7,69.5,351.3,62.6z"/>
											</g>
											<g class="st32">
												<path class="st34" d="M349.2,64.6c0.1,2.1,0.3,4.3,0.5,6.7l-11.1,2.6c-0.3-2.4-0.4-4.6-0.5-6.7L349.2,64.6z"/>
												<path class="st31" d="M365.4,126.2c3.5,6.7,6.8,10.6,9.2,9.9l-11.1,2.9c-2.4,0.6-5.8-3.3-9.3-10.2L365.4,126.2z"/>
											</g>
										</g>
										<g>
											<g>
												<path class="st30" d="M263.9,75.9l8.5-2.2c-5,1.3-4.3,20.5,1.5,42.9c5.8,22.4,14.6,39.5,19.5,38.2l-8.4,2.2
													c-5,1.3-13.7-15.8-19.5-38.2C259.6,96.4,258.9,77.1,263.9,75.9z"/>
												<path class="st36" d="M272.3,73.7c0.3-0.1,1.1,0.3,1.4,1.3c-4.5,1.2-3.6,20.1,1.9,41.1c5.6,21.7,14,38,18.8,36.7
													c0.2,0.8-0.5,1.8-1,1.9c-5,1.3-13.7-15.8-19.5-38.2C268,94.2,267.3,75,272.3,73.7z"/>
											</g>
											<g class="st32">
												<g>
													<path class="st34" d="M260.9,81.3l8.4-2c-0.7,4.4-0.4,10.9,0.7,18.7l-8.5,2C260.5,92.2,260.2,85.7,260.9,81.3z"/>
												</g>
												<path class="st34" d="M260.5,86.9l8.5-2c0,2,0.1,4.3,0.3,6.7l-8.5,2C260.6,91.2,260.5,88.9,260.5,86.9z"/>
												<path class="st31" d="M284.9,146.5c3.2,5.7,6.2,8.8,8.4,8.3l-8.4,2.2c-2.3,0.6-5.3-2.6-8.5-8.4L284.9,146.5z"/>
											</g>
										</g>
									</g>
								</g>
							</g>
							<path class="st20" d="M295,146.5c0-53.8-35.8-99.3-84.9-113.9c-8.5,0.4-32.1,2.3-40,4.5c47.6,13.2,89.2,59.7,89.2,109.4
								c0,54.5-36.7,100.3-86.6,114.4c5.8,1.6,11.7,2.8,17.8,3.5C249.3,257.4,295,207.3,295,146.5z"/>
							<path class="st20" d="M284.7,161.7c-5.7-4.5-9.5-11.3-12.5-17.7c-3.9-8.3-6.1-17.1-8.9-25.7c-1.8-5.6-3.9-11.2-6.5-16.5
								c-2.6-5.2-5.8-10.1-9.3-14.8c-7.1-9.3-15.7-17.2-25.1-24.2c-4.1-3.1-8.4-5.9-12.7-8.7c-4.1-2.7-8.2-5.3-12.5-7.6
								c-4.5-2.5-9.1-4.7-14.1-6.2c-2.7-0.8-5.5-1.4-8.3-1.6c45.6,15,84.4,59.9,84.4,107.9c0,54.5-36.7,100.3-86.6,114.4
								c5.8,1.6,11.7,2.8,17.8,3.5c52.8-6.3,96.2-33.9,103.1-99.5C290.3,165.1,287.2,163.7,284.7,161.7z"/>
							<path class="st22" d="M265.4,196.4c-5.9,0.1-11.8,0.6-17.7,1.4c-14.6,30.5-41.9,53.8-75,63.1c5.8,1.6,11.7,2.8,17.8,3.5
								c43.1-5.2,79.9-24.5,95.7-67.1C279.3,196.5,272.4,196.2,265.4,196.4z"/>
						</g>
					</g>
					<path class="st19" d="M219,200.1c-54.1,0-97.9,5.4-97.9,12.2v154.4c0,6.7,43.8,12.2,97.9,12.2c54.1,0,97.9-5.5,97.9-12.2V212.3
						C316.9,205.6,273.1,200.1,219,200.1z"/>
					<g>
						<path class="st37" d="M219,211.8c-54.1,0-97.9,5.4-97.9,12.2v13c0-6.7,43.8-12.2,97.9-12.2c54.1,0,97.9,5.4,97.9,12.2v-13
							C316.9,217.3,273.1,211.8,219,211.8z"/>
					</g>
					<g>
						<path class="st24" d="M140.8,278.9V374c16.6,2.7,42.1,4.6,71.2,4.8v-99.9H140.8z"/>
					</g>
					<g>
						<path class="st24" d="M170,278.9h-29.2V374c16.6,2.7,42.1,4.6,71.2,4.8v-7.7c-16.8-0.8-31.3-2.2-42-4V278.9z"/>
						<path class="st38" d="M140.8,374c16.6,2.7,42.1,4.6,71.2,4.8v-7.7c-16.8-0.8-31.3-2.2-42-4L140.8,374z"/>
						<path class="st39" d="M170,278.9v88.3c10.7,1.8,25.2,3.2,42,4v-92.3H170z"/>
					</g>
					<g>
						<rect x="269.1" y="226.5" class="st37" width="0.8" height="150.6"/>
						<path class="st37" d="M316.9,258.7c-62.6-6.6-112.5-6.8-143.3-5.8c-33.4,1.1-52.2,3.8-52.4,3.8l-0.1-0.8
							c0.2,0,19.1-2.7,52.5-3.8c30.9-1,80.8-0.8,143.4,5.8L316.9,258.7z"/>
					</g>
					<path class="st40" d="M219,200.1c-4.2,0-8.4,0-12.4,0.1c0.1,0,0.2,0,0.3,0c7.9,0.7,16,2.1,23.2,5.6c3.3,1.6,6.3,3.7,8.7,6.5
						c2.9,3.2,12.1,9.4,13.3,13.6c2.6,9.4,0,129.5-1,152.2c38.3-1.6,65.8-6.2,65.8-11.5V212.3C316.9,205.6,273.1,200.1,219,200.1z"
						/>
					<path class="st40" d="M290.6,204v171c16.3-2.2,26.3-5.1,26.3-8.3V212.3C316.9,209.1,306.9,206.2,290.6,204z"/>
					<path class="st12" d="M122.9,274.4c0.3-4.8,0.8-9.5,1-14.3c0.2-4.5,1.9-46.4,6-48.2c17.6-7.8,118.4-10.1,131.3-10.3
						c0.8,0,1.6,0,2.5,0c-13.4-0.9-28.5-1.3-44.6-1.3c-54.1,0-97.9,5.4-97.9,12.2v87.4C121.7,291.2,122.3,282.8,122.9,274.4z"/>
				</g>
				<g>
					<g>
						<rect x="259.6" y="292" class="st41" width="126.1" height="86.1"/>
						<rect x="259.6" y="292" class="st12" width="73.8" height="86.1"/>
						<rect x="255.2" y="286.4" class="st42" width="135" height="9.4"/>
						<rect x="333.5" y="286.4" class="st43" width="56.7" height="9.4"/>
					</g>
					<g>
						<g>
							<polygon class="st44" points="282,306.9 282,304.5 265.4,304.5 265.4,321.1 270.5,321.1 270.5,306.9 							"/>
							<rect x="270.5" y="306.9" class="st45" width="11.5" height="14.2"/>
						</g>
						<g>
							<polygon class="st44" points="304.8,306.9 304.8,304.5 288.3,304.5 288.3,321.1 293.3,321.1 293.3,306.9 							"/>
							<rect x="293.3" y="306.9" class="st45" width="11.5" height="14.2"/>
						</g>
						<g>
							<polygon class="st44" points="327.7,306.9 327.7,304.5 311.1,304.5 311.1,321.1 316.1,321.1 316.1,306.9 							"/>
							<rect x="316.1" y="306.9" class="st45" width="11.5" height="14.2"/>
						</g>
					</g>
					<g>
						<g>
							<polygon class="st44" points="282,337.4 282,335.1 265.4,335.1 265.4,351.7 270.5,351.7 270.5,337.4 							"/>
							<rect x="270.5" y="337.4" class="st45" width="11.5" height="14.2"/>
						</g>
						<g>
							<polygon class="st44" points="304.8,337.4 304.8,335.1 288.3,335.1 288.3,351.7 293.3,351.7 293.3,337.4 							"/>
							<rect x="293.3" y="337.4" class="st45" width="11.5" height="14.2"/>
						</g>
						<g>
							<polygon class="st44" points="327.7,337.4 327.7,335.1 311.1,335.1 311.1,351.7 316.1,351.7 316.1,337.4 							"/>
							<rect x="316.1" y="337.4" class="st45" width="11.5" height="14.2"/>
						</g>
					</g>
				</g>
			</g>
		</g>
	</g>
</g>
<g id="Capa_1">
</g>
<g id="Capa_2">
</g>
</svg>
