<?xml version="1.0" encoding="utf-8"?>
<!-- Generator: Adobe Illustrator 21.0.0, SVG Export Plug-In . SVG Version: 6.00 Build 0)  -->
<svg version="1.1" id="Capa_1" xmlns="http://www.w3.org/2000/svg" xmlns:xlink="http://www.w3.org/1999/xlink" x="0px" y="0px"
	 viewBox="0 0 1078 368" style="enable-background:new 0 0 1078 368;" xml:space="preserve">
<style type="text/css">
	.st0{fill:#D02280;}
	.st1{fill:#04A9D0;}
	.st2{fill:#ECB004;}
	.st3{fill:#B1B711;}
	.st4{fill:#EAAE04;}
	.st5{clip-path:url(#SVGID_4_);}
	.st6{clip-path:url(#SVGID_8_);fill:#FFFFFF;}
	.st7{fill:#FFFFFF;}
	.st8{fill:#AFACA6;}
	.st9{fill:#333333;}
	.st10{fill:#5B5856;}
	.st11{fill:#3D3D00;}
	.st12{clip-path:url(#SVGID_16_);}
	.st13{clip-path:url(#SVGID_20_);fill:#ECB004;}
	.st14{clip-path:url(#SVGID_20_);fill:#D02280;}
	
		.st15{clip-path:url(#SVGID_20_);fill:none;stroke:#000000;stroke-width:2;stroke-linecap:round;stroke-linejoin:round;stroke-miterlimit:10;}
	.st16{clip-path:url(#SVGID_22_);fill:#ECB004;}
	.st17{clip-path:url(#SVGID_22_);fill:#D02280;}
	
		.st18{clip-path:url(#SVGID_22_);fill:none;stroke:#000000;stroke-width:2;stroke-linecap:round;stroke-linejoin:round;stroke-miterlimit:10;}
	.st19{fill:#00343D;}
	.st20{fill:none;stroke:#B1B711;stroke-miterlimit:10;}
	.st21{clip-path:url(#SVGID_24_);fill:#D47904;}
	.st22{clip-path:url(#SVGID_24_);fill:#EEB204;}
	.st23{clip-path:url(#SVGID_24_);fill:#04B0D7;}
	.st24{clip-path:url(#SVGID_24_);fill:#D72285;}
	
		.st25{clip-path:url(#SVGID_24_);fill:none;stroke:#000000;stroke-width:2;stroke-linecap:round;stroke-linejoin:round;stroke-miterlimit:10;}
</style>
<g>
	<defs>
		<rect id="SVGID_23_" width="1078" height="368"/>
	</defs>
	<clipPath id="SVGID_2_">
		<use xlink:href="#SVGID_23_"  style="overflow:visible;"/>
	</clipPath>
	<g transform="matrix(1 0 0 1 0 0)" style="clip-path:url(#SVGID_2_);">
		
			<image style="overflow:visible;" width="2481" height="1651" xlink:href="3B8E0842ECF43B4B.png"  transform="matrix(0.2229 0 0 0.2229 525 0)">
		</image>
	</g>
	<path style="clip-path:url(#SVGID_2_);fill:#D47904;" d="M680,368C568.8,259,546.6,117,543,45.5V0h-48.8H3v367.7h491.2v0.3H680z"/>
	<path style="clip-path:url(#SVGID_2_);fill:#EEB204;" d="M667,368C555.8,259,533.6,117,530,45.5V0h-48.8H-10v367.7h491.2v0.3H667z"
		/>
	<path style="clip-path:url(#SVGID_2_);fill:#04B0D7;" d="M-78.7,83.3c3.6,9.8,12.9,17.3,23.2,18.8c10.4,1.5,21.4-3.2,27.5-11.6
		c8.7-12,8.4-30.4,20.8-38.5c8.6-5.6,19.8-3.8,29.9-1.6c10,2.2,21.1,4.4,30-0.6c5.8-3.3,9.6-9,13.8-14.2c4.2-5.2,9.5-10.2,16.1-10.8
		c6.9-0.6,13.7,3.8,20.6,2.8c9.4-1.3,14.7-12.1,14.9-21.6c0.3-14.3-7.7-28.4-20.1-35.5c-9.9-5.7-21.8-7-33.3-7.8
		c-31.6-2.2-63.3-2.1-94.8,0.2c-18.7,1.4-38.6,4.1-52.9,16.3c-11.5,9.9-17.7,25-19.7,40.1c-2,15.1-0.2,30.4,1.8,45.5"/>
	<path style="clip-path:url(#SVGID_2_);fill:#D72285;" d="M70.9-1.7c3.4,9.5,6.9,19.1,13,27.2c6,8.1,15.1,14.5,25.2,14.9
		c13,0.5,24.7-8.8,37.7-9.3c10.6-0.4,20.4,5.1,30.2,9.4s21.3,7.4,30.7,2.5c9.1-4.8,13.4-16.4,11.2-26.5c-2.2-10-9.9-18.3-19.1-23
		s-19.6-6.2-29.9-6.5"/>
	
		<path style="clip-path:url(#SVGID_2_);fill:none;stroke:#000000;stroke-width:2;stroke-linecap:round;stroke-linejoin:round;stroke-miterlimit:10;" d="
		M-79.4,63.3c1.5,13.2,11.8,24.9,24.7,28s27.4-2.7,34.7-13.8c4.3-6.5,6.1-14.4,10.2-21c4.1-6.6,12-12.2,19.3-9.7
		c7.7,2.6,11.3,12.9,19.3,14.6c8.2,1.7,14.8-6.4,20-13C59.3,34.9,74.6,23,91.6,24.5c8.3,0.7,15.9,4.6,24,6.6
		c15.5,3.9,32.7,0.6,45.7-8.7c13-9.3,21.6-24.5,22.9-40.5"/>
	<path style="clip-path:url(#SVGID_2_);fill:#D47904;" d="M278.6,387.9c4.1-11,8.4-22.4,16.3-31.1c7.9-8.8,20.2-14.5,31.6-11.3
		c7.4,2.1,13.7,7.8,21.4,8.8c9.3,1.1,17.9-5,24.7-11.4c6.9-6.4,13.7-13.7,22.8-15.9c11-2.6,22.1,3,31.7,9
		c9.6,5.9,19.6,12.6,30.9,12.4c6.2-0.1,12.1-2.3,18.2-3.3c19.5-3.3,40.6,6.7,50.4,23.8c9.8,17.2,7.6,40.4-5.2,55.5"/>
	
		<path style="clip-path:url(#SVGID_2_);fill:none;stroke:#000000;stroke-width:2;stroke-linecap:round;stroke-linejoin:round;stroke-miterlimit:10;" d="
		M566.8,349.3c2.2-12.9-9.4-24.9-22.2-27.6c-12.8-2.6-25.9,1.9-37.6,7.6c-11.7,5.7-23,12.7-35.7,15.7c-14.9,3.5-31.1,0.8-44.1-7.1
		c-2.8-1.7-5.6-3.9-6.7-6.9c-1.1-3.1,0.3-7.3,3.5-8c2.7-0.6,5.5,1.7,6.3,4.4c0.8,2.7,0,5.6-1.2,8.2c-6.6,13.6-24.3,18.2-39.2,15.9
		c-14.9-2.3-28.5-9.8-43-14c-14.4-4.2-29.9-5.2-44.3-1c-14.4,4.2-27.4,13.8-34.1,27.2c-6.7,13.4-6.2,30.5,2.5,42.7"/>
</g>
</svg>
