<svg width="1078" height="368" xmlns="http://www.w3.org/2000/svg" xmlns:xlink="http://www.w3.org/1999/xlink" xml:space="preserve" version="1.1">
 <g>
  <title>Layer 1</title>
  <g id="svg_1">
   <defs>
    <rect height="368" width="1078" id="SVGID_23_"/>
   </defs>
   <g stroke="null">
    <g stroke="null" id="svg_14">
     <rect stroke="null" fill="#FCFCFC" height="661.31657" width="669.96157" y="-144.65698" x="483.94348"/>
    </g>
    <g stroke="null" id="svg_13">
     <g stroke="null">
      <g stroke="null">
       <g stroke="null">
        <circle stroke="null" fill="#3D84BF" r="161.51987" cy="175.48964" cx="820.77149"/>
        <path stroke="null" fill="#3D84BF" d="m820.77149,338.00244c-90.6927,0 -164.47557,-72.90238 -164.47557,-162.51281s73.78287,-162.51281 164.47557,-162.51281c44.33404,0 85.63583,16.43266 116.29595,46.27014c31.0688,30.23466 48.17962,71.51623 48.17962,116.24266c0,89.61042 -73.78287,162.51281 -164.47557,162.51281zm0,-323.03971c-89.58324,0 -162.46568,72.0127 -162.46568,160.52691s72.88244,160.52691 162.46568,160.52691s162.46568,-72.0127 162.46568,-160.52691c0,-90.01555 -71.36431,-160.52691 -162.46568,-160.52691z"/>
       </g>
       <g stroke="null">
        <path stroke="null" fill="#266CA6" d="m657.34509,172.03947c-0.02412,1.14785 -0.04422,2.29702 -0.04422,3.45017c0,89.2053 73.18794,161.51986 163.47062,161.51986c61.78118,0 115.55095,-33.86754 143.34632,-83.8341c-170.71425,77.40905 -261.98579,-6.13511 -306.77272,-81.13592z"/>
        <path stroke="null" fill="#266CA6" d="m820.77149,338.00244c-90.6927,0 -164.47557,-72.90238 -164.47557,-162.51281c0,-1.15977 0.0201,-2.31688 0.04422,-3.47135c0.00938,-0.44352 0.31622,-0.82746 0.75036,-0.93867c0.43681,-0.11386 0.89239,0.07414 1.12018,0.45543c47.00182,78.71048 138.15144,156.61601 305.48908,80.73742c0.3926,-0.17873 0.86157,-0.08606 1.15367,0.22639c0.29612,0.31377 0.35508,0.7798 0.14471,1.15447c-28.94234,52.02793 -84.20747,84.34911 -144.22665,84.34911zm-162.46568,-162.43734c0.04422,88.47846 72.90924,160.45144 162.46568,160.45144c58.26522,0 111.99346,-30.83308 140.96527,-80.67917c-75.32378,33.54979 -142.13101,38.71048 -198.61547,15.34041c-41.43578,-17.14361 -76.68648,-49.13513 -104.81549,-95.11269z"/>
       </g>
       <g stroke="null">
        <path stroke="null" fill="#3DBF6F" d="m737.42157,215.62202c-3.02153,-2.64125 -5.77105,-5.67835 -9.31917,-7.57687c-10.40986,-5.57111 -24.7524,0.02913 -34.33821,-6.83547c-3.35785,-2.40426 -5.71611,-6.12716 -9.4344,-7.94228c-3.57491,-1.74494 -8.11591,-1.56489 -11.06911,-4.21276c-2.90361,-2.60418 -3.16088,-7.23 -1.54091,-10.75696c1.61997,-3.52696 4.72859,-6.15364 7.91225,-8.41492c10.21825,-7.25913 22.76663,-12.60252 28.76681,-23.53291c2.65171,-4.82971 3.87774,-10.56499 7.77959,-14.48118c4.21138,-4.22599 10.8172,-5.5486 14.78873,-9.9957c3.8563,-4.31999 6.13417,-9.12587 5.84876,-14.87836s-2.34085,-11.28388 -4.83846,-16.48826c-5.78043,-12.05044 -14.08527,-22.91066 -24.22983,-31.70555c-31.08488,29.40191 -50.44677,70.81057 -50.44677,116.68883c0,8.00582 0.59895,15.87131 1.73654,23.56469l2.66377,-0.06752c-2.22963,1.34909 -0.94063,5.13686 1.50473,6.04773c2.44536,0.91219 5.14932,0.01986 7.67374,-0.64873s5.52316,-1.00487 7.47945,0.70698c2.04874,1.79393 2.00988,5.023 3.66469,7.17837c2.85672,3.7176 8.74166,2.45987 13.22906,3.91752c0.88971,0.28862 1.84239,0.81687 2.03534,1.72376c0.13131,0.61563 -0.13131,1.24053 -0.39796,1.81246c-1.26757,2.72201 -2.77096,5.34339 -3.80806,8.15808c-2.20551,5.98021 -2.13182,12.90835 0.93259,18.50594c4.5343,8.2812 14.87851,12.92424 17.53021,21.96935c2.48958,8.49038 -2.76426,18.01873 -1.04648,26.36216c5.48565,4.95548 11.31699,9.54026 17.44848,13.72786l0.08843,-1.82835c-1.77674,-5.4043 0.83879,-11.36861 4.67365,-15.60255c3.83486,-4.23394 8.80463,-7.2856 13.06559,-11.1025c7.38164,-6.61172 12.59662,-15.71509 13.82667,-25.48439c1.23005,-9.7693 -1.71376,-20.11717 -8.44286,-27.37762c-4.04657,-4.36766 -9.24815,-7.5067 -13.73689,-11.43084zm31.63693,-152.69981c-2.30199,-4.9621 -4.1551,-10.47761 -2.98267,-15.81173c0.92321,-4.19819 3.60707,-7.76487 5.66787,-11.54867c2.0608,-3.7838 3.5307,-8.35799 1.85043,-12.32052l0.07906,-2.45457c-15.19607,4.51064 -29.45955,11.14619 -42.44073,19.55847l0.09379,0.10327c-0.47433,5.69821 0.91249,11.38847 2.68923,16.82984c1.91743,5.87164 4.42041,11.77109 8.88905,16.07917c2.43062,2.34336 5.34897,4.12273 8.24053,5.88224c3.58831,2.18317 7.17663,4.36766 10.76494,6.55082c2.82322,1.71714 6.20786,3.49518 9.28299,2.27187c3.60841,-1.43514 4.50482,-6.14967 3.87372,-9.94274c-0.89775,-5.38576 -3.70623,-10.23665 -6.00822,-15.19743zm167.05492,-3.20392l-0.40198,0.23698c-2.44134,3.58654 -7.89751,2.5724 -12.19464,3.38c-6.12613,1.1505 -10.44604,6.51508 -13.65248,11.79889c-1.08132,1.78069 -2.13584,3.63684 -3.74777,4.97005s-3.94875,2.03886 -5.85278,1.16109c-2.31271,-1.06577 -3.11666,-4.02211 -2.71468,-6.5111s1.69232,-4.74365 2.47752,-7.14262c0.78519,-2.39897 0.9835,-5.25601 -0.59895,-7.23397c-2.16264,-2.70347 -6.28156,-2.41485 -9.76938,-2.45987c-4.27971,-0.05561 -8.91317,-1.23788 -11.46036,-4.63641c-0.71284,-0.95058 -1.25417,-2.06269 -2.20819,-2.77894c-1.96835,-1.47751 -4.81032,-0.69639 -6.99976,0.43822c-5.76569,2.98679 -10.37904,8.08394 -12.74267,14.07606c-2.38238,6.04111 -2.77096,13.27111 -7.55583,17.70893c-3.55214,3.29395 -9.17847,4.63377 -11.13208,9.04246c-1.14161,2.57637 -0.56813,5.80545 1.39352,7.84298c1.96165,2.03886 5.19622,2.76702 7.85865,1.7701c0.93527,-0.34952 1.83167,-0.89763 2.82992,-0.92013c2.20953,-0.04899 3.56822,2.3566 4.16314,4.46033c0.59493,2.10373 1.18047,4.57551 3.18902,5.48903c2.21757,1.01016 4.75405,-0.55208 6.44905,-2.28908c1.23541,-1.26568 2.37166,-2.76834 2.55657,-4.51726c0.26129,-2.45722 -1.37208,-4.6576 -2.38774,-6.91623c-2.80044,-6.21984 -0.50917,-14.25876 5.16406,-18.122c1.26757,-0.8632 2.81518,-1.549 4.31455,-1.20478c2.35826,0.54281 3.43824,3.37338 3.1917,5.75249c-0.24655,2.37911 -1.39218,4.58213 -1.81158,6.93741c-0.10853,0.60901 -0.16481,1.25376 0.06432,1.82835c0.7115,1.78863 3.30291,1.60858 5.18014,1.10416c3.02287,-0.81157 6.04439,-1.62314 9.06726,-2.43339c0.69006,-0.18535 1.423,-0.3707 2.10904,-0.17344c1.15635,0.33098 1.76602,1.71714 1.50875,2.87955c-0.25727,1.16241 -1.18181,2.08387 -2.22025,2.68758c-4.00235,2.32615 -10.04808,0.98633 -12.78019,4.69599c-0.81065,1.10151 -1.14429,2.46649 -1.44712,3.79439c-0.54401,2.38838 -1.10008,4.89326 -2.70396,6.75868c-1.60523,1.86542 -3.54946,2.81601 -5.52048,1.3332c-6.30166,3.68318 -14.20185,2.33409 -21.52051,2.53268c-7.31866,0.19859 -16.0295,3.62096 -16.84283,10.80991c-0.46495,4.10684 1.90537,8.40698 0.40734,12.26624c-1.38816,3.57594 -5.44277,5.19776 -8.75506,7.18763c-3.31095,1.98987 -6.45307,5.94711 -4.63479,9.32976c1.23809,2.30232 4.24488,3.06755 6.87917,2.9153c3.85496,-0.22242 7.60138,-1.93956 10.26247,-4.70393c3.38063,-3.51107 5.78445,-9.01599 10.67785,-9.34564c5.21364,-0.35217 8.59561,5.61745 13.60692,7.08304c4.99523,1.46162 10.34287,-1.86675 15.45869,-0.8963c5.8434,1.10813 9.19723,7.3849 10.01325,13.20888c0.52391,3.74276 0.0402,8.17661 -3.13542,10.28167c-2.05008,1.35836 -4.69107,1.37159 -7.16055,1.33717c-6.69292,-0.09268 -13.38583,-0.18535 -20.08009,-0.27803c-1.43238,-0.01986 -2.90897,-0.04899 -4.22344,-0.61431c-4.38289,-1.8866 -4.93092,-8.62807 -9.3875,-10.33727c-3.54678,-1.361 -7.2865,1.28422 -10.05076,3.86721c-8.05294,7.52391 -15.17061,16.02489 -21.13997,25.25138c-0.99422,1.53709 -1.97237,3.1311 -2.36228,4.91444c-0.48639,2.22288 -0.01474,4.54374 0.69274,6.70837c2.1211,6.49257 6.58572,12.4079 12.80029,15.38013s14.19783,2.58167 19.52938,-1.75289c1.42702,-1.15977 2.68789,-2.59094 4.38959,-3.30321c4.26766,-1.78599 9.12622,1.94089 10.62693,6.2728c1.50071,4.33191 0.81467,9.061 1.01432,13.63519c0.66058,15.14977 11.13342,29.40191 8.45358,44.33323c-0.4194,2.33674 -1.14429,4.82838 -0.17687,7.00096c1.62533,3.65273 6.83897,3.9665 10.66713,2.69818c10.45006,-3.46209 16.95003,-13.57826 21.96134,-23.27739c6.23734,-12.07162 11.62517,-25.81935 8.07036,-38.9104c-1.89063,-6.96124 -6.2561,-14.06811 -3.81342,-20.86122c0.34972,-0.97309 0.84683,-1.91573 1.59987,-2.6333c4.5544,-4.34647 13.59754,2.36057 18.06216,-2.07593c3.23055,-3.21054 0.49711,-8.54731 -2.10904,-12.27154c-2.60749,-3.72422 -4.66293,-9.60249 -0.83745,-12.09413c3.4436,-2.24142 7.72734,0.87644 11.66135,2.09976c6.41153,1.99649 13.85079,-1.27892 19.90724,1.60328c5.08367,2.42015 7.28784,8.2203 10.10436,13.05133c2.81786,4.83103 8.25125,9.53497 13.50911,7.512c4.83578,-1.86145 6.49461,-8.43875 11.37461,-10.18369l0.32962,0.00132c0.44351,-4.8681 0.6847,-9.79578 0.6847,-14.77907c0,-46.49654 -18.40116,-86.96917 -48.1287,-115.77134z"/>
        <path stroke="null" fill="#3DBF6F" d="m727.94832,309.44123c-0.20099,0 -0.40064,-0.05958 -0.57081,-0.17608c-6.16499,-4.21011 -12.07137,-8.85579 -17.55567,-13.8126c-0.15677,-0.14166 -0.26396,-0.32966 -0.30684,-0.53487c-0.84951,-4.12273 -0.07504,-8.50627 0.67398,-12.74551c0.80663,-4.56095 1.64007,-9.27812 0.39126,-13.53854c-1.41228,-4.81779 -5.13325,-8.32886 -9.07262,-12.04647c-3.10192,-2.92722 -6.31104,-5.95505 -8.37586,-9.72826c-3.03761,-5.54728 -3.40876,-12.77066 -0.99288,-19.31883c0.70748,-1.91838 1.62801,-3.756 2.51772,-5.53272c0.44887,-0.8963 0.89775,-1.79261 1.32116,-2.6995c0.20099,-0.43293 0.3926,-0.88174 0.32694,-1.19286c-0.07906,-0.36805 -0.57617,-0.72816 -1.36672,-0.98501c-1.47124,-0.47662 -3.18232,-0.65005 -4.83846,-0.81819c-3.32301,-0.3376 -6.75857,-0.6858 -8.87699,-3.44223c-0.83477,-1.08563 -1.26757,-2.34733 -1.68696,-3.56932c-0.46629,-1.35836 -0.90579,-2.64257 -1.84507,-3.46473c-1.31178,-1.14917 -3.457,-1.30805 -6.55356,-0.49118l-0.69408,0.18667c-2.37434,0.64343 -5.06759,1.37424 -7.59334,0.43293c-1.7486,-0.65138 -3.09924,-2.45854 -3.28415,-4.39546c-0.0536,-0.54943 -0.00402,-1.06841 0.13801,-1.53841l-0.64182,0.01721c-0.45691,0 -0.94599,-0.35217 -1.01968,-0.84997c-1.15903,-7.83636 -1.74726,-15.81173 -1.74726,-23.70767c0,-44.75292 18.02733,-86.44887 50.75897,-117.40905c0.37652,-0.35614 0.96742,-0.36805 1.35734,-0.02913c10.20351,8.84785 18.66781,19.92255 24.47504,32.02727c1.96031,4.08698 4.60666,10.28299 4.9336,16.86559c0.2787,5.57905 -1.71644,10.6762 -6.09799,15.58402c-2.18407,2.44795 -5.09305,3.98372 -7.90555,5.46917c-2.57399,1.35968 -5.00595,2.64522 -6.9207,4.56625c-2.42258,2.42942 -3.7558,5.60421 -5.16942,8.96568c-0.74098,1.76216 -1.50607,3.58389 -2.44402,5.29176c-4.57584,8.33416 -12.8646,13.51603 -20.88002,18.52712c-2.73612,1.71052 -5.56738,3.48062 -8.18291,5.3381c-2.86208,2.03356 -6.00152,4.57684 -7.58396,8.01906c-1.36538,2.97223 -1.35734,7.22735 1.30107,9.61176c1.57977,1.41528 3.73839,1.94618 6.02429,2.50753c1.61327,0.39453 3.28013,0.80363 4.813,1.55165c2.32745,1.13593 4.13098,2.94443 5.87422,4.69334c1.22335,1.22729 2.3797,2.38705 3.70489,3.33631c4.80362,3.4409 10.87482,3.58521 17.30109,3.73879c5.79919,0.13769 11.79534,0.282 16.92725,3.02784c2.75354,1.47221 5.03677,3.59448 7.24362,5.64658c0.74902,0.69374 1.49669,1.39013 2.26179,2.06004c1.70974,1.49472 3.56956,2.90736 5.36773,4.27498c2.90361,2.20567 5.90504,4.48681 8.44554,7.22735c6.75053,7.2856 10.00253,17.81617 8.69878,28.17065c-1.21129,9.61705 -6.36865,19.12951 -14.14959,26.0987c-1.68428,1.50796 -3.49184,2.91001 -5.24178,4.26704c-2.68655,2.08387 -5.46689,4.24056 -7.75012,6.76133c-3.29085,3.63287 -6.19178,9.38536 -4.46596,14.63476c0.03752,0.11386 0.0536,0.23434 0.04824,0.35481l-0.08843,1.82835c-0.01742,0.36011 -0.23047,0.68315 -0.55875,0.84202c-0.13935,0.06752 -0.2921,0.10194 -0.44351,0.10194zm-16.52527,-15.23318c4.88536,4.39546 10.1057,8.54334 15.54311,12.34965c-1.48597,-5.06404 0.36312,-11.08926 4.99389,-16.2023c2.40248,-2.65184 5.25116,-4.86281 8.00872,-6.99964c1.72046,-1.33585 3.49988,-2.71539 5.13191,-4.17569c7.42987,-6.65409 12.35275,-15.72038 13.50509,-24.87273c1.23139,-9.78519 -1.829,-19.72131 -8.18693,-26.58326c-2.42258,-2.61477 -5.35299,-4.8403 -8.18827,-6.99434c-1.82498,-1.38748 -3.71293,-2.8213 -5.47359,-4.36236c-0.78118,-0.68315 -1.54359,-1.39145 -2.30735,-2.09976c-2.21087,-2.05607 -4.29981,-3.99695 -6.82423,-5.34737c-4.70581,-2.51812 -10.45676,-2.65581 -16.01878,-2.7882c-6.45039,-0.15358 -13.12187,-0.31245 -18.43198,-4.11478c-1.46052,-1.04591 -2.73076,-2.31953 -3.95813,-3.55079c-1.7017,-1.70655 -3.30693,-3.3191 -5.33155,-4.30543c-1.33858,-0.65402 -2.82992,-1.01943 -4.40835,-1.40734c-2.42794,-0.59445 -4.93762,-1.21007 -6.89122,-2.96164c-3.52668,-3.1642 -3.39537,-8.38844 -1.78076,-11.90216c1.77808,-3.86853 5.16406,-6.62496 8.24053,-8.8121c2.66377,-1.8919 5.52048,-3.67789 8.28206,-5.4043c7.79835,-4.87472 15.86201,-9.91626 20.18862,-17.79499c0.88837,-1.61785 1.63337,-3.39192 2.35424,-5.10773c1.42434,-3.38795 2.89691,-6.8924 5.59284,-9.59719c2.1278,-2.1355 4.81032,-3.55344 7.40442,-4.92371c2.77766,-1.46692 5.39989,-2.85308 7.34546,-5.03227c4.01843,-4.50137 5.84876,-9.13646 5.5982,-14.17271c-0.30952,-6.22911 -2.85538,-12.17886 -4.74333,-16.11227c-5.55934,-11.58706 -13.60156,-22.21163 -23.29322,-30.78012c-31.90759,30.51269 -49.46862,71.43547 -49.46862,115.33709c0,7.5067 0.53731,15.08754 1.59987,22.54923l1.77004,-0.04501c0.46897,-0.01324 0.86023,0.28067 0.98886,0.71095c0.12863,0.4316 -0.05092,0.89365 -0.43949,1.12932c-0.62976,0.38129 -0.70614,1.05253 -0.6579,1.549c0.11121,1.17036 0.96876,2.34204 1.99247,2.72333c1.91609,0.71492 4.17118,0.10194 6.35258,-0.48853l0.7048,-0.19065c3.79868,-1.00222 6.54954,-0.70168 8.40668,0.92278c1.33858,1.173 1.88661,2.76967 2.41588,4.3147c0.38456,1.12005 0.74768,2.17919 1.38414,3.00665c1.59049,2.06931 4.45256,2.35925 7.48213,2.66773c1.76066,0.17873 3.58295,0.36276 5.26054,0.90822c1.93753,0.63152 2.54049,1.68669 2.7053,2.46252c0.19295,0.90425 -0.14069,1.73038 -0.46897,2.43207c-0.43012,0.92411 -0.88837,1.83894 -1.34528,2.75113c-0.86559,1.72906 -1.76066,3.51504 -2.43062,5.33016c-2.22159,6.02257 -1.89599,12.63694 0.87229,17.69437c1.91475,3.49651 5.00595,6.41446 7.99666,9.23576c3.95813,3.73482 8.0516,7.59805 9.61395,12.92953c1.37878,4.70261 0.50515,9.64883 -0.34034,14.4322c-0.72892,4.12538 -1.41898,8.02833 -0.74634,11.69298zm158.12567,-4.21673c-3.19438,0.00132 -6.15829,-1.18624 -7.40174,-3.98239c-0.95403,-2.14212 -0.49175,-4.49211 -0.08442,-6.56538c0.067,-0.3376 0.13265,-0.67521 0.19295,-1.00884c1.48195,-8.2587 -1.15367,-16.22745 -3.94339,-24.66223c-2.08224,-6.29265 -4.23282,-12.79846 -4.52358,-19.4552c-0.05896,-1.34512 -0.04154,-2.71142 -0.0268,-4.0327c0.03886,-3.2913 0.07772,-6.40254 -0.93527,-9.32314c-0.82405,-2.38176 -2.77632,-4.54771 -4.97245,-5.51683c-1.04246,-0.46205 -2.63965,-0.86188 -4.31053,-0.16417c-1.07998,0.45146 -1.99113,1.267 -2.95855,2.13021c-0.39126,0.34819 -0.78118,0.69639 -1.18449,1.0234c-5.43607,4.41929 -13.71679,5.17526 -20.60668,1.87999c-6.10201,-2.91795 -10.95655,-8.73928 -13.31884,-15.96928c-0.59091,-1.80982 -1.30776,-4.52785 -0.7182,-7.22206c0.42074,-1.92368 1.42166,-3.57594 2.49762,-5.24013c6.01491,-9.29666 13.17948,-17.85589 21.29674,-25.43805c4.25426,-3.97312 7.88545,-5.30632 11.10662,-4.07109c2.58873,0.99295 3.95545,3.34293 5.27662,5.61745c1.17779,2.02429 2.28859,3.93605 4.1484,4.73571c1.14563,0.49383 2.5137,0.51369 3.83486,0.53222l20.07875,0.27803c2.57533,0.04104 4.8599,-0.02648 6.58572,-1.16903c3.30961,-2.19243 2.98937,-7.24853 2.69995,-9.32049c-0.75974,-5.43342 -3.90186,-11.36464 -9.20661,-12.37083c-2.22829,-0.42233 -4.53296,0.04766 -6.97564,0.54678c-2.80714,0.57326 -5.70941,1.16639 -8.57685,0.32701c-2.32611,-0.6805 -4.26498,-2.20302 -6.13819,-3.67259c-2.32075,-1.82306 -4.49946,-3.54549 -7.11633,-3.37206c-3.06708,0.20786 -5.10645,2.87558 -7.26238,5.69953c-0.87095,1.13991 -1.77138,2.31821 -2.75488,3.34028c-2.8393,2.94708 -6.82423,4.7741 -10.93377,5.01109c-2.80848,0.15622 -6.32846,-0.65667 -7.82515,-3.4409c-2.03802,-3.7891 0.97412,-8.22295 5.00059,-10.64442c0.62306,-0.37467 1.27159,-0.73611 1.92413,-1.10019c2.78436,-1.55033 5.41329,-3.0146 6.41421,-5.59494c0.76108,-1.96207 0.37652,-4.14126 -0.03082,-6.44755c-0.32024,-1.81246 -0.6512,-3.68715 -0.43815,-5.57244c0.87363,-7.72383 9.8471,-11.47453 17.81428,-11.69165c1.74592,-0.04766 3.54276,-0.00794 5.27662,0.03045c5.49502,0.1218 11.18568,0.2489 15.76018,-2.42545c0.3524,-0.20521 0.79591,-0.18005 1.12018,0.06487c0.47031,0.35217 1.89599,1.42852 4.14572,-1.18624c1.42434,-1.65492 1.95495,-3.98504 2.46814,-6.2397c0.37652,-1.65359 0.74366,-3.0424 1.63739,-4.25512c1.83435,-2.49032 4.83712,-2.98415 7.74208,-3.46076c1.88393,-0.30848 3.83218,-0.62887 5.34093,-1.50664c0.94465,-0.54943 1.58111,-1.29348 1.74726,-2.04283c0.15811,-0.71757 -0.23449,-1.549 -0.80797,-1.71449c-0.43681,-0.12313 -1.03576,0.03707 -1.56637,0.17873l-9.06726,2.43339c-3.22386,0.86453 -5.60892,0.23036 -6.37803,-1.69993c-0.33096,-0.83011 -0.23717,-1.69993 -0.11791,-2.36454c0.19831,-1.12137 0.54803,-2.19641 0.88703,-3.23569c0.406,-1.2445 0.78787,-2.42147 0.91383,-3.63022c0.20099,-1.93956 -0.66594,-4.2816 -2.4199,-4.6854c-0.98082,-0.22639 -2.15862,0.13107 -3.51596,1.05517c-5.24312,3.57065 -7.40308,11.15149 -4.81568,16.90133c0.23851,0.52825 0.51185,1.05385 0.78519,1.57945c0.94063,1.81114 1.91341,3.68451 1.68428,5.84384c-0.23583,2.21229 -1.72984,3.9718 -2.8326,5.10244c-2.52308,2.58299 -5.36639,3.51637 -7.59334,2.50223c-2.31807,-1.05517 -3.04833,-3.66862 -3.63655,-5.76838l-0.09915,-0.35614c-0.51319,-1.81246 -1.60255,-3.73614 -3.13274,-3.73614c-0.0134,0 -0.02814,0 -0.0402,0c-0.52391,0.01059 -1.08668,0.25684 -1.68294,0.51766c-0.26932,0.11783 -0.53999,0.23566 -0.81333,0.3376c-3.03091,1.13196 -6.709,0.30583 -8.94265,-2.01503c-2.23365,-2.32085 -2.88485,-5.99212 -1.58647,-8.92596c1.34394,-3.03445 4.18592,-4.71055 6.93544,-6.32972c1.55699,-0.91749 3.16758,-1.86807 4.42979,-3.0371c3.09522,-2.86896 4.2355,-7.0142 5.44411,-11.40304c0.54401,-1.97663 1.10678,-4.01946 1.86383,-5.94049c2.44268,-6.19204 7.2597,-11.5116 13.21298,-14.59504c3.25601,-1.68669 6.12211,-1.81246 8.07304,-0.34952c0.81333,0.61033 1.33992,1.40205 1.84775,2.16595c0.18223,0.27538 0.36312,0.55076 0.56009,0.81157c2.69861,3.59845 7.84123,4.19819 10.66579,4.23526l1.06256,0.00662c3.39135,0.01059 7.23558,0.02383 9.4813,2.82925c2.12378,2.65316 1.39218,6.24896 0.76778,8.15543c-0.2988,0.90954 -0.6646,1.79525 -1.01834,2.65184c-0.60967,1.47619 -1.18717,2.87029 -1.42434,4.33985c-0.3323,2.06666 0.2988,4.60332 2.14924,5.45593c1.57039,0.72684 3.53606,0.00662 4.78219,-1.0234c1.36136,-1.12402 2.29663,-2.67435 3.28683,-4.3147l0.24521,-0.4038c2.81518,-4.63906 7.36154,-10.95687 14.32646,-12.26359c1.27829,-0.23963 2.64233,-0.32569 3.95947,-0.4091c3.1448,-0.19727 6.11407,-0.38526 7.58932,-2.54857c0.08308,-0.1218 0.19161,-0.22374 0.3189,-0.29921l0.40198,-0.23698c0.39126,-0.23169 0.89105,-0.17211 1.21799,0.14298c31.23093,30.25982 48.43018,71.62744 48.43018,116.48097c0,4.8681 -0.23315,9.86992 -0.69274,14.86777c-0.04824,0.51501 -0.47299,0.92543 -1.00896,0.90425l-0.14203,-0.00132c-2.09966,0.81819 -3.57358,2.71539 -5.13325,4.71982c-1.67088,2.15007 -3.39939,4.37295 -6.05645,5.39503c-5.67725,2.18581 -11.62115,-2.58564 -14.74451,-7.94095c-0.55473,-0.94926 -1.08534,-1.93559 -1.61729,-2.92722c-2.09296,-3.89104 -4.2556,-7.91712 -8.05294,-9.72561c-3.02421,-1.44044 -6.46379,-1.21934 -10.10704,-0.98765c-3.21046,0.20124 -6.52811,0.41439 -9.66755,-0.56135c-1.06524,-0.33231 -2.14924,-0.79436 -3.19706,-1.24053c-2.8326,-1.2061 -5.50976,-2.34469 -7.60808,-0.97971c-0.85085,0.5534 -1.36136,1.32261 -1.56235,2.34998c-0.51319,2.61344 1.11884,6.13113 2.67181,8.35137c5.29538,7.56231 4.00771,11.53543 1.99515,13.53589c-2.61017,2.59491 -6.32578,1.95677 -9.91677,1.34512c-3.2185,-0.55208 -6.26012,-1.06974 -8.15879,0.74537c-0.55473,0.52825 -0.9969,1.26436 -1.35332,2.25201c-1.67222,4.65363 0.08977,9.49525 1.95763,14.62152c0.67264,1.84821 1.36806,3.75997 1.88125,5.64922c3.76384,13.86026 -2.37568,28.45265 -8.14539,39.6187c-5.02605,9.72694 -11.63321,20.15688 -22.53751,23.76725c-1.44444,0.48721 -2.99875,0.74802 -4.5008,0.74802zm-24.11326,-77.07542c1.0639,0 2.15326,0.23963 3.23725,0.71757c2.72138,1.20081 5.04213,3.76394 6.05511,6.68586c1.1242,3.24628 1.08266,6.67527 1.04246,9.9904c-0.01608,1.29613 -0.03216,2.6333 0.02412,3.92414c0.2787,6.38401 2.38774,12.76007 4.42711,18.9243c2.74416,8.29709 5.58212,16.87618 4.01173,25.62473c-0.06164,0.34422 -0.12997,0.69109 -0.19697,1.04061c-0.38456,1.96075 -0.74902,3.81293 -0.04824,5.38708c1.33054,2.98812 5.8501,3.34161 9.4277,2.15669c10.21825,-3.3853 16.54537,-13.41939 21.38651,-22.78754c5.60624,-10.84831 11.58096,-24.99586 7.99398,-38.20077c-0.49041,-1.80849 -1.17243,-3.68053 -1.83167,-5.49035c-1.90403,-5.22954 -3.87238,-10.63648 -1.95897,-15.96002c0.46361,-1.28422 1.06792,-2.26922 1.85043,-3.0146c2.63563,-2.51547 6.32712,-1.88528 9.89801,-1.27495c3.22787,0.55076 6.28022,1.07239 8.14807,-0.78774c2.67315,-2.65581 0.26664,-7.4511 -2.22293,-11.00586c-1.85981,-2.65846 -3.62315,-6.64482 -2.99071,-9.85933c0.3055,-1.55827 1.12286,-2.77894 2.42928,-3.6289c3.00679,-1.95545 6.46111,-0.48324 9.51077,0.8129c1.04782,0.44617 2.03802,0.86718 3.00545,1.16903c2.779,0.86585 5.76971,0.67653 8.93327,0.47397c3.74107,-0.24096 7.61076,-0.48324 11.10796,1.18095c4.39227,2.09049 6.71301,6.40916 8.95739,10.58352c0.52123,0.97044 1.03978,1.93691 1.58245,2.86764c2.70798,4.64303 7.70188,8.83858 12.2737,7.08039c2.1345,-0.81951 3.61913,-2.73127 5.1922,-4.75424c1.64945,-2.12226 3.35249,-4.31205 5.9439,-5.33942c0.41002,-4.68937 0.6177,-9.3761 0.6177,-13.94102c0,-43.98636 -16.73296,-84.57021 -47.14118,-114.39445c-2.08358,2.42147 -5.43339,2.63198 -8.68002,2.83587c-1.25685,0.07944 -2.55657,0.16152 -3.71293,0.37864c-6.17035,1.15844 -10.36163,7.02347 -12.97716,11.33419l-0.24387,0.40115c-1.03308,1.71052 -2.101,3.4793 -3.72231,4.81912c-2.11842,1.75024 -4.83444,2.26128 -6.92338,1.3001c-2.87949,-1.32658 -3.71963,-4.85354 -3.28147,-7.5676c0.272,-1.69596 0.92053,-3.2635 1.54627,-4.7794c0.35642,-0.86056 0.69274,-1.67345 0.96608,-2.5115c0.40466,-1.23126 1.16975,-4.31205 -0.43012,-6.31251c-1.64543,-2.05607 -4.83042,-2.06666 -7.91225,-2.07593l-1.08266,-0.00662c-3.1984,-0.04237 -9.04046,-0.75199 -12.25494,-5.03889c-0.21841,-0.29259 -0.42208,-0.59842 -0.62708,-0.90425c-0.4328,-0.65402 -0.84281,-1.26965 -1.38012,-1.67478c-1.74458,-1.30672 -4.46194,-0.23036 -5.92514,0.52693c-5.5312,2.86499 -10.00521,7.80591 -12.2737,13.5584c-0.71954,1.82306 -1.26757,3.81425 -1.79818,5.74057c-1.22737,4.46166 -2.49762,9.07556 -6.00554,12.32979c-1.423,1.31731 -3.12738,2.32218 -4.77549,3.29527c-2.59141,1.5265 -5.03811,2.96958 -6.12345,5.42151c-0.9835,2.22288 -0.48907,5.00314 1.20191,6.76133c1.69098,1.75686 4.474,2.38573 6.77331,1.5265c0.23985,-0.09003 0.47567,-0.19329 0.71284,-0.29788c0.71418,-0.31245 1.52617,-0.66594 2.45072,-0.68712c2.29261,-0.04104 4.22076,1.88925 5.15468,5.18585l0.10049,0.36143c0.52659,1.87999 1.06926,3.82352 2.53915,4.49343c2.10234,0.95588 4.59326,-1.34776 5.3061,-2.07725c1.42568,-1.46162 2.15058,-2.71009 2.28055,-3.93076c0.16749,-1.57018 -0.62976,-3.10462 -1.47392,-4.72909c-0.29076,-0.5587 -0.58019,-1.11872 -0.83343,-1.68007c-3.01215,-6.69116 -0.59091,-15.18816 5.5111,-19.34266c1.84239,-1.25376 3.5642,-1.70787 5.11181,-1.35438c2.96391,0.68183 4.25426,4.02343 3.96349,6.8209c-0.14605,1.41661 -0.58019,2.74849 -0.99958,4.03535c-0.3323,1.02075 -0.6445,1.98325 -0.82137,2.97223c-0.07236,0.40777 -0.13801,0.92411 0.01072,1.29216c0.4194,1.05385 2.40516,0.93205 3.98091,0.51104l9.06726,-2.43339c0.70748,-0.19065 1.67758,-0.44881 2.65171,-0.16946c1.61059,0.46205 2.60213,2.27584 2.20953,4.04594c-0.28808,1.3054 -1.24479,2.48899 -2.69191,3.33102c-1.829,1.06444 -3.96483,1.41396 -6.02965,1.75421c-2.62089,0.43028 -5.09707,0.83673 -6.44771,2.67037c-0.66728,0.90689 -0.97546,2.08917 -1.27963,3.42766c-0.58823,2.58432 -1.17511,5.15804 -2.91969,7.18499c-2.02194,2.34866 -4.29177,3.00268 -6.32578,1.85218c-4.947,2.64389 -10.70599,2.51283 -16.27471,2.39235c-1.71242,-0.03839 -3.48246,-0.07679 -5.17746,-0.03177c-7.35082,0.19991 -15.16391,3.67391 -15.87273,9.92818c-0.18089,1.60328 0.11121,3.2582 0.42074,5.01109c0.43681,2.47046 0.88837,5.02433 -0.07236,7.50008c-1.25953,3.24761 -4.33197,4.95945 -7.30392,6.61437c-0.63378,0.35349 -1.26221,0.70301 -1.86785,1.06577c-3.14346,1.88925 -5.70807,5.34075 -4.269,8.01642c1.0505,1.95545 3.75312,2.51415 5.93184,2.3897c3.60573,-0.20786 7.10293,-1.81114 9.59385,-4.39811c0.90445,-0.93999 1.77004,-2.07196 2.60615,-3.16817c2.33415,-3.05564 4.74735,-6.21454 8.73094,-6.4833c3.37259,-0.23963 5.98276,1.81908 8.50315,3.79836c1.72314,1.35306 3.50524,2.75246 5.45751,3.32307c2.38372,0.69771 4.92154,0.18005 7.60004,-0.36673c2.52843,-0.51633 5.14129,-1.04988 7.76217,-0.55208c6.71168,1.2723 10.02263,8.36329 10.81854,14.04826c0.34168,2.44133 0.67934,8.42551 -3.5709,11.24152c-2.3864,1.58078 -5.47225,1.54106 -7.73404,1.50531l-20.07875,-0.27803c-1.4498,-0.02118 -3.09388,-0.04501 -4.60934,-0.69639c-2.46814,-1.06179 -3.79868,-3.3522 -5.08769,-5.56714c-1.20057,-2.06534 -2.33549,-4.01681 -4.2623,-4.75557c-2.4266,-0.93205 -5.36505,0.27008 -8.99758,3.66332c-7.99666,7.47228 -15.05672,15.90441 -20.9832,25.06603c-0.97412,1.50531 -1.87723,2.98812 -2.22695,4.58875c-0.37116,1.69596 -0.15945,3.66465 0.66728,6.19336c2.19479,6.71631 6.67148,12.10869 12.28174,14.79231c6.1958,2.96164 13.61228,2.31026 18.45342,-1.62711c0.3792,-0.30715 0.74634,-0.63549 1.11348,-0.96515c1.04782,-0.9347 2.13182,-1.90382 3.52132,-2.48502c0.85487,-0.36143 1.7553,-0.53884 2.67449,-0.53884zm-76.40912,-123.4528c-2.56461,0 -5.16406,-1.31996 -7.64292,-2.82792l-10.76494,-6.55082c-2.89691,-1.76348 -5.89298,-3.58521 -8.41472,-6.01728c-4.83578,-4.66422 -7.33608,-10.95025 -9.1423,-16.48562c-1.51679,-4.64701 -3.1917,-10.73975 -2.76158,-16.87221c-0.06164,-0.1549 -0.08442,-0.32436 -0.06164,-0.4925c0.03752,-0.28729 0.19965,-0.54414 0.44619,-0.70301c13.2304,-8.57512 27.59706,-15.19611 42.70201,-19.67894c0.30952,-0.09268 0.6445,-0.03177 0.90177,0.16417c0.25593,0.19462 0.40198,0.49912 0.39126,0.81951l-0.07236,2.24407c1.42568,3.58124 0.76108,7.9436 -1.97773,12.96925c-0.54267,0.99692 -1.12822,1.97928 -1.7151,2.96164c-1.64945,2.7657 -3.20778,5.37914 -3.8563,8.32754c-1.17779,5.35399 0.93929,10.92907 2.91433,15.18684l0,0c0.47165,1.01546 0.9634,2.02562 1.4565,3.0371c1.91475,3.93076 3.89382,7.99523 4.63077,12.41187c0.7182,4.31337 -0.39126,9.39463 -4.49008,11.02572c-0.84013,0.33496 -1.68964,0.48059 -2.54317,0.48059zm-36.72193,-48.6241c-0.40868,5.79618 1.20593,11.65458 2.66913,16.13345c1.73118,5.30235 4.11088,11.31169 8.63312,15.67405c2.36228,2.27717 5.26188,4.04197 8.065,5.74719l10.76494,6.55082c2.85538,1.73832 5.84742,3.20657 8.38122,2.19641c3.04967,-1.21405 3.82548,-5.44269 3.25735,-8.85976c-0.68872,-4.13597 -2.60481,-8.06937 -4.45792,-11.87436c-0.49845,-1.02208 -0.99556,-2.04415 -1.47124,-3.07153c-2.10502,-4.53844 -4.35475,-10.50806 -3.051,-16.43663c0.71686,-3.25952 2.43062,-6.13378 4.08811,-8.91272c0.57349,-0.96118 1.14563,-1.92103 1.67624,-2.89544c2.48958,-4.56889 3.09924,-8.42684 1.8089,-11.46659c-0.05628,-0.13239 -0.08174,-0.27405 -0.07772,-0.41572l0.0335,-1.06841c-14.23132,4.35839 -27.78733,10.64442 -40.31963,18.69923z"/>
       </g>
      </g>
      <g stroke="null">
       <g stroke="null">
        <path stroke="null" fill="#33A15D" d="m862.60657,282.69645c-0.0469,1.00487 0.04824,1.98855 0.45959,2.91398c1.62533,3.65273 6.83897,3.9665 10.66713,2.69818c5.2659,-1.74362 9.52551,-5.17923 13.10043,-9.3986c-8.31154,1.68007 -16.39128,2.9431 -24.22715,3.78645z"/>
        <path stroke="null" fill="#33A15D" d="m869.54872,289.99133c-3.19572,0 -6.15829,-1.18624 -7.40174,-3.98239c-0.42744,-0.9625 -0.60565,-2.06136 -0.54267,-3.36147c0.02412,-0.48721 0.40332,-0.88704 0.89507,-0.93867c7.75816,-0.8354 15.87943,-2.10373 24.1347,-3.77056c0.42744,-0.08606 0.84683,0.10062 1.06524,0.4647c0.21841,0.36143 0.18089,0.82216 -0.09245,1.1452c-4.13366,4.87737 -8.56747,8.04951 -13.55198,9.70046c-1.4498,0.48191 -3.00411,0.74273 -4.50616,0.74273zm-5.93452,-6.40784c0.03618,0.61828 0.15945,1.14653 0.3725,1.62711c1.33054,2.98812 5.8501,3.34161 9.4277,2.15669c3.84022,-1.2723 7.34412,-3.53887 10.64971,-6.89902c-6.97698,1.33452 -13.83873,2.38043 -20.44991,3.11521z"/>
       </g>
       <g stroke="null">
        <path stroke="null" fill="#33A15D" d="m695.51414,222.53957c-0.87899,1.75289 -1.75396,3.5071 -2.43196,5.34339c-2.20551,5.98021 -2.13182,12.90835 0.93259,18.50594c4.5343,8.2812 14.87851,12.92424 17.53021,21.96935c2.48958,8.49038 -2.76426,18.01873 -1.04648,26.36216c0,0 0,0 0,0c1.33054,1.20213 2.68387,2.38043 4.05327,3.53755c0.11523,0.09665 0.23047,0.19197 0.3457,0.28862c1.31848,1.10813 2.65439,2.19905 4.00905,3.26614c0.03752,0.02913 0.0737,0.05958 0.11121,0.0887c2.89825,2.27849 5.87556,4.46298 8.92925,6.54685l0.08843,-1.82835c-1.77674,-5.4043 0.83879,-11.36861 4.67365,-15.60255c3.83486,-4.23394 8.80463,-7.2856 13.06559,-11.1025c4.23014,-3.7891 7.74342,-8.39903 10.20887,-13.48161c-23.77694,-11.10383 -43.76859,-26.58061 -60.46939,-43.89368z"/>
        <path stroke="null" fill="#33A15D" d="m727.94832,309.44123c-0.20099,0 -0.40064,-0.05958 -0.57081,-0.17608c-3.05368,-2.08519 -6.07655,-4.30146 -8.98418,-6.58789c0,0 -0.11121,-0.0887 -0.11121,-0.0887c-1.36404,-1.07371 -2.70664,-2.17125 -4.03451,-3.28468l-0.34838,-0.29127c-1.42702,-1.2061 -2.7991,-2.40426 -4.07739,-3.55873c-0.15677,-0.14166 -0.26396,-0.32966 -0.30684,-0.53487c-0.84951,-4.12273 -0.07504,-8.50627 0.67398,-12.74551c0.80663,-4.56095 1.64007,-9.27812 0.39126,-13.53854c-1.41228,-4.81779 -5.13325,-8.32886 -9.07262,-12.04647c-3.10192,-2.92722 -6.31104,-5.95505 -8.37586,-9.72826c-3.03761,-5.54728 -3.40876,-12.77066 -0.99288,-19.31883c0.70078,-1.90249 1.60255,-3.70172 2.47484,-5.44269c0.14605,-0.28994 0.42476,-0.4925 0.75036,-0.54016c0.32292,-0.05163 0.6512,0.0609 0.87899,0.29656c18.14658,18.81442 38.39148,33.51007 60.17193,43.68053c0.24253,0.11253 0.42878,0.3151 0.51721,0.56532c0.08977,0.2489 0.07504,0.52428 -0.0402,0.76126c-2.48958,5.13289 -6.09933,9.9017 -10.44068,13.78876c-1.68428,1.50796 -3.49184,2.91001 -5.24178,4.26704c-2.68655,2.08387 -5.46689,4.24056 -7.75012,6.76133c-3.29085,3.63287 -6.19178,9.38536 -4.46596,14.63476c0.03752,0.11386 0.0536,0.23434 0.04824,0.35481l-0.08843,1.82835c-0.01742,0.36011 -0.23047,0.68315 -0.55875,0.84335c-0.14203,0.0662 -0.29478,0.10062 -0.44619,0.10062zm-8.30484,-8.31695c2.37836,1.86939 4.83444,3.69245 7.32268,5.43342c-1.48597,-5.06404 0.36312,-11.08926 4.99389,-16.2023c2.40248,-2.65184 5.25116,-4.86281 8.00872,-6.99964c1.72046,-1.33585 3.49988,-2.71539 5.13191,-4.17569c3.8965,-3.49121 7.17529,-7.72118 9.53087,-12.28345c-21.25654,-10.06851 -41.04319,-24.40803 -58.84808,-42.64521c-0.6378,1.29481 -1.25685,2.62006 -1.7553,3.9718c-2.22159,6.02257 -1.89599,12.63694 0.87229,17.69437c1.91475,3.49651 5.00595,6.41446 7.99666,9.23576c3.95813,3.73482 8.0516,7.59805 9.61395,12.92953c1.37878,4.70261 0.50515,9.64883 -0.34034,14.4322c-0.72892,4.1267 -1.41898,8.02966 -0.74634,11.69563c1.19119,1.07239 2.46278,2.17919 3.7826,3.29395l0.34436,0.28729c1.31044,1.10151 2.63697,2.18317 3.98359,3.24364l-0.51587,0.86585l0.6244,-0.77715z"/>
       </g>
       <g stroke="null">
        <path stroke="null" fill="#33A15D" d="m657.4496,182.13446c0.07102,1.71582 0.16079,3.42766 0.28674,5.12892c0.00402,0.05428 0.0067,0.10856 0.01072,0.16284c0.14203,1.90911 0.32024,3.80896 0.52793,5.69953c0.01206,0.11253 0.0268,0.22507 0.03886,0.3376c0.21037,1.87204 0.45021,3.73614 0.72356,5.58832c0,0 0,0.00265 0,0.00265l2.66377,-0.06752c-2.22963,1.34909 -0.94063,5.13686 1.50473,6.04773c2.44536,0.91219 5.14932,0.01986 7.67374,-0.64873s5.52316,-1.00487 7.47945,0.70698c2.04874,1.79393 2.00988,5.023 3.66469,7.17837c1.55833,2.02694 4.01843,2.57373 6.65942,2.88882c-12.32863,-13.88144 -22.70232,-28.65654 -31.33812,-43.11918c-0.02278,1.14785 -0.04422,2.2957 -0.04422,3.44885c0,1.80584 0.0402,3.60242 0.10049,5.3937c0.0134,0.41836 0.03082,0.83408 0.04824,1.25112z"/>
        <path stroke="null" fill="#33A15D" d="m688.68455,216.15292c-0.0402,0 -0.0804,-0.00265 -0.12059,-0.00794c-2.56997,-0.30583 -5.46823,-0.83805 -7.33876,-3.27409c-0.83477,-1.0843 -1.26757,-2.34733 -1.68696,-3.56932c-0.46629,-1.35836 -0.90579,-2.64257 -1.84507,-3.46473c-1.31178,-1.14917 -3.457,-1.30805 -6.55356,-0.49118l-0.69408,0.18667c-2.37434,0.64343 -5.06759,1.37424 -7.59334,0.43293c-1.7486,-0.65138 -3.09924,-2.45854 -3.28415,-4.39546c-0.0536,-0.54943 -0.00402,-1.06841 0.13801,-1.53841l-0.64182,0.01721c-0.2787,-0.01192 -0.53329,-0.09532 -0.72624,-0.282c-0.13533,-0.13107 -0.22913,-0.29391 -0.27468,-0.47132c-0.00804,-0.03177 -0.01474,-0.06487 -0.0201,-0.09797c-0.2653,-1.80187 -0.51051,-3.69377 -0.72758,-5.62274l-0.03886,-0.34025c-0.21305,-1.92368 -0.39126,-3.85265 -0.53195,-5.73263c0,-0.00132 -0.01072,-0.16417 -0.01072,-0.16417c-0.12595,-1.71185 -0.21573,-3.43428 -0.28808,-5.15937c0,-0.00132 0,-0.00132 0,-0.00132l-0.04824,-1.25774c-0.06968,-2.05739 -0.10183,-3.78115 -0.10183,-5.4268c0,-1.15977 0.02144,-2.31556 0.04556,-3.47003c0.00938,-0.44352 0.31622,-0.82746 0.75036,-0.93867c0.43548,-0.11253 0.89105,0.07414 1.12018,0.45543c9.44244,15.81306 19.94878,30.27041 31.22691,42.96825c0.27468,0.3098 0.32828,0.75464 0.13399,1.11872c-0.17553,0.32569 -0.51989,0.52693 -0.88837,0.52693zm-7.51563,-8.26929c0.09379,0.26081 0.18223,0.52163 0.272,0.78112c0.38456,1.12005 0.74768,2.17919 1.38414,3.00665c0.78118,1.01678 1.86517,1.61255 3.21582,1.99517c-1.64007,-1.8919 -3.26539,-3.81955 -4.87196,-5.78294zm-19.46774,-9.88978c0.44485,0 0.83745,0.28862 0.9634,0.71095c0.12863,0.4316 -0.05092,0.89365 -0.43949,1.12932c-0.62976,0.38129 -0.70614,1.05253 -0.6579,1.549c0.11121,1.17036 0.96876,2.34204 1.99247,2.72333c1.91609,0.71492 4.17118,0.10194 6.35258,-0.48853l0.7048,-0.19065c2.93309,-0.77318 5.24044,-0.77053 6.99574,0.01854c-6.80279,-8.68235 -13.2639,-18.00946 -19.30963,-27.88203c0,1.60064 0.03216,3.28203 0.10049,5.28779l0.04824,1.24185c0.07102,1.7039 0.15945,3.40516 0.28406,5.09714l-0.99154,0.23566l1.00226,-0.07414c0.13935,1.85748 0.31488,3.76394 0.52525,5.66511l0.03886,0.3376c0.17955,1.59666 0.3792,3.1695 0.59359,4.68408l1.77004,-0.04501c0.00938,0 0.01876,0 0.0268,0z"/>
       </g>
      </g>
     </g>
     <g stroke="null">
      <g stroke="null">
       <g stroke="null">
        <path stroke="null" fill="#E3D96D" d="m503.07036,404.67572c14.86243,-9.38801 140.14524,-73.48756 148.31207,-76.1063c54.43572,-17.46268 103.17676,-20.73412 150.96512,-51.85449c3.69417,-2.40559 13.17546,-11.6943 6.69962,-10.37037s-31.31132,8.91007 -45.9875,13.31877c12.08209,-5.99874 24.16417,-11.99881 36.24626,-17.99755c7.57861,-3.76262 21.00196,-13.77023 19.79066,-16.28305c-2.23365,-4.63377 -37.77779,14.68507 -55.35892,20.68778c8.54335,-8.39638 20.52092,-12.08221 31.6865,-18.48078c10.4246,-5.97359 29.9245,-18.31397 26.5747,-22.72796c-3.91392,-5.1554 -46.86247,18.59994 -68.33608,28.46456c7.47543,-7.40211 17.64277,-10.1506 27.02223,-16.54917c8.70816,-5.94181 36.62412,-16.77026 31.042,-24.0519c-1.24747,-1.62844 -15.72936,4.58478 -19.20244,6.0517c-18.23501,7.70132 -43.6279,15.59461 -61.86291,23.29593c9.16373,-8.60821 26.31743,-20.02581 23.16325,-32.12392c-0.57885,-2.21759 -2.10234,-4.6576 -4.42041,-4.61788c-1.65882,0.02913 -2.96391,1.33188 -4.14974,2.47708c-15.43993,14.91676 -39.91095,16.5955 -54.7908,32.05772c-5.86886,6.09936 -11.21516,16.98342 -17.64277,22.50687c-5.78981,4.97667 -18.842,8.21236 -26.1285,10.59147c-39.06948,12.75345 -102.71851,28.25009 -143.62234,32.65746l0,99.05404z"/>
        <path stroke="null" fill="#E3D96D" d="m503.07036,405.66867c-0.16615,0 -0.3323,-0.03972 -0.48237,-0.1218c-0.32158,-0.17476 -0.52257,-0.50839 -0.52257,-0.87115l0,-99.05404c0,-0.50707 0.3859,-0.93205 0.89507,-0.98633c40.65193,-4.3809 104.84363,-20.02184 143.41599,-32.61377c1.3493,-0.44087 2.89557,-0.91087 4.55574,-1.41396c7.0346,-2.13683 16.66596,-5.06272 21.2284,-8.98289c3.47174,-2.98415 6.69694,-7.6894 9.81494,-12.23976c2.61955,-3.82352 5.09439,-7.43256 7.75949,-10.20223c7.74878,-8.05216 18.1372,-12.47145 28.1826,-16.74511c9.44914,-4.01946 19.21986,-8.17661 26.63231,-15.33777c1.30776,-1.26303 2.8192,-2.72598 4.83578,-2.7604c0.02546,0 0.05226,0 0.07638,0c2.90361,0 4.68705,2.87823 5.33423,5.36193c2.73344,10.4829 -8.66662,20.27074 -17.82634,28.13491c-0.43681,0.37467 -0.86961,0.74537 -1.29437,1.11343c7.94172,-3.15361 16.87767,-6.34826 25.57377,-9.45686c10.71135,-3.83014 21.78715,-7.7887 30.87719,-11.62678l0.42208,-0.17873c16.90045,-7.15586 19.09524,-6.71234 19.97691,-5.56052c0.84013,1.09489 1.1175,2.31291 0.82405,3.61831c-1.19521,5.33016 -12.24958,11.10912 -22.00154,16.20627c-4.00905,2.09579 -7.79567,4.07507 -10.09364,5.64393c-3.82548,2.60947 -7.76887,4.61391 -11.5823,6.55347c-2.57265,1.30805 -5.08099,2.58432 -7.46203,3.99695c3.29085,-1.61123 6.80815,-3.35882 10.42594,-5.15804c29.08035,-14.45867 46.96565,-22.93185 50.16538,-18.72174c0.52391,0.68977 0.6981,1.55165 0.50515,2.49032c-1.26489,6.1404 -19.56958,17.21643 -27.37999,21.69265c-3.69149,2.11565 -7.48615,3.944 -11.1562,5.71277c-5.76301,2.77761 -11.28349,5.43739 -16.07372,8.99348c5.64242,-2.24804 12.31389,-5.25601 18.81922,-8.18853c21.78045,-9.81961 30.81823,-13.47499 32.4851,-10.01158c1.86115,3.86191 -14.65876,14.82143 -20.24624,17.5964l-25.69571,12.75874c14.06517,-4.23394 29.72753,-8.9061 34.78172,-9.93877c1.762,-0.36011 2.8661,-0.04369 3.27879,0.93734c1.24881,2.97355 -7.59736,10.1784 -9.22269,11.2349c-32.98355,21.48082 -66.37175,29.73819 -101.72161,38.48012c-15.97456,3.95062 -32.49314,8.03627 -49.48738,13.48823c-8.43884,2.70877 -134.37687,67.34319 -148.08161,75.99906c-0.15945,0.10459 -0.34704,0.15755 -0.53597,0.15755zm1.00494,-99.1573l0,96.38896c20.21006,-11.95247 138.25327,-72.46813 146.99761,-75.27355c17.05856,-5.47314 33.61063,-9.56674 49.61869,-13.52663c35.17834,-8.69957 68.40576,-16.91854 101.1039,-38.21136c3.1582,-2.05739 8.03954,-7.12541 8.42946,-8.67573c-0.17151,-0.00662 -0.47567,0.00397 -0.97412,0.10459c-5.53388,1.13064 -25.0445,7.01287 -39.29191,11.30639l-6.60716,1.98987c-0.50113,0.14696 -1.03308,-0.10327 -1.22603,-0.58121c-0.19429,-0.47794 0.01608,-1.0234 0.48103,-1.25509l36.24626,-17.99755c8.26733,-4.10552 19.41549,-13.11488 19.31365,-15.03591c-1.64275,-1.66683 -18.59813,5.97623 -29.81463,11.03101c-8.73228,3.93738 -17.76068,8.00715 -24.28611,10.23533c-0.44217,0.14696 -0.93393,-0.02118 -1.18047,-0.41439c-0.24789,-0.39188 -0.18893,-0.90292 0.14337,-1.22993c5.86082,-5.76043 13.14867,-9.2715 20.8626,-12.99043c3.63789,-1.75289 7.39906,-3.56535 11.02757,-5.64525c11.62383,-6.66203 25.5175,-15.99444 26.41926,-20.37136c0.10317,-0.50309 -0.03216,-0.75597 -0.14337,-0.90292c-0.24387,-0.32304 -2.18407,-1.62182 -16.3752,4.41135c-9.17579,3.90031 -20.41239,9.48863 -31.27917,14.8916c-7.20477,3.58256 -14.01158,6.96654 -19.45434,9.4648c-0.44217,0.20521 -0.96742,0.06355 -1.24747,-0.33098s-0.23181,-0.9294 0.11121,-1.26965c4.57986,-4.53712 10.03066,-7.30944 15.80171,-10.24195c3.75714,-1.91044 7.64158,-3.88707 11.35987,-6.42372c2.39578,-1.63373 6.23332,-3.64082 10.29597,-5.76441c8.43482,-4.4087 19.98629,-10.44848 20.98052,-14.88101c0.15275,-0.68183 0.03484,-1.2776 -0.37116,-1.86277c-0.77582,-0.15755 -4.02781,0.282 -17.67627,6.05964l-0.42342,0.17873c-9.14364,3.86191 -20.24624,7.83107 -30.98438,11.66782c-10.71135,3.83014 -21.78715,7.7887 -30.87719,11.62678c-0.44619,0.19197 -0.96742,0.03442 -1.23407,-0.36673c-0.26798,-0.40115 -0.20501,-0.93337 0.14739,-1.26568c1.69098,-1.5874 3.62985,-3.2529 5.68395,-5.01638c8.74166,-7.5067 19.62183,-16.84705 17.19791,-26.13974c-0.50783,-1.94883 -1.74592,-3.86721 -3.4302,-3.8725c-1.21665,0.02118 -2.31405,1.08033 -3.37393,2.10505c-7.77289,7.50935 -17.7178,11.73932 -27.33443,15.83159c-9.86049,4.19554 -20.05597,8.53275 -27.52202,16.28967c-2.55121,2.65051 -4.97915,6.19601 -7.55181,9.94803c-3.19036,4.6576 -6.49059,9.47142 -10.16064,12.62503c-4.88402,4.19687 -14.35058,7.07245 -21.95732,9.38271c-1.64677,0.50045 -3.1783,0.96515 -4.51554,1.40205c-38.3888,12.53235 -102.10482,28.08062 -142.9296,32.60583z"/>
       </g>
       <g stroke="null">
        <path stroke="null" fill="#E36D6D" d="m713.97292,255.12025c2.28055,-1.23523 4.82908,-2.14345 7.42585,-2.02165s5.24044,1.42852 6.43163,3.71231c1.6883,3.23569 0.0804,7.19293 -2.00453,10.19561c-2.0675,2.97753 -4.61336,5.63069 -7.51161,7.82842c3.39939,-2.31026 7.27176,-4.24983 11.39873,-4.27101c4.12562,-0.02118 8.48305,2.35395 9.61797,6.2728c0.80395,2.77629 -0.13533,5.85973 -1.98443,8.09585s-4.50348,3.70569 -7.26774,4.64039c-2.66645,0.9016 -5.48833,1.34909 -8.30618,1.31864c-7.16591,-0.07679 -13.91242,-3.18274 -20.9564,-4.48151c-5.36371,-0.9903 -10.40584,-0.34157 -15.66906,-0.00132c11.37193,-8.76576 15.86201,-24.26372 28.82577,-31.28851z"/>
        <path stroke="null" fill="#E36D6D" d="m722.05132,291.88587c-0.09647,0 -0.19295,0 -0.28942,-0.00132c-4.6147,-0.05031 -9.07262,-1.32129 -13.38449,-2.55254c-2.53245,-0.72154 -5.15066,-1.46824 -7.74476,-1.94751c-4.35609,-0.80098 -8.47367,-0.49647 -12.8311,-0.17079c-0.85889,0.06355 -1.72046,0.12842 -2.58873,0.18403c-0.44217,0.02515 -0.84817,-0.22904 -1.00494,-0.63681c-0.15677,-0.40777 -0.0268,-0.86718 0.32024,-1.13593c4.95102,-3.81558 8.66796,-9.08218 12.26164,-14.17668c4.57718,-6.48595 9.30845,-13.19299 16.69812,-17.19657l0,0c2.87548,-1.55827 5.48297,-2.26525 7.95646,-2.14345c3.15016,0.14696 6.00688,1.81511 7.27712,4.2485c2.1345,4.08963 -0.3792,8.78033 -2.0675,11.21239c-0.7182,1.03399 -1.48731,2.02562 -2.30869,2.97488c1.84239,-0.64608 3.60975,-0.96382 5.35969,-0.97177c0.01876,0 0.03752,0 0.05628,0c4.23818,0 9.20125,2.395 10.5318,6.99302c0.84281,2.90868 0.01072,6.3562 -2.17202,8.99745c-1.78344,2.15801 -4.38155,3.82484 -7.72064,4.95151c-2.69459,0.90954 -5.50306,1.37159 -8.34906,1.37159zm-27.47512,-6.99302c2.10502,0 4.24622,0.13769 6.42627,0.53884c2.68923,0.49647 5.35567,1.25641 7.93235,1.99252c4.37619,1.24715 8.50851,2.42677 12.84986,2.47311c2.74818,0.04104 5.39721,-0.39586 7.96986,-1.26568c2.97999,-1.00619 5.2726,-2.46119 6.81351,-4.32926c1.77272,-2.14345 2.4601,-4.9012 1.7955,-7.19558c-1.0505,-3.63022 -5.29806,-5.54463 -8.64518,-5.55258c-3.30291,0.01721 -6.74651,1.31864 -10.83462,4.09757c-0.44619,0.30318 -1.06122,0.20124 -1.38146,-0.23434s-0.23181,-1.04458 0.20099,-1.37159c2.82724,-2.14477 5.28198,-4.70393 7.29454,-7.60202c1.43506,-2.06798 3.59501,-6.00801 1.94021,-9.18015c-0.94733,-1.81379 -3.14078,-3.06093 -5.58614,-3.17479c-2.10636,-0.09532 -4.35475,0.52428 -6.89524,1.90117l0,0c-6.97832,3.78115 -11.36791,10.00496 -16.01744,16.59153c-3.09924,4.39149 -6.28692,8.90875 -10.31473,12.61576c2.1144,-0.1549 4.26364,-0.3045 6.45173,-0.3045zm19.39807,-29.77261l0.0134,0l-0.0134,0z"/>
       </g>
       <g stroke="null">
        <path stroke="null" fill="#D1C758" d="m509.28358,304.88425c-2.11708,0.26876 -4.19932,0.52031 -6.21188,0.73743l0,99.05536c8.63848,-5.45593 54.57775,-29.39397 93.14342,-49.00274c-46.21261,-5.29044 -72.5622,-29.74746 -86.93153,-50.79005z"/>
        <path stroke="null" fill="#D1C758" d="m503.07036,405.66867c-0.16615,0 -0.3323,-0.03972 -0.48237,-0.1218c-0.32158,-0.17476 -0.52257,-0.50839 -0.52257,-0.87115l0,-99.05404c0,-0.50707 0.3859,-0.93205 0.89507,-0.98633c2.0072,-0.21713 4.08275,-0.46735 6.19312,-0.73611c0.38054,-0.04501 0.74902,0.11915 0.96072,0.42895c13.6833,20.03905 39.74882,45.04153 86.21467,50.35977c0.43949,0.05031 0.79323,0.37864 0.87229,0.80892c0.07906,0.42895 -0.13533,0.85923 -0.52927,1.06047c-38.6474,19.64982 -84.39908,43.48459 -93.06034,48.95508c-0.16481,0.10327 -0.3524,0.15622 -0.54133,0.15622zm1.00494,-99.15863l0,96.38896c11.34379,-6.71631 52.663,-28.24347 88.79939,-46.64084c-44.82713,-6.11657 -70.39152,-30.48489 -84.0775,-50.30946c-1.59987,0.19859 -3.17964,0.38924 -4.72189,0.56135z"/>
       </g>
      </g>
      <g stroke="null">
       <g stroke="null">
        <path stroke="null" fill="#8C2B27" d="m790.30968,503.05852c19.56154,-20.2628 39.86137,-44.62317 46.7727,-71.78101c4.94164,-19.42078 3.67675,-29.33968 10.8239,-53.17048c5.26188,-17.54476 24.63583,-35.47876 25.88999,-53.73448c0.3658,-5.32883 0.49041,-12.40525 5.71611,-13.77288c4.74869,-1.24317 8.58623,3.94135 10.14188,8.54467c4.63747,13.72654 -8.44152,43.69509 -10.03602,58.08095c15.50693,-22.0607 39.11102,-61.52715 47.18807,-87.17306c1.30643,-4.14921 4.16716,-9.34962 8.43214,-8.28385c4.13902,1.03399 4.33063,6.71896 3.59635,10.87479c-4.09481,23.17545 -20.80499,72.00608 -19.01887,73.54979c1.78612,1.54503 16.61773,-23.09072 20.54504,-32.21527c7.15519,-16.62463 16.07908,-48.10247 26.18076,-45.13818c5.48565,1.6099 -12.81502,64.56558 -27.07315,91.25475c11.39069,-4.81779 21.56874,-22.44067 26.79846,-33.5392s14.07857,-33.49022 18.4293,-29.43236c4.34939,4.05786 -5.2525,50.39552 -32.30153,79.78948c5.70003,0.54149 10.35225,-4.19157 14.04641,-8.51554c7.70322,-9.01334 19.09122,-29.68656 24.83682,-26.61635c5.74559,3.0702 -12.62476,38.01277 -25.80424,53.08443c-13.17948,15.07166 -29.15405,27.47161 -43.5207,41.44441s-27.47378,27.52192 -32.72896,46.75205l-98.91447,0l0,-0.00265z"/>
        <path stroke="null" fill="#8C2B27" d="m889.22281,504.05147l-98.91313,0c-0.40198,0 -0.7651,-0.23698 -0.92321,-0.60239c-0.15811,-0.36408 -0.08174,-0.78906 0.19697,-1.07636c17.93755,-18.58008 39.43528,-43.48062 46.52481,-71.33749c2.11574,-8.31165 3.06976,-14.75126 4.07873,-21.5682c1.31044,-8.85182 2.66511,-18.00284 6.75589,-31.642c2.30601,-7.6894 7.33072,-15.53636 12.19062,-23.12779c6.37401,-9.95598 12.9651,-20.25088 13.66052,-30.39354l0.06566,-0.98898c0.3524,-5.43872 0.78921,-12.20931 6.39411,-13.67491c5.219,-1.37689 9.53489,3.80896 11.35317,9.18942c3.1113,9.20663 -1.3962,25.12958 -5.37309,39.17783c-1.53689,5.43077 -3.01215,10.63913 -3.90454,14.98692c14.51807,-21.23721 36.63886,-58.21996 44.51761,-83.23833c2.07688,-6.59451 5.68797,-9.9295 9.63673,-8.95244c5.74291,1.43382 4.77415,9.5535 4.34135,12.00675c-2.14924,12.159 -7.79567,31.48843 -12.33265,47.02081c-3.01215,10.31344 -6.11407,20.93138 -6.71301,24.68871c3.8027,-4.05256 14.98168,-22.39698 18.65575,-30.9337c1.52215,-3.53358 3.118,-7.73177 4.80898,-12.17489c6.44235,-16.92913 13.71679,-36.13543 22.58306,-33.52596c0.3926,0.11518 0.93393,0.42631 1.28633,1.25244c3.20108,7.51994 -13.31884,62.5757 -26.31877,88.62542c11.24865,-6.91093 20.75541,-25.67901 23.55987,-31.63009c0.85889,-1.82173 1.81426,-3.94797 2.83126,-6.21189c6.15159,-13.68417 10.81452,-23.43229 14.81687,-24.22665c0.88301,-0.17344 1.7017,0.07149 2.3797,0.70301c3.13944,2.92589 0.22511,18.37487 -4.10954,31.42356c-3.60037,10.83507 -11.76185,31.16274 -26.57604,48.02038c4.1015,-0.68315 7.68446,-4.23923 10.97397,-8.08923c2.20685,-2.58167 4.70983,-6.1179 7.35886,-9.86198c7.12571,-10.07116 13.85615,-19.5823 18.72409,-16.98606c0.79457,0.42498 1.30107,1.19816 1.50473,2.301c1.51947,8.18588 -15.06074,38.62443 -27.02625,52.30595c-8.3705,9.57204 -18.00321,18.19746 -27.31701,26.53824c-5.40257,4.83633 -10.98871,9.83947 -16.25997,14.96442c-14.76327,14.35806 -27.39339,27.75096 -32.465,46.30324c-0.11657,0.43293 -0.51453,0.73478 -0.96742,0.73478zm-96.57362,-1.9859l95.80718,0c5.32753,-18.65025 18.00723,-32.08949 32.78926,-46.46609c5.30074,-5.1554 10.90295,-10.17178 16.32026,-15.02267c9.26959,-8.30106 18.8554,-16.8828 27.14684,-26.36348c12.4787,-14.26935 27.87442,-43.6183 26.57068,-50.64971c-0.08977,-0.48059 -0.25191,-0.78906 -0.48371,-0.91087c-3.27879,-1.76877 -10.70465,8.7234 -16.12062,16.37573c-2.67717,3.78248 -5.20426,7.35577 -7.47007,10.00761c-4.22076,4.93695 -8.97749,9.43567 -14.91066,8.86241c-0.3792,-0.03442 -0.7048,-0.27935 -0.84147,-0.63019c-0.13801,-0.35084 -0.06298,-0.74802 0.19429,-1.02605c26.9204,-29.25628 36.07475,-74.93197 32.35378,-78.39935c-0.23583,-0.21977 -0.41404,-0.23566 -0.60431,-0.19991c-3.29219,0.6527 -9.3607,14.15285 -13.37645,23.08675c-1.02236,2.27584 -1.98309,4.41267 -2.846,6.24367c-3.97823,8.44272 -14.60248,28.65786 -27.31433,34.03303c-0.38858,0.16549 -0.84549,0.07149 -1.13491,-0.23963c-0.28808,-0.3098 -0.34838,-0.76523 -0.14873,-1.13726c14.61186,-27.34981 30.99108,-86.48064 27.59036,-89.88448c-6.96358,-2.04548 -14.2139,17.04299 -20.04391,32.36487c-1.69902,4.46563 -3.30291,8.68235 -4.8398,12.25565c-3.26539,7.58349 -17.41096,32.05242 -20.94166,32.85076c-0.43414,0.10062 -0.87095,-0.00132 -1.19119,-0.2767c-1.17109,-1.01413 -0.39394,-4.37428 6.40751,-27.65829c4.52358,-15.48605 10.15394,-34.75854 12.28308,-46.81031c0.25459,-1.44441 1.3158,-8.69824 -2.8527,-9.73885c-4.26766,-1.06179 -6.76795,6.15761 -7.22755,7.61526c-8.42008,26.7408 -32.91253,66.94468 -47.32073,87.44447c-0.26262,0.37203 -0.74902,0.52295 -1.17779,0.36276c-0.43012,-0.15887 -0.6981,-0.58518 -0.64584,-1.03796c0.56679,-5.11833 2.56461,-12.17357 4.67901,-19.6432c3.89784,-13.77288 8.31824,-29.38337 5.40257,-38.0141c-1.27695,-3.77983 -4.71385,-9.0001 -8.93193,-7.89991c-4.20736,1.10019 -4.57852,6.82885 -4.90412,11.88362l-0.067,0.99692c-0.73026,10.64575 -7.45935,21.15513 -13.96736,31.32029c-4.78621,7.47493 -9.73588,15.20537 -11.96283,22.62999c-4.04791,13.50412 -5.39319,22.58498 -6.69292,31.3653c-1.01834,6.86857 -1.97907,13.35716 -4.11758,21.76414c-6.99172,27.47029 -27.64395,51.97762 -45.40866,70.54578zm128.04574,-136.29496l0,0l0,0z"/>
       </g>
       <g stroke="null">
        <path stroke="null" fill="#E36D6D" d="m875.63331,413.04165c1.01834,-8.13822 4.87196,-16.33072 11.90656,-20.68249c2.64635,-1.63638 6.40751,-2.55254 8.67332,-0.43028c1.4163,1.32658 1.74726,3.41707 1.79818,5.34339c0.13801,5.20703 -1.20325,10.44451 -3.8295,14.96045c2.69459,-4.10684 5.52584,-8.3474 9.74124,-10.91848c4.2154,-2.56975 10.23835,-2.94708 13.77575,0.47794c2.75756,2.66905 3.32569,6.96786 2.40114,10.66958c-1.39486,5.57641 -5.70137,10.09764 -10.68991,13.04604c-4.98853,2.94972 -10.66177,4.5358 -16.26801,6.05567c-3.1314,0.84997 -6.27352,1.68801 -9.33256,2.76834c-2.94649,1.04194 -5.81661,3.85397 -6.86577,0.0662c-1.82766,-6.58392 -2.1546,-14.61093 -1.31044,-21.35637z"/>
        <path stroke="null" fill="#E36D6D" d="m878.81294,437.31465c-0.36312,0 -0.71686,-0.06487 -1.0639,-0.21713c-0.84415,-0.36938 -1.42434,-1.16506 -1.77674,-2.43471c-1.75128,-6.31384 -2.24973,-14.44146 -1.3359,-21.74428l0.9969,0.1218l-0.9969,-0.1218c1.18449,-9.47142 5.69333,-17.27203 12.36883,-21.4027c2.84332,-1.75686 7.14179,-2.89147 9.89801,-0.30848c1.79416,1.67875 2.06482,4.24983 2.11172,6.03978c0.06968,2.62668 -0.21573,5.23616 -0.84013,7.76354c1.50339,-1.7317 3.20912,-3.31513 5.22034,-4.54109c4.38289,-2.67302 10.94449,-3.31645 15.0058,0.61298c3.31229,3.20524 3.55214,8.10247 2.67449,11.61619c-1.33858,5.35001 -5.29806,10.20091 -11.1495,13.66034c-5.24714,3.1033 -11.23526,4.72777 -16.51857,6.16291l-0.48639,0.13239c-2.90361,0.78774 -5.90772,1.60064 -8.77516,2.61344c-0.64986,0.23036 -1.32518,0.56929 -1.97907,0.89763c-1.16975,0.58783 -2.29127,1.14917 -3.35383,1.14917zm13.98076,-45.62936c-1.54761,0 -3.28147,0.6249 -4.71921,1.5159c-6.16231,3.8116 -10.33215,11.08794 -11.44294,19.96227c-0.88301,7.05921 -0.40466,14.90087 1.28097,20.9764c0.17419,0.63019 0.406,1.03532 0.6512,1.14255c0.48907,0.21845 1.6615,-0.36805 2.69459,-0.88704c0.70748,-0.35614 1.44042,-0.72287 2.21087,-0.9956c2.93845,-1.03796 5.98008,-1.86145 8.91987,-2.65978l0.48639,-0.13239c5.1587,-1.40072 11.00613,-2.98812 16.01878,-5.95108c5.38783,-3.18538 9.02036,-7.6007 10.22897,-12.43306c0.74634,-2.98282 0.57885,-7.10158 -2.1278,-9.72164c-3.29219,-3.18671 -8.91987,-2.55254 -12.5457,-0.34157c-4.1015,2.49959 -6.93008,6.81031 -9.42636,10.61265c-0.29478,0.44881 -0.90445,0.59047 -1.36672,0.30583c-0.46629,-0.28067 -0.61904,-0.87512 -0.34838,-1.34247c2.55121,-4.38619 3.8295,-9.37874 3.69685,-14.43882c-0.0603,-2.28114 -0.53061,-3.75865 -1.48329,-4.64965c-0.72624,-0.67918 -1.68428,-0.9625 -2.72808,-0.9625z"/>
       </g>
       <g stroke="null">
        <path stroke="null" fill="#732320" d="m826.82527,456.38723c-9.54427,17.18201 -23.19943,32.87723 -36.51559,46.67129l98.91313,0c1.83569,-6.71764 4.64551,-12.73094 8.11591,-18.32191c-30.86111,-2.9815 -54.6903,-15.71906 -70.51346,-28.34938z"/>
        <path stroke="null" fill="#732320" d="m889.22281,504.05147l-98.91313,0c-0.40198,0 -0.7651,-0.23698 -0.92321,-0.60239c-0.15811,-0.36408 -0.08174,-0.78906 0.19697,-1.07636c11.57158,-11.98689 26.16066,-28.10048 36.36149,-46.46344c0.14337,-0.25817 0.39528,-0.43955 0.68738,-0.49647c0.2921,-0.05958 0.59359,0.01589 0.82539,0.20124c13.89902,11.09191 37.32222,24.97732 69.98151,28.13358c0.34436,0.03177 0.64718,0.23963 0.80261,0.54546s0.13801,0.66991 -0.04288,0.9625c-3.68613,5.93519 -6.30434,11.84258 -8.0047,18.0611c-0.12059,0.43293 -0.51855,0.73478 -0.97144,0.73478zm-96.57228,-1.9859l95.80584,0c1.61997,-5.66643 3.98627,-11.08529 7.20745,-16.5015c-31.61817,-3.4131 -54.55229,-16.71466 -68.53707,-27.66623c-9.8002,17.29322 -23.3227,32.51712 -34.47622,44.16774z"/>
       </g>
      </g>
      <g stroke="null">
       <g stroke="null">
        <path stroke="null" fill="#CF7239" d="m1052.29681,236.99295c-9.62333,-15.09152 -16.73564,-31.59964 -25.61397,-47.13202c-14.69226,-25.70549 -34.26049,-50.00363 -57.38355,-68.6989c-1.62265,-1.31202 -3.34713,-2.64389 -5.40123,-3.06226c-2.0541,-0.41836 -4.5209,0.38394 -5.29806,2.30762c-0.90579,2.24274 0.76912,4.62715 2.34085,6.47536c9.08736,10.68414 18.17472,22.69089 27.26074,33.37503c-16.06568,-17.34485 -37.65854,-33.43329 -58.45281,-44.8628c-2.13718,-1.17433 -4.41907,-2.34601 -6.86309,-2.29835c-2.44536,0.04766 -5.03409,1.77804 -5.11985,4.1929c-0.07504,2.10638 1.64945,3.80101 3.24127,5.20438c13.47829,11.88892 31.22289,29.90765 44.70118,41.79657c-21.6076,-15.21332 -45.80393,-35.65485 -71.97531,-39.96425c-5.21498,-0.85923 -12.24154,-0.09797 -13.39521,5.0005c-1.24479,5.50359 5.25116,7.3796 10.66981,9.14705c20.30922,6.62496 39.0199,23.26151 53.59693,38.72505c-17.45786,-8.79224 -69.676,-44.02078 -76.7106,-32.76735c-2.87815,4.60464 21.81261,19.42342 26.55996,22.1216c15.27244,8.68235 18.26181,14.74332 29.57612,28.08857c4.27435,5.04154 8.20971,12.68328 3.84558,17.65068c-4.52626,5.15142 -12.83914,1.99517 -19.46238,0.0662c-8.13199,-2.36852 -14.76059,-4.15583 -22.76663,-1.40072c-2.34353,0.80628 -6.981,3.91619 -8.39864,5.9299c-1.41764,2.01238 -1.46052,5.1448 0.49979,6.64747c1.74056,1.33452 4.1953,0.94264 6.39813,0.91351c12.94098,-0.16549 21.12925,13.52001 32.61239,19.4168c9.94491,5.10641 21.80993,4.05521 32.92727,5.4599c19.114,2.41485 37.06629,12.79052 48.56417,28.07003c12.14238,16.13477 29.38987,29.70112 41.92218,45.5433l130.65323,179.28439l0,-166.81559c0.00134,0.00265 -101.27273,-71.35206 -118.52826,-98.41458z"/>
        <path stroke="null" fill="#CF7239" d="m1170.82641,503.21872c-0.31622,0 -0.62306,-0.14828 -0.81467,-0.41307l-130.65323,-179.28439c-5.91442,-7.47493 -13.06023,-14.6096 -19.97155,-21.50994c-7.64158,-7.63115 -15.54579,-15.52179 -21.94124,-24.02144c-11.26205,-14.96574 -29.16343,-25.31096 -47.88483,-27.67682c-3.13676,-0.39718 -6.40215,-0.59974 -9.56035,-0.79568c-8.06634,-0.50177 -16.40468,-1.02075 -23.70324,-4.77013c-4.37753,-2.24671 -8.28073,-5.59362 -12.05529,-8.82931c-6.2829,-5.38576 -12.22278,-10.47628 -19.86168,-10.47628c-0.0737,0 -0.14605,0 -0.21975,0.00132c-0.36982,0.0053 -0.74768,0.02118 -1.12688,0.03442c-1.95629,0.08076 -4.1685,0.16946 -5.89968,-1.15712c-2.46412,-1.88925 -2.35558,-5.66114 -0.70748,-8.00053c1.54895,-2.20038 6.3231,-5.41489 8.89173,-6.29927c8.54067,-2.94046 15.74812,-0.83805 23.38032,1.38483c0.60699,0.17741 1.22871,0.36408 1.85981,0.55473c6.03635,1.81644 12.87532,3.87515 16.56011,-0.31774c3.75848,-4.27895 0.47165,-11.25873 -3.85764,-16.36249c-2.17068,-2.56049 -4.06399,-4.88796 -5.73487,-6.94271c-7.10025,-8.72737 -11.38399,-13.9953 -23.57193,-20.92344c-0.25325,-0.14431 -25.45452,-14.53811 -27.18704,-21.30606c-0.21171,-0.83011 -0.12059,-1.57018 0.27334,-2.19773c5.46421,-8.74855 30.95088,5.19247 61.20099,22.89213c4.14572,2.42545 7.94842,4.64965 11.20042,6.48065c-17.58113,-17.81485 -33.57043,-28.9147 -48.74908,-33.86621l-0.61636,-0.20124c-5.39855,-1.75156 -12.11559,-3.93208 -10.72073,-10.10558c1.23005,-5.43342 8.19497,-6.80766 14.54219,-5.76308c20.98722,3.45547 40.92795,17.32631 58.72213,30.25849c-3.29085,-3.11257 -6.65004,-6.32972 -9.96099,-9.50054c-7.66838,-7.34518 -15.59671,-14.94059 -22.3191,-20.87048c-1.77808,-1.56754 -3.66603,-3.45017 -3.57759,-5.98021c0.10719,-3.01195 3.24261,-5.0945 6.10603,-5.15142c2.63295,-0.02118 4.99523,1.1174 7.37092,2.42412c16.26801,8.94185 32.22381,20.26942 45.63912,32.27087c-0.70212,-0.87512 -1.40156,-1.74759 -2.09564,-2.61477c-4.46194,-5.57111 -9.0753,-11.33154 -13.60826,-16.66038c-1.74458,-2.0521 -3.60573,-4.75557 -2.50432,-7.48155c1.0237,-2.53401 4.07605,-3.39456 6.43565,-2.91265c2.21623,0.45146 4.02379,1.8032 5.83403,3.26614c22.13151,17.89163 42.05751,41.74494 57.62339,68.97825c3.66603,6.4171 7.08417,13.09767 10.38976,19.55714c4.70179,9.19074 9.56437,18.69526 15.20009,27.53384l0,0c16.95405,26.58988 117.25131,97.4256 118.26296,98.13788c0.26396,0.18667 0.42074,0.48721 0.42074,0.8076l0,166.81559c0,0.43028 -0.28138,0.8129 -0.69676,0.94529c-0.10719,0.0331 -0.21037,0.04899 -0.31354,0.04899zm-286.45145,-279.76166c8.39328,0 14.89325,5.57244 21.18151,10.96217c3.68747,3.16023 7.49955,6.4277 11.66537,8.5685c6.92204,3.55476 15.046,4.05918 22.90331,4.54903c3.19036,0.19727 6.48925,0.4038 9.68764,0.80628c19.2547,2.43339 37.66256,13.07384 49.24352,28.46324c6.31238,8.38712 14.16433,16.22745 21.75767,23.80829c6.95152,6.94006 14.14021,14.1171 20.14976,21.71383l128.85773,176.8179l0,-163.22641c-8.08242,-5.71012 -101.59699,-72.08684 -118.37551,-98.39869l0,0c-5.68529,-8.91537 -10.57065,-18.46225 -15.29254,-27.69536c-3.29487,-6.44094 -6.70096,-13.10164 -10.34689,-19.47638c-15.44395,-27.0228 -35.2038,-50.68149 -57.1437,-68.41822c-1.66954,-1.35041 -3.19706,-2.49826 -4.9671,-2.8597c-1.54493,-0.31774 -3.57625,0.2489 -4.16314,1.7039c-0.7048,1.74759 0.79323,3.84073 2.17738,5.46917c4.55172,5.35134 9.17579,11.12369 13.64712,16.70539c4.46328,5.57376 9.07932,11.33684 13.61496,16.66832c0.3524,0.41307 0.3055,1.0287 -0.10719,1.38483c-0.41002,0.35481 -1.03308,0.32304 -1.40424,-0.07679c-15.20009,-16.41015 -36.41375,-32.69056 -58.19956,-44.66554c-2.1278,-1.16903 -4.21138,-2.2348 -6.35526,-2.17257c-1.90403,0.03707 -4.06935,1.37424 -4.135,3.23437c-0.0603,1.6708 1.46856,3.16288 2.90495,4.42988c6.75455,5.9577 14.69896,13.56767 22.38074,20.92609c7.66838,7.34518 15.59671,14.94059 22.3191,20.87048c0.3993,0.35084 0.45021,0.94794 0.11657,1.361c-0.3323,0.41174 -0.93527,0.49383 -1.36806,0.18932c-3.45968,-2.43604 -6.91132,-4.95151 -10.56797,-7.61526c-18.39312,-13.40482 -39.23831,-28.59696 -60.99062,-32.1782c-5.24044,-0.86056 -11.31029,0.094 -12.25092,4.23791c-0.92589,4.10022 3.30559,5.81339 9.38616,7.78605l0.62038,0.20124c16.77316,5.47182 34.44138,18.22659 54.01632,38.99248c0.3323,0.35217 0.36178,0.88968 0.067,1.27362c-0.29478,0.38526 -0.82673,0.50574 -1.25819,0.28729c-4.1015,-2.06534 -10.04674,-5.54463 -16.93127,-9.57204c-20.04525,-11.7274 -53.59559,-31.35471 -58.46889,-23.55674c-0.03484,0.05693 -0.14471,0.23169 -0.03216,0.66726c1.16573,4.55698 18.18142,15.49002 26.23971,20.07215c12.51488,7.11482 16.88839,12.49131 24.13604,21.40138c1.66552,2.0468 3.55214,4.36766 5.71075,6.91226c2.35826,2.78158 9.60591,12.36686 3.83352,18.93887c-4.541,5.16996 -12.37151,2.81203 -18.66513,0.91616c-0.6244,-0.18932 -1.24077,-0.37335 -1.84105,-0.54811c-7.63354,-2.22421 -14.22328,-4.14391 -22.15027,-1.41528c-2.17604,0.74935 -6.63128,3.7507 -7.90421,5.5592c-1.0974,1.55827 -1.24881,4.11611 0.2921,5.29573c1.15233,0.88439 2.82054,0.81687 4.58522,0.74405c0.39796,-0.01721 0.79457,-0.03177 1.18315,-0.03707c0.07906,-0.0053 0.16079,-0.0053 0.24119,-0.0053z"/>
       </g>
       <g stroke="null">
        <path stroke="null" fill="#E36D6D" d="m1019.90417,202.903c-0.47969,-3.32042 -0.98082,-6.70969 -2.52576,-9.69649c-1.54493,-2.98679 -4.35073,-5.5486 -7.726,-5.90474c-4.11088,-0.43293 -8.0382,2.63463 -9.47862,6.46344s-0.78386,8.16337 0.77314,11.94717c-5.15066,-2.9484 -10.77968,-5.6201 -16.73028,-5.47844c-5.9506,0.14166 -12.19464,3.94664 -13.18752,9.74547c-0.84951,4.95681 2.32075,9.88713 6.49327,12.76536c6.51203,4.49343 14.9589,4.9952 22.90063,4.88267c4.25158,-0.0609 8.51655,-0.2542 12.76411,0.04634c2.12512,0.1496 8.18827,2.22421 9.84174,0.188c1.52349,-1.87601 -0.92321,-9.71237 -1.25283,-11.98689c-0.62172,-4.32397 -1.24747,-8.64793 -1.87187,-12.9719z"/>
        <path stroke="null" fill="#E36D6D" d="m1020.29543,229.74707c-1.59719,0 -3.41278,-0.37335 -5.02337,-0.70433c-0.86157,-0.17741 -1.67356,-0.34555 -2.1546,-0.37864c-3.30023,-0.23434 -6.68756,-0.16284 -9.96367,-0.09268c-0.90579,0.01854 -1.81024,0.03707 -2.71334,0.05031c-8.21775,0.12313 -16.75708,-0.41572 -23.49153,-5.0614c-5.03275,-3.47268 -7.74342,-8.8677 -6.9073,-13.7464c1.14429,-6.6766 8.14539,-10.42995 14.15361,-10.57161c5.33691,-0.14696 10.46614,1.95015 14.94416,4.33059c-0.85085,-2.95502 -1.24211,-6.60113 0.09379,-10.15324c1.69366,-4.5027 6.22126,-7.55701 10.5251,-7.10423c3.38197,0.35746 6.64468,2.82527 8.51387,6.44094c1.63873,3.16552 2.16264,6.79972 2.62491,10.00761l1.87321,12.9719c0.07504,0.50971 0.27602,1.37821 0.51051,2.3844c1.08936,4.68672 1.87991,8.70089 0.53061,10.36375c-0.76778,0.94926 -2.05008,1.26303 -3.51596,1.26303zm-12.35811,-3.22907c1.77138,0 3.55214,0.03972 5.32351,0.16549c0.61502,0.04369 1.45248,0.2158 2.42124,0.41439c2.00051,0.41174 5.72281,1.17565 6.56428,0.14166c0.84951,-1.04723 -0.3926,-6.39327 -0.92187,-8.67706c-0.25459,-1.09357 -0.45557,-1.9581 -0.53999,-2.5499l-1.87321,-12.97057l0,-0.00132c-0.46227,-3.20127 -0.94063,-6.51243 -2.4266,-9.38271c-1.22603,-2.37249 -3.69283,-5.0283 -6.93678,-5.36987c-3.44494,-0.36276 -7.048,2.14212 -8.42946,5.82001c-1.18851,3.1589 -0.91785,7.14527 0.76108,11.22695c0.16213,0.39321 0.0536,0.84467 -0.27066,1.1227s-0.79189,0.32172 -1.16305,0.11121c-4.63881,-2.65581 -10.12312,-5.35001 -15.78027,-5.35001c-0.14069,0 -0.28138,0.00132 -0.42074,0.0053c-5.27796,0.12445 -11.29287,3.49518 -12.22144,8.91669c-0.85889,5.01241 2.73746,9.48201 6.07789,11.78565c6.26682,4.32397 14.42963,4.82441 22.31106,4.70526c0.89909,-0.01324 1.79952,-0.03045 2.70129,-0.05031c1.58647,-0.03045 3.20108,-0.06355 4.82372,-0.06355z"/>
       </g>
       <path stroke="null" fill="#BA632D" d="m1171.40928,334.60126c-0.06432,-0.04501 -6.52275,-4.60067 -16.27471,-11.70622c-0.2653,-0.19329 -0.60699,-0.2489 -0.92053,-0.14034c-0.31086,0.10459 -0.55205,0.35349 -0.64182,0.66594c-7.01182,24.08102 -20.80097,59.5108 -46.67354,91.53939c-0.28138,0.34819 -0.29344,0.83805 -0.02948,1.19948l63.14254,86.64614c0.19295,0.26346 0.49845,0.41307 0.81467,0.41307c0.10317,0 0.20635,-0.01589 0.30818,-0.04766c0.41538,-0.13239 0.69676,-0.51501 0.69676,-0.94529l0,-166.81559c0,-0.32172 -0.15811,-0.62225 -0.42208,-0.80892z"/>
      </g>
      <g stroke="null">
       <g stroke="null">
        <path stroke="null" fill="#693A1D" d="m700.73716,-156.9831c0.50515,13.48161 1.59987,169.47007 4.82774,182.57834c1.25685,5.10244 2.74148,10.21812 5.40659,14.76053c3.51462,5.99345 8.93595,10.74504 12.29915,16.82322c7.97522,14.41763 2.79374,32.77794 8.52593,48.20176c3.40742,9.16956 10.53046,16.84308 12.72927,26.36613c-3.35249,2.04945 -7.78093,1.7317 -11.33977,0.05428s-6.39679,-4.53315 -8.97213,-7.48287c-3.90588,-4.47489 -7.39504,-9.3046 -10.40852,-14.40969c-1.24211,-2.10373 -2.89959,-4.55036 -5.36237,-4.47357c-1.59317,8.89286 1.63739,17.97637 6.05377,25.88422c4.41639,7.90785 10.05612,15.13918 13.93922,23.31579c1.24479,2.62271 1.47794,6.89637 -1.42836,7.27898c-1.23005,0.16284 -2.37032,-0.59974 -3.34981,-1.35306c-7.6657,-5.8968 -12.12362,-14.66653 -18.02733,-22.29106c-4.63747,-5.9908 -8.36112,-12.50323 -10.31339,-20.4786c-3.97019,6.60775 -0.69944,14.98825 2.60749,21.94287c4.2221,8.88094 14.03569,23.65074 12.66629,26.64151c-1.3694,2.99077 -6.9408,-0.3045 -9.42234,-2.65449c-2.4802,-2.35131 -8.34906,-10.47893 -9.8136,-13.55178c-4.5611,-9.56939 -4.77013,-14.15682 -9.33122,-23.72621c-3.16758,4.88664 -1.7553,14.86247 -0.04824,20.41637c2.94515,9.57866 10.68857,22.29371 9.02974,25.1587c-1.66016,2.86499 -5.57274,-1.19022 -7.32134,-3.37868c-1.7486,-2.18846 -6.18375,-9.20266 -7.06809,-11.85053c-3.52534,-10.56764 -4.9604,-15.24906 -8.48573,-25.8167c-2.66645,5.57905 -0.48505,10.50938 0.3256,16.62728c0.87899,6.64085 1.75932,13.2817 2.63831,19.92122c-0.90445,1.75951 -3.61779,1.85351 -5.21096,0.66329c-1.59317,-1.19022 -2.31941,-3.17612 -2.89825,-5.06537c-5.89834,-19.2619 -4.70045,-39.8345 -4.01977,-59.9477c0.65388,-19.30824 0.77984,-38.6337 0.37786,-57.94856c-0.54133,-26.15695 -36.76883,-176.16785 -41.68099,-201.76478l83.07523,-0.44087z"/>
        <path stroke="null" fill="#693A1D" d="m689.45099,174.00021c-2.39712,0 -5.11985,-2.95105 -6.55356,-4.74498c-1.74994,-2.18846 -6.2963,-9.34564 -7.23291,-12.15503c-1.76334,-5.28779 -3.00411,-9.10204 -4.24488,-12.91497c-1.00628,-3.09536 -2.0139,-6.19071 -3.30023,-10.07513c-0.61368,2.93251 -0.05092,5.8028 0.57885,9.00937c0.27334,1.39145 0.55607,2.82925 0.75706,4.35177l2.63831,19.92122c0.0268,0.19859 -0.00804,0.39983 -0.10049,0.57856c-0.48907,0.95058 -1.39084,1.61785 -2.53915,1.87866c-1.42166,0.32436 -3.01885,-0.01192 -4.17386,-0.8738c-1.85311,-1.38483 -2.65171,-3.6011 -3.25333,-5.56979c-5.55532,-18.14186 -4.86794,-37.52027 -4.20334,-56.26054l0.13935,-4.00887c0.64986,-19.20762 0.77716,-38.68665 0.37786,-57.89428c-0.38322,-18.48873 -18.89828,-100.10392 -31.15053,-154.1098c-5.07965,-22.38506 -9.09138,-40.06619 -10.51572,-47.48949c-0.05628,-0.28994 0.02144,-0.58915 0.21171,-0.81687s0.47299,-0.79966 0.77046,-0.8023l83.07523,0c0.56411,0.04237 0.9902,0.41969 1.00896,0.95588c0.12461,3.32704 0.28272,15.17227 0.50247,31.56786c0.66058,49.29003 1.89063,141.03596 4.29713,150.81321c1.20459,4.89061 2.67985,10.03277 5.2994,14.49839c1.65347,2.81998 3.80002,5.4321 5.87556,7.95684c2.28591,2.78158 4.64953,5.65849 6.43699,8.88756c4.47266,8.08658 4.9135,17.44812 5.33825,26.49985c0.3457,7.37034 0.70346,14.99222 3.24797,21.83563c1.44578,3.88972 3.62985,7.6007 5.74291,11.18988c2.82322,4.79529 5.74291,9.75342 7.02388,15.29937c0.09513,0.41439 -0.08576,0.84202 -0.45155,1.06577c-3.36321,2.05739 -8.07706,2.09843 -12.30049,0.10591c-3.82146,-1.80187 -6.84567,-4.91841 -9.30041,-7.73045c-3.93937,-4.51196 -7.47677,-9.41052 -10.51572,-14.55929c-1.0505,-1.77937 -2.21489,-3.4409 -3.65397,-3.87383c-1.017,7.19161 0.98216,15.15374 6.09263,24.30477c1.80488,3.23172 3.85898,6.4171 5.84474,9.49525c2.85806,4.43253 5.81393,9.01466 8.12395,13.87747c0.93527,1.96869 1.44846,4.98064 0.36446,6.94138c-0.54803,0.99163 -1.4364,1.59534 -2.56863,1.74362c-1.55431,0.21051 -2.89289,-0.6249 -4.10016,-1.55297c-5.48297,-4.21805 -9.39286,-9.91758 -13.17546,-15.42912c-1.60791,-2.34469 -3.27209,-4.76881 -5.03141,-7.04068c-4.70447,-6.07553 -7.84391,-11.90746 -9.74928,-18.14583c-1.77138,5.55655 0.70346,12.17489 3.75044,18.58405c1.39352,2.92986 3.44762,6.59186 5.43473,10.13206c5.18282,9.23443 8.3035,15.01076 7.23692,17.34088c-0.42342,0.92675 -1.17913,1.51723 -2.18541,1.7092c-2.7656,0.52957 -6.89658,-2.207 -8.84751,-4.05653c-2.5137,-2.38176 -8.51119,-10.66296 -10.02664,-13.84569c-2.30601,-4.83898 -3.52802,-8.46655 -4.70983,-11.97365c-1.00092,-2.96958 -2.03132,-6.02787 -3.73571,-9.83682c-1.76602,4.97402 -0.51989,13.04869 0.93661,17.78969c1.17511,3.82484 3.185,8.28385 4.95906,12.21726c3.33507,7.39682 5.16406,11.68239 3.98091,13.72257c-0.65924,1.13726 -1.57173,1.4325 -2.22159,1.48016c-0.067,0.00397 -0.13533,0.00662 -0.20501,0.00662zm-21.31952,-44.02078c0.0201,0 0.04154,0 0.06164,0.00132c0.41136,0.02515 0.76376,0.29391 0.89373,0.6805c1.76334,5.28779 3.00411,9.10204 4.24488,12.91497c1.23943,3.81028 2.47886,7.62056 4.24086,12.90173c0.80931,2.42809 5.07161,9.25562 6.90194,11.54602c1.93753,2.42545 4.04121,4.05653 5.03409,3.98769c0.11657,-0.00794 0.3591,-0.02648 0.62574,-0.48721c0.73294,-1.267 -1.93083,-7.17837 -4.07337,-11.92864c-1.79684,-3.98636 -3.83352,-8.50495 -5.04615,-12.44894c-1.51277,-4.92371 -3.42752,-15.6992 0.16481,-21.23986c0.19697,-0.3045 0.54535,-0.48059 0.91115,-0.45543c0.36446,0.02383 0.68872,0.24096 0.84415,0.56797c2.30467,4.83765 3.52668,8.46391 4.70849,11.971c1.16305,3.45282 2.3663,7.02347 4.62139,11.7552c1.41898,2.97753 7.25032,11.03101 9.59921,13.25787c2.03132,1.925 5.44411,3.85 7.07613,3.53887c0.36178,-0.06884 0.58153,-0.24228 0.73562,-0.57723c0.70346,-1.53841 -4.03049,-9.97584 -7.16457,-15.55886c-2.00319,-3.56932 -4.07471,-7.26045 -5.49636,-10.25122c-3.74107,-7.86681 -6.64066,-16.08314 -2.56193,-22.87095c0.20769,-0.34687 0.60565,-0.53487 1.01298,-0.47529c0.40466,0.05958 0.7316,0.35614 0.82807,0.74802c1.71376,7.00096 4.9336,13.39026 10.13384,20.1079c1.79416,2.31688 3.47442,4.76616 5.09841,7.13335c3.86434,5.63201 7.51429,10.95025 12.74669,14.97633c0.86157,0.66329 1.7754,1.26833 2.59945,1.15182c0.49175,-0.06487 0.83343,-0.29524 1.0706,-0.72684c0.611,-1.10548 0.4261,-3.36544 -0.4194,-5.14613c-2.25509,-4.74762 -5.17612,-9.27548 -8.00068,-13.65372c-2.00319,-3.10462 -4.07337,-6.31516 -5.9104,-9.60249c-5.56202,-9.95863 -7.57861,-18.63966 -6.16365,-26.53692c0.08308,-0.46205 0.48237,-0.80363 0.95805,-0.81951c0.04958,-0.00132 0.09781,-0.00265 0.14739,-0.00265c3.18232,0 5.08501,3.2251 6.11541,4.96872c2.97597,5.04419 6.44235,9.84212 10.30133,14.26273c2.31807,2.65449 5.1587,5.59097 8.64384,7.2353c3.34847,1.57813 7.01182,1.69463 9.75062,0.3429c-1.28499,-4.95548 -3.88176,-9.3655 -6.62458,-14.0231c-2.15594,-3.662 -4.38557,-7.44845 -5.89164,-11.50233c-2.65037,-7.1307 -3.01483,-14.90749 -3.36857,-22.42743c-0.43414,-9.23443 -0.84415,-17.95518 -5.09439,-25.63929c-1.69902,-3.0702 -4.00369,-5.87562 -6.23332,-8.58835c-2.12378,-2.58564 -4.32125,-5.25866 -6.05377,-8.21368c-2.74684,-4.68408 -4.27301,-9.98908 -5.51244,-15.02399c-2.46144,-9.99437 -3.69283,-101.88725 -4.35475,-151.2554c-0.20099,-15.06239 -0.3524,-26.28405 -0.47165,-30.56035l-80.88178,0.43028c1.58781,7.97802 5.44813,24.99321 10.27185,46.25558c12.26968,54.084 30.81153,135.81437 31.19877,154.50301c0.3993,19.24469 0.27334,38.75947 -0.3792,58.00284l-0.13935,4.01284c-0.65924,18.57743 -1.34126,37.78903 4.11758,55.61446c0.51051,1.66948 1.17109,3.5349 2.54317,4.56095c0.6713,0.50309 1.68026,0.7136 2.50968,0.52295c0.33364,-0.07546 0.76108,-0.2436 1.05184,-0.61431l-2.59275,-19.57303c-0.19429,-1.46162 -0.47031,-2.86896 -0.73696,-4.23129c-0.85219,-4.33853 -1.65748,-8.43743 0.49979,-12.94939c0.16615,-0.34952 0.52123,-0.56929 0.90847,-0.56929z"/>
       </g>
       <g stroke="null">
        <path stroke="null" fill="#E36D6D" d="m667.86214,57.96276c-2.24705,6.88181 -3.28683,14.29318 -1.83034,21.37887c0.46227,2.24804 1.80354,4.91974 4.1216,4.79661c0.99958,-0.05296 1.88259,-0.65535 2.62625,-1.31864c4.03049,-3.59051 5.45885,-9.19869 6.17973,-14.51428c0.42878,4.26042 1.86785,8.67441 5.1922,11.42025c3.32435,2.74584 8.87163,3.1086 11.74309,-0.09797c2.98535,-3.33234 1.92145,-8.50892 0.3256,-12.67004c-3.8898,-10.13736 -10.3978,-21.66352 -19.15152,-28.49369c-2.23365,1.7701 -3.75044,6.61569 -5.00327,9.23708c-1.59719,3.33896 -3.05502,6.74544 -4.20334,10.26181z"/>
        <path stroke="null" fill="#E36D6D" d="m669.9953,85.13516c-2.79642,0 -4.41103,-2.98547 -4.947,-5.59627c-1.356,-6.59186 -0.73026,-13.95293 1.85847,-21.88197l0,0c1.04782,-3.20657 2.39846,-6.50581 4.25024,-10.37964c0.3055,-0.63814 0.62708,-1.41264 0.97144,-2.24142c1.14027,-2.74451 2.43196,-5.85576 4.31321,-7.34518c0.36312,-0.28994 0.88435,-0.29259 1.25149,-0.00397c10.39512,8.10909 16.65926,21.59997 19.46774,28.92c2.33683,6.08877 2.16532,10.69076 -0.51185,13.6802c-3.35249,3.74408 -9.61663,3.11124 -13.13929,0.20124c-2.28993,-1.89058 -3.67273,-4.43518 -4.49946,-6.96918c-0.92321,3.63817 -2.5204,7.33724 -5.55398,10.03939c-0.7182,0.63814 -1.83435,1.49737 -3.24529,1.57283c-0.07504,0.00132 -0.14605,0.00397 -0.21573,0.00397zm-1.17645,-26.8679c-2.48154,7.59938 -3.08718,14.62284 -1.8022,20.87578c0.31488,1.53047 1.33322,4.11478 3.08316,4.00225c0.58957,-0.03045 1.22737,-0.36938 2.00854,-1.06444c4.00235,-3.56668 5.2324,-9.30593 5.8568,-13.90792c0.067,-0.49383 0.49309,-0.86056 0.99556,-0.86056c0.00536,0 0.01072,0 0.01742,0c0.51051,0.00794 0.93259,0.39321 0.98216,0.89498c0.339,3.36411 1.45248,7.96081 4.83712,10.75696c2.81384,2.3235 7.75548,2.89809 10.34555,0.0053c2.14254,-2.39235 2.18943,-6.31516 0.13801,-11.65988c-4.51018,-11.75123 -11.09456,-21.72045 -18.15328,-27.5206c-1.22737,1.3941 -2.27653,3.91752 -3.14078,6.00007c-0.3591,0.8632 -0.69542,1.66948 -1.01298,2.33542c-1.8156,3.79704 -3.13542,7.01949 -4.1551,10.14265l0,0z"/>
       </g>
       <g stroke="null">
        <path stroke="null" fill="#4D2A15" d="m700.73716,-156.9831l-83.07523,0.44087c2.07822,10.82845 9.76134,43.92678 17.97641,80.49249c14.99374,-18.91901 38.26687,-42.73657 65.57316,-51.48512c-0.20501,-15.22258 -0.35642,-26.27743 -0.47433,-29.44825z"/>
        <path stroke="null" fill="#4D2A15" d="m635.63833,-75.05679c-0.0737,0 -0.14873,-0.00794 -0.22243,-0.02515c-0.3792,-0.08473 -0.67398,-0.37864 -0.7584,-0.75332c-2.59275,-11.54337 -5.13325,-22.74253 -7.46069,-33.00301c-5.08099,-22.40095 -9.0954,-40.09399 -10.52108,-47.51994c-0.05628,-0.28994 0.02144,-0.58915 0.21171,-0.81687s0.47299,-0.80098 0.77046,-0.8023l83.07523,0c0.56411,0.04237 0.9902,0.41969 1.00896,0.95588c0.11523,3.07947 0.25593,13.1877 0.47433,29.47208c0.00536,0.43557 -0.27602,0.82349 -0.69542,0.9572c-27.20044,8.71413 -50.41059,32.62701 -65.09213,51.15281c-0.19295,0.24625 -0.48639,0.38262 -0.79055,0.38262zm-16.75976,-80.49911c1.58915,7.98199 5.45081,25.00778 10.27721,46.28338c2.19077,9.65545 4.57048,20.14232 7.00378,30.9668c14.77801,-18.32986 37.46023,-41.15976 64.03627,-49.94406c-0.19429,-14.43749 -0.3256,-23.89302 -0.4328,-27.73508l-80.88446,0.42895z"/>
       </g>
      </g>
      <g stroke="null">
       <path stroke="null" fill="#E38C6D" d="m1170.93897,-157.75495l-84.13645,0l-13.57342,0l-1.1108,0c-0.19429,0.11783 -0.39394,0.31774 -0.50917,0.6858c-14.88119,8.71545 -27.87174,18.76411 -41.60729,29.39132c-2.46948,1.91044 -4.94834,3.83014 -7.45131,5.74719c-9.85379,7.55569 -20.25428,14.00457 -30.31442,20.24029c-7.49017,4.64436 -15.23359,9.44626 -22.80683,14.72611c-29.46089,20.5448 -59.92538,41.78863 -92.31936,58.7919c-4.1484,2.17787 -8.40266,4.35706 -12.71185,6.56406c-28.69043,14.69698 -61.20903,31.35339 -79.73079,57.23628c-0.25861,0.36143 -0.24387,0.84864 0.03484,1.19286c0.57483,0.70963 1.40156,1.12932 2.39042,1.21272c4.08677,0.34025 10.46882,-5.05478 11.70825,-6.1404c7.60808,-6.66733 21.66388,-14.87174 26.83196,-16.77821c-1.50205,1.28951 -4.01173,3.21848 -6.46513,5.10376c-10.56127,8.11703 -28.2362,21.70456 -33.89872,33.64909c-0.12863,0.27008 -0.12595,0.58253 0.00402,0.85129s0.37652,0.4647 0.66996,0.53487c8.23785,1.96207 15.22019,-5.11303 20.83045,-10.798l0.62038,-0.62887c8.60633,-8.69692 26.32949,-19.483 30.62796,-20.54877c-1.30375,1.68934 -6.32578,5.31559 -9.7868,7.81385c-2.82054,2.03753 -5.73755,4.14391 -7.77959,5.87297c-10.8574,9.19339 -23.16325,19.61407 -30.73784,32.88518c-0.16615,0.29127 -0.17285,0.64476 -0.01876,0.94132c0.15409,0.29788 0.45021,0.4978 0.78519,0.53355c10.34555,1.09622 18.7616,-6.76265 26.18344,-13.70006l1.74994,-1.63109c8.51253,-7.88137 24.99895,-18.47019 30.77803,-21.1922c-2.24437,2.38308 -7.08015,6.68586 -10.84802,10.03806c-3.58161,3.18538 -7.28382,6.47933 -9.693,8.86109c-3.1314,3.09536 -5.90236,5.54596 -8.34638,7.70926c-6.03903,5.34339 -10.40316,9.20398 -13.68062,17.14494c-0.11657,0.28332 -0.09513,0.60504 0.05896,0.87115s0.4261,0.44617 0.73294,0.48721c10.71403,1.47089 19.9595,-6.82223 27.38267,-13.48161c8.80865,-7.90256 18.24573,-15.29275 28.04995,-21.9667c5.94658,-4.04859 12.86058,-8.33151 20.42579,-8.73928c-2.7656,4.46563 -5.97874,8.37917 -9.0954,12.17754c-3.51194,4.2816 -7.14581,8.70883 -10.18208,13.95028c-1.59719,2.75643 -2.7053,8.05481 -2.81384,11.38318c-0.11791,3.60772 3.83218,8.2865 7.41513,8.78297c0.0469,0.00662 0.09379,0.00927 0.13935,0.00927c0.3792,0 0.7316,-0.21183 0.90177,-0.55473c5.24714,-10.53718 13.02673,-19.85767 22.49463,-26.95396c2.87548,-2.15404 6.00286,-4.1876 9.0284,-6.15232c7.91627,-5.14348 16.10454,-10.46304 20.9497,-18.66746c2.13852,-3.61963 3.49586,-7.62188 4.81032,-11.49306c1.09204,-3.22113 2.22293,-6.55215 3.78662,-9.5866c6.04171,-11.71681 18.41322,-19.11098 30.56767,-25.67901c14.58104,-7.88137 45.59758,-21.23721 78.43642,-35.37682c53.94933,-23.23106 115.09672,-49.56144 131.85916,-63.42037c0.22779,-0.18932 0.36044,-0.46735 0.36044,-0.76126l0,-40.14563c0.00804,-0.54811 -0.44217,-0.99295 -0.9969,-0.99295z"/>
       <g stroke="null">
        <path stroke="null" fill="#E36D6D" d="m874.90439,-16.76798c-5.24178,1.6483 -10.70599,3.82352 -13.86954,8.26929c-0.27602,0.38791 -0.53865,0.81422 -0.55607,1.28686c-0.04422,1.26833 1.55029,1.88263 2.82858,2.0137c2.52843,0.25817 5.10377,0.07546 7.56923,-0.54016c-2.89959,2.6386 -4.56914,6.54817 -4.45792,10.44186c0.04288,1.4934 0.35642,3.02916 1.24211,4.23923c1.67356,2.28908 5.04883,2.83322 7.76619,1.95942c2.71736,-0.87247 4.90278,-2.86632 6.87113,-4.91444c3.82012,-3.97445 7.17931,-8.37653 10.00923,-13.08973c2.11172,-3.51637 7.13911,-10.92642 6.34454,-14.92338c-7.83185,0.2436 -16.31892,2.92192 -23.74746,5.25734z"/>
        <path stroke="null" fill="#E36D6D" d="m872.86503,12.28838c-2.22963,0 -4.56646,-0.7798 -6.01625,-2.76305c-0.89373,-1.22067 -1.37476,-2.83322 -1.43238,-4.79264c-0.08977,-3.18936 0.92857,-6.38268 2.80044,-8.97627c-1.65748,0.19329 -3.33105,0.20521 -5.00997,0.03442c-1.90269,-0.19462 -3.79332,-1.20875 -3.72901,-3.03578c0.02546,-0.72684 0.3859,-1.32923 0.73696,-1.82306c3.32033,-4.66554 8.87699,-6.91226 14.38675,-8.64528l0,0l0.3055,0.94661l-0.20769,-0.97706c7.49419,-2.35528 15.98662,-5.02565 23.92433,-5.2719c0.48103,-0.01721 0.92187,0.32436 1.01834,0.80098c0.77314,3.89104 -3.0577,10.09234 -5.59284,14.19521c-0.32292,0.52295 -0.62038,1.00222 -0.87229,1.42455c-2.88217,4.79926 -6.2963,9.26356 -10.1459,13.26714c-2.04606,2.12888 -4.34671,4.22997 -7.28918,5.17526c-0.87765,0.28067 -1.86651,0.44087 -2.87681,0.44087zm-1.98711,-19.01962c0.36312,0 0.7048,0.19462 0.88435,0.52031c0.21841,0.39983 0.13533,0.89498 -0.20367,1.20346c-2.69191,2.4506 -4.23684,6.06891 -4.13366,9.68325c0.04422,1.55297 0.39796,2.7935 1.0505,3.68583c1.45114,1.98458 4.44051,2.30762 6.64066,1.59666c2.51772,-0.8076 4.58924,-2.71406 6.45307,-4.65363c3.74777,-3.89634 7.06943,-8.24148 9.87523,-12.91232c0.25593,-0.42895 0.55741,-0.91484 0.88569,-1.44706c2.04204,-3.30586 5.34495,-8.65323 5.40391,-11.93526c-7.39638,0.41174 -15.3649,2.91662 -22.42897,5.13818l-0.40198,-0.91484l0.3055,0.94661c-5.17478,1.62711 -10.37502,3.70966 -13.35233,7.89329c-0.17955,0.2542 -0.36446,0.54281 -0.37116,0.74935c-0.01742,0.47529 0.98216,0.89763 1.92681,0.99295c2.4266,0.2489 4.85588,0.07546 7.22085,-0.51501c0.08174,-0.02118 0.16481,-0.03177 0.24521,-0.03177z"/>
       </g>
       <path stroke="null" fill="#E37F5B" d="m1172.04038,-157.05327l0,-0.99825l-10.04942,0l0,0.07546l-48.11128,0l-40.56483,0l-1.07998,0c-0.19563,0.11915 -0.39796,0.32039 -0.51319,0.69374c-11.79936,6.91358 -22.54153,14.79628 -31.52169,21.62777c-0.34704,0.26346 -0.47969,0.7189 -0.33096,1.12534c0.15007,0.40645 0.56545,0.67918 0.98484,0.65402c29.86019,-1.19154 69.81,4.6854 90.5788,39.4413c0.18625,0.31245 0.52123,0.48853 0.86559,0.48853c0.14873,0 0.30014,-0.03177 0.44083,-0.10062c19.95414,-9.64485 32.69546,-16.8497 38.95693,-22.02628c0.22779,-0.18932 0.36044,-0.46735 0.36044,-0.76126l0,-40.1496c-0.00134,-0.02515 -0.0134,-0.04634 -0.01608,-0.07017z"/>
      </g>
     </g>
    </g>
   </g>
   <clipPath id="SVGID_2_">
    <use id="svg_2" xlink:href="#SVGID_23_"/>
   </clipPath>
   <path id="svg_5" fill="#D47904" clip-path="url(#SVGID_2_)" d="m680,368c-111.2,-109 -133.4,-251 -137,-322.5l0,-45.5l-48.8,0l-491.2,0l0,367.7l491.2,0l0,0.3l185.8,0z"/>
   <path id="svg_6" fill="#EEB204" clip-path="url(#SVGID_2_)" d="m667,368c-111.2,-109 -133.4,-251 -137,-322.5l0,-45.5l-48.8,0l-491.2,0l0,367.7l491.2,0l0,0.3l185.8,0z"/>
   <path id="svg_7" fill="#04B0D7" clip-path="url(#SVGID_2_)" d="m-78.7,83.3c3.6,9.8 12.9,17.3 23.2,18.8c10.4,1.5 21.4,-3.2 27.5,-11.6c8.7,-12 8.4,-30.4 20.8,-38.5c8.6,-5.6 19.8,-3.8 29.9,-1.6c10,2.2 21.1,4.4 30,-0.6c5.8,-3.3 9.6,-9 13.8,-14.2c4.2,-5.2 9.5,-10.2 16.1,-10.8c6.9,-0.6 13.7,3.8 20.6,2.8c9.4,-1.3 14.7,-12.1 14.9,-21.6c0.3,-14.3 -7.7,-28.4 -20.1,-35.5c-9.9,-5.7 -21.8,-7 -33.3,-7.8c-31.6,-2.2 -63.3,-2.1 -94.8,0.2c-18.7,1.4 -38.6,4.1 -52.9,16.3c-11.5,9.9 -17.7,25 -19.7,40.1c-2,15.1 -0.2,30.4 1.8,45.5"/>
   <path id="svg_8" fill="#D72285" clip-path="url(#SVGID_2_)" d="m70.9,-1.7c3.4,9.5 6.9,19.1 13,27.2c6,8.1 15.1,14.5 25.2,14.9c13,0.5 24.7,-8.8 37.7,-9.3c10.6,-0.4 20.4,5.1 30.2,9.4s21.3,7.4 30.7,2.5c9.1,-4.8 13.4,-16.4 11.2,-26.5c-2.2,-10 -9.9,-18.3 -19.1,-23s-19.6,-6.2 -29.9,-6.5"/>
   <path id="svg_9" stroke-miterlimit="10" stroke-linejoin="round" stroke-linecap="round" stroke-width="2" stroke="#000000" fill="none" clip-path="url(#SVGID_2_)" d="m-79.4,63.3c1.5,13.2 11.8,24.9 24.7,28s27.4,-2.7 34.7,-13.8c4.3,-6.5 6.1,-14.4 10.2,-21c4.1,-6.6 12,-12.2 19.3,-9.7c7.7,2.6 11.3,12.9 19.3,14.6c8.2,1.7 14.8,-6.4 20,-13c10.5,-13.5 25.8,-25.4 42.8,-23.9c8.3,0.7 15.9,4.6 24,6.6c15.5,3.9 32.7,0.6 45.7,-8.7c13,-9.3 21.6,-24.5 22.9,-40.5"/>
   <path id="svg_10" fill="#D47904" clip-path="url(#SVGID_2_)" d="m278.6,387.9c4.1,-11 8.4,-22.4 16.3,-31.1c7.9,-8.8 20.2,-14.5 31.6,-11.3c7.4,2.1 13.7,7.8 21.4,8.8c9.3,1.1 17.9,-5 24.7,-11.4c6.9,-6.4 13.7,-13.7 22.8,-15.9c11,-2.6 22.1,3 31.7,9c9.6,5.9 19.6,12.6 30.9,12.4c6.2,-0.1 12.1,-2.3 18.2,-3.3c19.5,-3.3 40.6,6.7 50.4,23.8c9.8,17.2 7.6,40.4 -5.2,55.5"/>
   <path id="svg_11" stroke-miterlimit="10" stroke-linejoin="round" stroke-linecap="round" stroke-width="2" stroke="#000000" fill="none" clip-path="url(#SVGID_2_)" d="m566.8,349.3c2.2,-12.9 -9.4,-24.9 -22.2,-27.6c-12.8,-2.6 -25.9,1.9 -37.6,7.6c-11.7,5.7 -23,12.7 -35.7,15.7c-14.9,3.5 -31.1,0.8 -44.1,-7.1c-2.8,-1.7 -5.6,-3.9 -6.7,-6.9c-1.1,-3.1 0.3,-7.3 3.5,-8c2.7,-0.6 5.5,1.7 6.3,4.4c0.8,2.7 0,5.6 -1.2,8.2c-6.6,13.6 -24.3,18.2 -39.2,15.9c-14.9,-2.3 -28.5,-9.8 -43,-14c-14.4,-4.2 -29.9,-5.2 -44.3,-1c-14.4,4.2 -27.4,13.8 -34.1,27.2c-6.7,13.4 -6.2,30.5 2.5,42.7"/>
  </g>
 </g>
</svg>